<svg width="80" height="80" viewBox="0 0 80 80" fill="none" xmlns="http://www.w3.org/2000/svg">
<g clip-path="url(#clip0_249_45109)">
<path d="M41.75 80C62.8333 80 80 62.8333 80 41.75C80 20.6667 62.8333 3.5 41.75 3.5C20.6667 3.5 3.5 20.6667 3.5 41.75C3.5 62.8333 20.6667 80 41.75 80Z" fill="#D5D6DB"/>
<path d="M38.25 76.5C59.3333 76.5 76.5 59.3333 76.5 38.25C76.5 17.1667 59.3333 0 38.25 0C17.1667 0 0 17.1667 0 38.25C0 59.3333 17.1667 76.5 38.25 76.5Z" fill="white"/>
<path d="M38.25 3.5V73.0833C57.5 73.0833 73.0833 57.5 73.0833 38.25C73.0833 19 57.5 3.5 38.25 3.5Z" fill="#669F2A"/>
<path d="M3.5 38.25C3.5 57.5 19.0833 73 38.25 73V3.5C19.0833 3.5 3.5 19.0833 3.5 38.25Z" fill="#85B255"/>
<path d="M30.8333 58.8333L14.25 42.25L21.4167 35.0833L30.8333 44.5L55.1667 20.25L62.3333 27.3333L30.8333 58.8333Z" fill="#5D9126"/>
<path d="M30.8333 56.3346L14.25 39.7513L21.4167 32.5846L30.8333 42.0013L55.1667 17.668L62.3333 24.8346L30.8333 56.3346Z" fill="white"/>
</g>
<defs>
<clipPath id="clip0_249_45109">
<rect width="80" height="80" fill="white"/>
</clipPath>
</defs>
</svg>
