<svg width="64" height="64" viewBox="0 0 64 64" fill="none" xmlns="http://www.w3.org/2000/svg">
<path d="M10.4705 2.68945V53.072H9.11859C7.13822 53.072 5.52734 54.6797 5.52734 56.6561V63.9771H23.3475V56.6561C23.3475 54.6798 21.74 53.0718 19.7637 53.0718H18.4118V27.8176H28.7706V38.463H61.1397L53.3747 24.3202L61.1397 10.1775H43.6123V2.68945H10.4705Z" fill="#D5D6DB"/>
<path d="M7.80628 0.0234375V50.4059H6.45441C4.47416 50.4059 2.86328 52.0138 2.86328 53.9902V61.3112H20.6833V53.9902C20.6833 52.0138 19.0759 50.4059 17.0995 50.4059H15.7477V25.1516H26.1064V35.7969H58.4755L50.7105 21.6542L58.4755 7.51144H40.9483V0.0235625H7.80628V0.0234375Z" fill="white"/>
<path d="M53.9674 33.1312H28.7695V10.1797H53.9674L47.6679 21.6554L53.9674 33.1312Z" fill="#1166DA"/>
<path d="M13.082 2.69141H38.2798V22.486H13.082V2.69141Z" fill="#1779FF"/>
<path d="M38.2782 22.4863L28.7695 33.1313V22.4863H38.2782Z" fill="#103972"/>
<path d="M10.4648 2.69141H13.0798V58.6498H10.4648V2.69141Z" fill="#8B8B8A"/>
<path d="M17.0961 53.0685H6.44859C6.20426 53.0685 5.96994 53.1655 5.79717 53.3383C5.6244 53.5111 5.52734 53.7454 5.52734 53.9897V58.6489H18.0173V53.9895C18.0174 53.8685 17.9935 53.7487 17.9472 53.6369C17.901 53.5252 17.8331 53.4236 17.7475 53.3381C17.662 53.2525 17.5604 53.1847 17.4487 53.1384C17.3369 53.0921 17.2171 53.0683 17.0961 53.0684V53.0685Z" fill="#353535"/>
</svg>
