<svg width="72" height="72" viewBox="0 0 72 72" fill="none" xmlns="http://www.w3.org/2000/svg">
<path d="M7.57422 63.225H20.6242C21.9742 68.25 26.6242 72 32.0992 72C37.5742 72 42.1492 68.325 43.4992 63.225H56.5492C59.0242 63.225 60.9742 61.275 60.9742 58.8V52.5C60.9742 51.075 60.2992 49.725 59.1742 48.9L54.5992 45.525V39C54.5992 29.5 54.5992 31.25 54.5992 21.5C54.5992 18.2004 53.999 16 52.999 12.5C47.999 7 48.499 9.1314 43.7242 6.225C40.2742 4.125 36.2242 3 32.0242 3H31.7242C19.4992 3.3 9.52422 13.575 9.52422 26.025V45.6L4.87422 48.975C3.74922 49.8 3.07422 51.15 3.07422 52.575V58.875C3.14922 61.275 5.09922 63.225 7.57422 63.225Z" fill="#D5D6DB"/>
<path d="M4.425 60.15H17.475C18.825 65.175 23.475 68.925 28.95 68.925C34.425 68.925 39 65.175 40.425 60.15H53.475C55.95 60.15 57.9 58.2 57.9 55.725V49.425C57.9 48 57.225 46.65 56.1 45.825L51.525 42.45V36C51.525 27 51.525 29.75 51.525 20C51.525 15 49.5 12.5 48.5 10C42 3 46.1473 6.5 40.65 3.225C37.125 1.125 33.15 0 28.875 0H28.575C16.35 0.225 6.375 10.425 6.375 22.875V42.45L1.725 45.825C0.675 46.65 0 48 0 49.425V55.725C0 58.125 1.95 60.15 4.425 60.15Z" fill="white"/>
<path d="M28.6484 3.1499C17.9984 3.2999 9.52344 12.2249 9.52344 22.8749V43.4249C9.52344 43.8749 9.29844 44.2499 8.99844 44.4749L3.67344 48.4499C3.37344 48.6749 3.14844 49.0499 3.14844 49.4999V55.7999C3.14844 56.5499 3.74844 57.0749 4.42344 57.0749H28.9484V3.1499H28.6484Z" fill="#FCD462"/>
<path d="M54.2242 48.3749L48.8992 44.3999C48.5992 44.1749 48.3742 43.7999 48.3742 43.3499V22.5749C48.3742 11.8499 39.6742 3.1499 28.9492 3.1499V56.9999H53.4742C54.2242 56.9999 54.7492 56.3999 54.7492 55.7249V49.4249C54.7492 48.9749 54.5992 48.5999 54.2242 48.3749Z" fill="#F6C358"/>
<path d="M20.25 57C20.25 61.8 24.15 65.7 28.95 65.7C33.75 65.7 37.65 61.8 37.65 57H20.25Z" fill="#64798A"/>
</svg>
