<svg width="64" height="65" viewBox="0 0 64 65" fill="none" xmlns="http://www.w3.org/2000/svg">
<g clip-path="url(#clip0_82_34574)">
<path d="M56.0661 64.5008V27.3008C59.5328 24.8341 61.6661 20.8341 61.6661 16.5008C61.6661 9.23411 55.7328 3.30078 48.4661 3.30078H18.3328C11.0661 3.30078 5.13281 9.23411 5.13281 16.5008C5.13281 20.8341 7.26615 24.8341 10.7328 27.3008V64.5008H56.0661Z" fill="#D5D6DB"/>
<path d="M53.2654 61.7V24.5C56.732 22.0333 58.8654 18.0333 58.8654 13.7C58.8654 6.43333 52.932 0.5 45.6654 0.5H15.5987C8.26536 0.5 2.33203 6.43333 2.33203 13.7C2.33203 18.0333 4.46536 22.0333 7.93203 24.5V61.7H53.2654Z" fill="white"/>
<path d="M35.2677 14.7666H26.001C25.4677 20.0333 21.001 24.1666 15.601 24.1666C13.8677 24.1666 12.201 23.6999 10.7344 22.9666V58.8999H50.5344V22.9666C49.0677 23.6999 47.401 24.1666 45.6677 24.1666C40.201 24.1666 35.801 20.0333 35.2677 14.7666ZM18.8677 28.8999V53.3666C18.8677 54.4333 18.001 55.2333 17.001 55.2333C15.9344 55.2333 15.1344 54.3666 15.1344 53.3666V28.2333C15.1344 27.1666 16.001 26.3666 17.001 26.3666C18.0677 26.3666 18.8677 27.2333 18.8677 28.2333V28.8999ZM27.9344 28.8999V53.3666C27.9344 54.4333 27.0677 55.2333 26.0677 55.2333C25.001 55.2333 24.201 54.3666 24.201 53.3666V28.2333C24.201 27.1666 25.0677 26.3666 26.0677 26.3666C27.1344 26.3666 27.9344 27.2333 27.9344 28.2333V28.8999ZM37.0677 28.8999V53.3666C37.0677 54.4333 36.201 55.2333 35.201 55.2333C34.1344 55.2333 33.3344 54.3666 33.3344 53.3666V28.2333C33.3344 27.1666 34.201 26.3666 35.201 26.3666C36.2677 26.3666 37.0677 27.2333 37.0677 28.2333V28.8999ZM46.1344 28.8999V53.3666C46.1344 54.4333 45.2677 55.2333 44.2677 55.2333C43.201 55.2333 42.401 54.3666 42.401 53.3666V28.2333C42.401 27.1666 43.2677 26.3666 44.2677 26.3666C45.3344 26.3666 46.1344 27.2333 46.1344 28.2333V28.8999Z" fill="#E1E6E9"/>
<path d="M56.0661 13.6991C56.0661 7.89909 51.3995 3.23242 45.5995 3.23242H15.5995C9.79948 3.23242 5.13281 7.89909 5.13281 13.6991C5.13281 17.6991 7.39948 21.1658 10.7328 22.9658C12.1995 23.6991 13.8661 24.1658 15.5995 24.1658C20.9995 24.1658 25.4661 20.0324 25.9995 14.7658H35.2661C35.7995 20.0324 40.2661 24.1658 45.6661 24.1658C47.3995 24.1658 49.0662 23.6991 50.5328 22.9658C53.7995 21.2324 56.0661 17.7658 56.0661 13.6991ZM15.5995 21.9658C11.0661 21.9658 7.33281 18.2324 7.33281 13.6991C7.33281 9.16575 10.9995 5.49909 15.5995 5.49909C20.1328 5.49909 23.8661 9.23242 23.8661 13.7658C23.7995 18.2991 20.1328 21.9658 15.5995 21.9658ZM45.6661 21.9658C41.1328 21.9658 37.3995 18.2324 37.3995 13.6991C37.3995 9.16575 41.1328 5.43242 45.6661 5.43242C50.1995 5.43242 53.9328 9.16575 53.9328 13.6991C53.8661 18.2991 50.1995 21.9658 45.6661 21.9658Z" fill="#EBF0F3"/>
<path d="M15.5987 5.5C10.9987 5.5 7.33203 9.16667 7.33203 13.7C7.33203 18.2333 11.0654 21.9667 15.5987 21.9667C20.132 21.9667 23.8654 18.2333 23.8654 13.7C23.7987 9.16667 20.132 5.5 15.5987 5.5ZM15.5987 17.7C13.3987 17.7 11.6654 15.9 11.6654 13.7667C11.6654 11.5667 13.4654 9.83333 15.5987 9.83333C17.7987 9.83333 19.532 11.6333 19.532 13.7667C19.532 15.9 17.732 17.7 15.5987 17.7Z" fill="#E1E6E9"/>
<path d="M15.6013 17.6333C17.7736 17.6333 19.5346 15.8723 19.5346 13.6999C19.5346 11.5276 17.7736 9.7666 15.6013 9.7666C13.429 9.7666 11.668 11.5276 11.668 13.6999C11.668 15.8723 13.429 17.6333 15.6013 17.6333Z" fill="#EBF0F3"/>
<path d="M45.6651 5.5C41.1318 5.5 37.3984 9.23333 37.3984 13.7667C37.3984 18.3 41.1318 22.0333 45.6651 22.0333C50.1984 22.0333 53.9318 18.3 53.9318 13.7667C53.8651 9.16667 50.1984 5.5 45.6651 5.5ZM45.6651 17.7C43.4651 17.7 41.7318 15.9 41.7318 13.7667C41.7318 11.5667 43.5318 9.83333 45.6651 9.83333C47.8651 9.83333 49.5984 11.6333 49.5984 13.7667C49.5984 15.9 47.7984 17.7 45.6651 17.7Z" fill="#E1E6E9"/>
<path d="M45.6677 17.6333C47.84 17.6333 49.601 15.8723 49.601 13.6999C49.601 11.5276 47.84 9.7666 45.6677 9.7666C43.4954 9.7666 41.7344 11.5276 41.7344 13.6999C41.7344 15.8723 43.4954 17.6333 45.6677 17.6333Z" fill="#EBF0F3"/>
<path d="M16.9331 26.3662C15.8664 26.3662 15.0664 27.2329 15.0664 28.2329V28.8995C15.0664 27.8329 15.9331 27.0329 16.9331 27.0329C17.9997 27.0329 18.7997 27.8995 18.7997 28.8995V28.2329C18.8664 27.2329 17.9997 26.3662 16.9331 26.3662Z" fill="#D5D6DB"/>
<path d="M16.9331 27.0332C15.8664 27.0332 15.0664 27.8999 15.0664 28.8999V53.3665C15.0664 54.4332 15.9331 55.2332 16.9331 55.2332C17.9997 55.2332 18.7997 54.3665 18.7997 53.3665V28.8999C18.8664 27.8999 17.9997 27.0332 16.9331 27.0332Z" fill="#EBF0F3"/>
<path d="M26.0659 26.3662C24.9992 26.3662 24.1992 27.2329 24.1992 28.2329V28.8995C24.1992 27.8329 25.0659 27.0329 26.0659 27.0329C27.1326 27.0329 27.9326 27.8995 27.9326 28.8995V28.2329C27.9326 27.2329 27.0659 26.3662 26.0659 26.3662Z" fill="#D5D6DB"/>
<path d="M26.0659 27.0332C24.9992 27.0332 24.1992 27.8999 24.1992 28.8999V53.3665C24.1992 54.4332 25.0659 55.2332 26.0659 55.2332C27.1326 55.2332 27.9326 54.3665 27.9326 53.3665V28.8999C27.9326 27.8999 27.0659 27.0332 26.0659 27.0332Z" fill="#EBF0F3"/>
<path d="M35.1323 26.3662C34.0656 26.3662 33.2656 27.2329 33.2656 28.2329V28.8995C33.2656 27.8329 34.1323 27.0329 35.1323 27.0329C36.199 27.0329 36.999 27.8995 36.999 28.8995V28.2329C37.0656 27.2329 36.199 26.3662 35.1323 26.3662Z" fill="#D5D6DB"/>
<path d="M35.1323 27.0332C34.0656 27.0332 33.2656 27.8999 33.2656 28.8999V53.3665C33.2656 54.4332 34.1323 55.2332 35.1323 55.2332C36.199 55.2332 36.999 54.3665 36.999 53.3665V28.8999C37.0656 27.8999 36.199 27.0332 35.1323 27.0332Z" fill="#EBF0F3"/>
<path d="M44.2651 26.3662C43.1984 26.3662 42.3984 27.2329 42.3984 28.2329V28.8995C42.3984 27.8329 43.2651 27.0329 44.2651 27.0329C45.3318 27.0329 46.1318 27.8995 46.1318 28.8995V28.2329C46.1318 27.2329 45.2651 26.3662 44.2651 26.3662Z" fill="#D5D6DB"/>
<path d="M44.2651 27.0332C43.1984 27.0332 42.3984 27.8999 42.3984 28.8999V53.3665C42.3984 54.4332 43.2651 55.2332 44.2651 55.2332C45.3318 55.2332 46.1318 54.3665 46.1318 53.3665V28.8999C46.1318 27.8999 45.2651 27.0332 44.2651 27.0332Z" fill="#EBF0F3"/>
</g>
<defs>
<clipPath id="clip0_82_34574">
<rect width="64" height="64" fill="white" transform="translate(0 0.5)"/>
</clipPath>
</defs>
</svg>
