<svg width="48" height="48" viewBox="0 0 48 48" fill="none" xmlns="http://www.w3.org/2000/svg">
<g clip-path="url(#clip0_82_33861)">
<rect width="48" height="48" rx="6.85714" fill="#459E92"/>
<path d="M8.06785 29.6684C8.05246 29.6684 8.03703 29.6626 8.02515 29.651C7.96632 29.5935 7.90854 29.535 7.85182 29.4754C7.84153 29.4635 7.83621 29.4481 7.83698 29.4324C7.83774 29.4167 7.84452 29.4019 7.85591 29.391C7.86731 29.3802 7.88244 29.3741 7.89817 29.3742C7.9139 29.3742 7.92901 29.3803 7.94038 29.3911C7.99604 29.4496 8.05277 29.5071 8.11054 29.5635C8.11926 29.572 8.12524 29.5829 8.12773 29.5948C8.13022 29.6067 8.1291 29.6191 8.12451 29.6304C8.11993 29.6416 8.11208 29.6513 8.10199 29.658C8.09189 29.6648 8.08001 29.6684 8.06785 29.6684ZM7.57138 29.127C7.56234 29.127 7.55341 29.125 7.54523 29.1212C7.53706 29.1173 7.52984 29.1117 7.52411 29.1047C7.41949 28.9772 7.31955 28.8459 7.2245 28.711C7.21516 28.6978 7.21147 28.6814 7.21424 28.6654C7.21701 28.6494 7.22601 28.6352 7.23926 28.6259C7.25251 28.6165 7.26893 28.6129 7.2849 28.6156C7.30087 28.6184 7.31509 28.6274 7.32443 28.6406C7.41774 28.773 7.51587 28.902 7.6186 29.0272C7.62597 29.0362 7.63063 29.047 7.63206 29.0585C7.63349 29.07 7.63161 29.0816 7.62666 29.0921C7.62171 29.1026 7.61388 29.1114 7.6041 29.1176C7.59431 29.1238 7.58296 29.1271 7.57138 29.127ZM7.00689 28.3263C6.99634 28.3263 6.98596 28.3236 6.97677 28.3184C6.96759 28.3132 6.9599 28.3057 6.95447 28.2966C6.86953 28.1553 6.78963 28.011 6.71492 27.864C6.70801 27.8496 6.70702 27.8331 6.71215 27.818C6.71727 27.8028 6.72811 27.7903 6.74235 27.7831C6.75659 27.7759 6.77309 27.7745 6.78833 27.7793C6.80357 27.784 6.81633 27.7946 6.82389 27.8087C6.89726 27.9531 6.97575 28.0949 7.0592 28.2337C7.06478 28.243 7.06779 28.2535 7.06794 28.2644C7.06809 28.2752 7.06537 28.2858 7.06005 28.2952C7.05473 28.3047 7.047 28.3125 7.03766 28.3179C7.02832 28.3234 7.0177 28.3263 7.00689 28.3263ZM6.56296 27.4531C6.55095 27.4531 6.53921 27.4495 6.5292 27.4429C6.51919 27.4362 6.51137 27.4268 6.5067 27.4157C6.44253 27.2639 6.38356 27.11 6.32986 26.9542C6.32718 26.9466 6.32603 26.9385 6.32648 26.9305C6.32693 26.9224 6.32896 26.9146 6.33247 26.9073C6.33597 26.9 6.34087 26.8936 6.3469 26.8882C6.35292 26.8829 6.35994 26.8788 6.36756 26.8761C6.37517 26.8735 6.38323 26.8724 6.39127 26.8729C6.39931 26.8734 6.40717 26.8755 6.4144 26.8791C6.42163 26.8826 6.42809 26.8876 6.4334 26.8936C6.43871 26.8997 6.44276 26.9067 6.44534 26.9144C6.49815 27.0675 6.55613 27.2189 6.61918 27.3681C6.62312 27.3774 6.6247 27.3875 6.62378 27.3976C6.62285 27.4076 6.61946 27.4173 6.61389 27.4257C6.60832 27.4341 6.60076 27.441 6.59187 27.4458C6.58298 27.4506 6.57305 27.4531 6.56296 27.4531ZM6.24351 26.5269C6.23009 26.5269 6.21705 26.5225 6.2064 26.5143C6.19575 26.5062 6.18808 26.4947 6.18458 26.4818C6.14144 26.3228 6.10345 26.1625 6.07069 26.0011C6.06909 25.9932 6.06906 25.9851 6.0706 25.9772C6.07214 25.9694 6.07521 25.9619 6.07964 25.9552C6.08407 25.9485 6.08978 25.9427 6.09643 25.9383C6.10308 25.9338 6.11055 25.9307 6.11842 25.9291C6.12628 25.9275 6.13437 25.9274 6.14225 25.929C6.15012 25.9305 6.15761 25.9336 6.1643 25.938C6.17098 25.9425 6.17673 25.9482 6.18121 25.9548C6.18569 25.9615 6.18881 25.9689 6.19041 25.9768C6.22264 26.1356 6.26036 26.2948 6.30243 26.4498C6.3049 26.4589 6.30525 26.4684 6.30345 26.4776C6.30164 26.4868 6.29774 26.4955 6.29204 26.5029C6.28634 26.5104 6.279 26.5164 6.27058 26.5206C6.26216 26.5248 6.2529 26.5269 6.24351 26.5269ZM6.04852 25.5669C6.01849 25.5669 5.99231 25.5447 5.98807 25.5141C5.96567 25.3509 5.94838 25.1871 5.93621 25.0229C5.93501 25.0067 5.94028 24.9908 5.95085 24.9785C5.96142 24.9662 5.97644 24.9587 5.99259 24.9575C6.0006 24.9568 6.00866 24.9578 6.01629 24.9603C6.02393 24.9627 6.031 24.9667 6.03709 24.972C6.04318 24.9772 6.04816 24.9836 6.05175 24.9908C6.05535 24.998 6.05748 25.0058 6.05802 25.0138C6.07001 25.1754 6.0872 25.3381 6.10909 25.4975C6.11025 25.5061 6.10956 25.5149 6.10705 25.5233C6.10455 25.5316 6.10028 25.5393 6.09455 25.5459C6.08881 25.5525 6.08174 25.5577 6.0738 25.5614C6.06586 25.565 6.05724 25.5668 6.04852 25.5669ZM5.97579 24.5898C5.95973 24.5898 5.94432 24.5834 5.93288 24.5722C5.92145 24.5609 5.91493 24.5455 5.91472 24.5295C5.91263 24.3648 5.91553 24.2 5.92343 24.0355C5.92446 24.0194 5.93171 24.0043 5.94365 23.9934C5.95558 23.9826 5.97127 23.9768 5.98739 23.9773C6.00358 23.9781 6.0188 23.9853 6.0297 23.9973C6.0406 24.0093 6.04629 24.0251 6.04552 24.0413C6.03771 24.2034 6.03484 24.3656 6.03693 24.5278C6.03704 24.5359 6.03557 24.5438 6.0326 24.5513C6.02963 24.5588 6.02522 24.5655 6.01962 24.5713C6.01402 24.5771 6.00734 24.5816 5.99997 24.5848C5.99259 24.588 5.98467 24.5897 5.97664 24.5898H5.97579ZM6.02284 23.6106C6.01426 23.6107 6.00577 23.6089 5.99792 23.6054C5.99008 23.6019 5.98306 23.5968 5.97733 23.5904C5.97159 23.584 5.96727 23.5765 5.96463 23.5683C5.962 23.5601 5.96112 23.5515 5.96205 23.5429C5.97981 23.3796 6.00277 23.215 6.03025 23.0536C6.03297 23.0376 6.04193 23.0233 6.05516 23.014C6.06838 23.0046 6.08479 23.0008 6.10077 23.0036C6.11675 23.0063 6.131 23.0152 6.14037 23.0285C6.14975 23.0417 6.15349 23.0581 6.15076 23.0741C6.12362 23.2331 6.10105 23.3953 6.08358 23.5561C6.08007 23.5874 6.05361 23.6106 6.02284 23.6106ZM6.18752 22.6441C6.17831 22.6441 6.16921 22.6421 6.1609 22.6381C6.1526 22.6341 6.14532 22.6282 6.13959 22.621C6.13386 22.6138 6.12984 22.6054 6.12783 22.5964C6.12581 22.5874 6.12587 22.5781 6.12797 22.5691C6.16547 22.4086 6.20828 22.248 6.25527 22.0915C6.26022 22.0763 6.27091 22.0636 6.28506 22.0562C6.29921 22.0488 6.31569 22.0472 6.33099 22.0518C6.34628 22.0564 6.35917 22.0668 6.3669 22.0808C6.37462 22.0948 6.37657 22.1112 6.37233 22.1266C6.32572 22.2821 6.2839 22.4389 6.24696 22.5969C6.24383 22.6103 6.23626 22.6223 6.22547 22.6309C6.21467 22.6394 6.2013 22.6441 6.18752 22.6441ZM6.46943 21.705C6.45957 21.705 6.44986 21.7026 6.44113 21.698C6.43239 21.6935 6.42489 21.6869 6.41926 21.6788C6.41363 21.6707 6.41005 21.6614 6.40881 21.6516C6.40757 21.6418 6.40871 21.6319 6.41214 21.6226C6.46938 21.468 6.53162 21.3153 6.59876 21.1647C6.60199 21.1573 6.60664 21.1506 6.61246 21.1451C6.61828 21.1395 6.62514 21.1351 6.63265 21.1322C6.64016 21.1293 6.64817 21.1279 6.65623 21.1281C6.66428 21.1283 6.67222 21.1301 6.67958 21.1334C6.68694 21.1366 6.69357 21.1413 6.69911 21.1472C6.70464 21.1531 6.70897 21.16 6.71182 21.1675C6.71468 21.175 6.71602 21.183 6.71577 21.1911C6.71551 21.1991 6.71367 21.2071 6.71034 21.2144C6.64432 21.3626 6.58308 21.5129 6.52671 21.6651C6.52239 21.6768 6.51458 21.6869 6.50434 21.694C6.4941 21.7012 6.48191 21.705 6.46943 21.705ZM6.86908 20.8096C6.85854 20.8096 6.84818 20.8068 6.83901 20.8016C6.82984 20.7965 6.82217 20.789 6.81674 20.78C6.81132 20.7709 6.80832 20.7606 6.80805 20.7501C6.80777 20.7396 6.81023 20.7292 6.81518 20.7199C6.89232 20.574 6.9745 20.4309 7.06158 20.2908C7.06581 20.284 7.07135 20.2781 7.07787 20.2734C7.08439 20.2687 7.09177 20.2654 7.09958 20.2636C7.1074 20.2617 7.11549 20.2615 7.12341 20.2628C7.13133 20.2641 7.13891 20.2669 7.14572 20.2712C7.15254 20.2754 7.15845 20.281 7.16312 20.2875C7.1678 20.294 7.17114 20.3014 7.17296 20.3092C7.17478 20.317 7.17505 20.3251 7.17374 20.333C7.17244 20.3409 7.16958 20.3485 7.16535 20.3553C7.07977 20.493 6.999 20.6337 6.9232 20.777C6.91799 20.7868 6.9102 20.795 6.90066 20.8008C6.89113 20.8065 6.88021 20.8096 6.86908 20.8096ZM13.0996 20.1753C13.0841 20.1754 13.0692 20.1696 13.0579 20.1591C13.0466 20.1485 13.0396 20.1341 13.0385 20.1187C13.0374 20.1033 13.0421 20.088 13.0518 20.076C13.0615 20.0639 13.0754 20.056 13.0907 20.0538C13.2355 20.0322 13.3812 19.9773 13.5236 19.8906C13.5375 19.8822 13.5541 19.8796 13.5698 19.8834C13.5856 19.8872 13.5992 19.8972 13.6076 19.911C13.616 19.9249 13.6186 19.9415 13.6148 19.9572C13.6109 19.973 13.601 19.9866 13.5872 19.995C13.4308 20.0902 13.2698 20.1506 13.1088 20.1747C13.1057 20.1751 13.1027 20.1753 13.0996 20.1753ZM12.6187 20.121C12.6108 20.121 12.603 20.1195 12.5957 20.1165C12.4441 20.055 12.3045 19.9532 12.181 19.8139C12.1702 19.8018 12.1647 19.7859 12.1657 19.7697C12.1667 19.7536 12.174 19.7384 12.1861 19.7277C12.1982 19.7169 12.2141 19.7114 12.2303 19.7124C12.2465 19.7133 12.2616 19.7207 12.2724 19.7328C12.3833 19.8579 12.5076 19.9488 12.6416 20.0032C12.6549 20.0085 12.6658 20.0182 12.6726 20.0307C12.6794 20.0432 12.6817 20.0577 12.6789 20.0717C12.6762 20.0856 12.6687 20.0982 12.6577 20.1072C12.6467 20.1162 12.6329 20.1211 12.6187 20.121ZM7.38731 19.9774C7.37604 19.9774 7.36499 19.9743 7.35538 19.9684C7.34577 19.9625 7.33798 19.9541 7.33287 19.944C7.32776 19.934 7.32553 19.9227 7.32642 19.9115C7.32732 19.9002 7.3313 19.8895 7.33794 19.8804C7.43506 19.7469 7.53723 19.6172 7.64422 19.4915C7.64942 19.4854 7.65578 19.4804 7.66292 19.4767C7.67006 19.4731 7.67786 19.4709 7.68586 19.4702C7.69385 19.4696 7.7019 19.4705 7.70953 19.473C7.71717 19.4755 7.72424 19.4794 7.73035 19.4846C7.73646 19.4898 7.74148 19.4962 7.74513 19.5033C7.74879 19.5105 7.751 19.5183 7.75164 19.5263C7.75228 19.5342 7.75134 19.5423 7.74887 19.5499C7.7464 19.5576 7.74245 19.5646 7.73725 19.5707C7.6323 19.6941 7.53208 19.8213 7.43679 19.9522C7.43112 19.96 7.42368 19.9664 7.41508 19.9708C7.40647 19.9751 7.39696 19.9774 7.38731 19.9774ZM13.9289 19.6892C13.9171 19.6892 13.9056 19.6858 13.8957 19.6794C13.8858 19.673 13.878 19.6638 13.8732 19.6531C13.8684 19.6424 13.8667 19.6304 13.8685 19.6188C13.8703 19.6072 13.8755 19.5963 13.8833 19.5875C13.9904 19.4668 14.0778 19.3346 14.143 19.1946C14.1502 19.1805 14.1626 19.1696 14.1776 19.1644C14.1926 19.1592 14.209 19.1601 14.2234 19.1668C14.2378 19.1735 14.249 19.1855 14.2547 19.2003C14.2603 19.2151 14.26 19.2316 14.2538 19.2462C14.1836 19.3969 14.0897 19.539 13.9747 19.6686C13.9689 19.6751 13.9619 19.6803 13.954 19.6838C13.9461 19.6874 13.9376 19.6892 13.9289 19.6892ZM11.9608 19.4247C11.9383 19.4247 11.9166 19.4122 11.9059 19.3906C11.8321 19.2409 11.7711 19.0852 11.7236 18.9252C11.7213 18.9175 11.7206 18.9094 11.7214 18.9014C11.7222 18.8934 11.7246 18.8857 11.7285 18.8786C11.7323 18.8716 11.7375 18.8654 11.7437 18.8603C11.75 18.8553 11.7571 18.8515 11.7648 18.8492C11.7725 18.8469 11.7806 18.8462 11.7886 18.847C11.7965 18.8479 11.8043 18.8503 11.8113 18.8541C11.8184 18.8579 11.8246 18.8631 11.8297 18.8693C11.8347 18.8756 11.8385 18.8827 11.8408 18.8904C11.8863 19.0438 11.9448 19.1931 12.0155 19.3366C12.0201 19.3459 12.0222 19.3562 12.0217 19.3666C12.0212 19.3769 12.0181 19.387 12.0126 19.3958C12.0071 19.4046 11.9995 19.4119 11.9904 19.417C11.9814 19.422 11.9711 19.4247 11.9608 19.4247ZM8.02306 19.2319C8.01096 19.232 7.99913 19.2284 7.98907 19.2217C7.97901 19.215 7.97116 19.2054 7.96653 19.1942C7.96191 19.1831 7.9607 19.1708 7.96307 19.1589C7.96544 19.147 7.97128 19.1361 7.97985 19.1276C8.09657 19.0109 8.21807 18.899 8.34404 18.7923C8.35017 18.7871 8.35726 18.7832 8.3649 18.7808C8.37254 18.7783 8.38059 18.7774 8.38859 18.7781C8.39659 18.7787 8.40438 18.781 8.41151 18.7846C8.41865 18.7883 8.42498 18.7934 8.43017 18.7995C8.43535 18.8056 8.43928 18.8127 8.44172 18.8204C8.44417 18.828 8.44508 18.8361 8.44441 18.844C8.44375 18.852 8.44151 18.8598 8.43784 18.867C8.43416 18.8741 8.42911 18.8804 8.42299 18.8856C8.29959 18.9901 8.18058 19.0996 8.06626 19.214C8.06062 19.2197 8.05389 19.2242 8.04647 19.2273C8.03905 19.2304 8.03109 19.232 8.02306 19.2319ZM14.323 18.8105L14.3195 18.8104C14.3033 18.8094 14.2882 18.8021 14.2774 18.79C14.2666 18.778 14.261 18.7621 14.2619 18.7459C14.263 18.7271 14.2635 18.7083 14.2635 18.6897C14.2635 18.5495 14.2328 18.4196 14.1722 18.3035C14.1653 18.2892 14.1643 18.2728 14.1692 18.2577C14.1742 18.2427 14.1849 18.2301 14.199 18.2228C14.213 18.2154 14.2294 18.2138 14.2446 18.2183C14.2598 18.2228 14.2727 18.2331 14.2805 18.2469C14.3503 18.3806 14.3857 18.5296 14.3857 18.6896C14.3857 18.7106 14.3851 18.7317 14.3839 18.7528C14.383 18.7684 14.3763 18.783 14.365 18.7938C14.3536 18.8045 14.3386 18.8105 14.323 18.8105ZM8.77078 18.6004C8.75779 18.6005 8.74513 18.5964 8.73465 18.5887C8.72416 18.581 8.71638 18.5702 8.71245 18.5579C8.70852 18.5455 8.70863 18.5322 8.71277 18.5199C8.71691 18.5076 8.72487 18.4969 8.73549 18.4894C8.87024 18.3942 9.00917 18.305 9.15188 18.2221C9.15881 18.2181 9.16648 18.2155 9.17443 18.2144C9.18239 18.2133 9.19047 18.2138 9.19823 18.2159C9.20598 18.218 9.21326 18.2215 9.21964 18.2264C9.22601 18.2313 9.23137 18.2373 9.2354 18.2443C9.23943 18.2512 9.24205 18.2589 9.24312 18.2668C9.24418 18.2748 9.24367 18.2829 9.24162 18.2906C9.23956 18.2984 9.23599 18.3057 9.23112 18.312C9.22625 18.3184 9.22017 18.3238 9.21323 18.3278C9.07369 18.4089 8.93783 18.4961 8.80606 18.5892C8.79573 18.5965 8.78341 18.6004 8.77078 18.6004ZM11.6828 18.4895C11.6679 18.4895 11.6535 18.484 11.6424 18.4741C11.6312 18.4642 11.6241 18.4506 11.6223 18.4358C11.6022 18.2703 11.5953 18.1035 11.6017 17.937C11.6025 17.9208 11.6096 17.9056 11.6214 17.8947C11.6333 17.8837 11.649 17.8778 11.6651 17.8782C11.6731 17.8785 11.681 17.8804 11.6883 17.8838C11.6956 17.8871 11.7022 17.8919 11.7076 17.8977C11.7131 17.9036 11.7173 17.9105 11.7201 17.9181C11.7229 17.9256 11.7242 17.9336 11.7239 17.9416C11.7177 18.1017 11.7243 18.262 11.7436 18.4211C11.7446 18.4296 11.7438 18.4384 11.7412 18.4466C11.7386 18.4549 11.7343 18.4625 11.7286 18.469C11.7229 18.4754 11.7158 18.4806 11.7079 18.4841C11.7 18.4877 11.6915 18.4895 11.6828 18.4895ZM9.61672 18.1099C9.60284 18.1098 9.58939 18.105 9.57858 18.0963C9.56777 18.0876 9.56025 18.0754 9.55725 18.0619C9.55425 18.0483 9.55595 18.0342 9.56207 18.0217C9.56819 18.0092 9.57837 17.9992 9.59094 17.9933C9.74075 17.9238 9.89368 17.8613 10.0492 17.8058C10.0645 17.8003 10.0813 17.8012 10.0959 17.8081C10.1106 17.8151 10.1218 17.8276 10.1273 17.8428C10.1327 17.8581 10.1319 17.8749 10.1249 17.8895C10.118 17.9042 10.1055 17.9154 10.0902 17.9209C9.93821 17.9751 9.78875 18.0362 9.64234 18.1041C9.63408 18.108 9.62538 18.1099 9.61672 18.1099ZM13.8957 17.9822C13.8842 17.9822 13.8726 17.9789 13.8623 17.9722C13.7437 17.8943 13.5989 17.8312 13.4322 17.7845C13.4245 17.7823 13.4173 17.7786 13.411 17.7737C13.4047 17.7687 13.3994 17.7626 13.3954 17.7556C13.3915 17.7486 13.389 17.7409 13.388 17.7329C13.3871 17.7249 13.3877 17.7169 13.3899 17.7091C13.392 17.7014 13.3957 17.6942 13.4007 17.6879C13.4056 17.6816 13.4118 17.6763 13.4188 17.6724C13.4258 17.6684 13.4335 17.6659 13.4414 17.665C13.4494 17.664 13.4575 17.6646 13.4652 17.6668C13.6441 17.7169 13.8002 17.7853 13.9294 17.87C13.9404 17.8772 13.9488 17.8878 13.9533 17.9001C13.9578 17.9125 13.9582 17.926 13.9545 17.9386C13.9507 17.9513 13.9429 17.9623 13.9323 17.9702C13.9217 17.978 13.9089 17.9822 13.8957 17.9822ZM10.5379 17.7815C10.523 17.7815 10.5086 17.7761 10.4974 17.7662C10.4862 17.7564 10.479 17.7428 10.4772 17.728C10.4753 17.7132 10.4789 17.6983 10.4873 17.686C10.4957 17.6736 10.5083 17.6648 10.5228 17.6612C10.6827 17.6203 10.8444 17.5866 11.0073 17.5601C11.0233 17.5575 11.0396 17.5613 11.0528 17.5708C11.0659 17.5803 11.0748 17.5946 11.0774 17.6106C11.08 17.6266 11.0761 17.6429 11.0667 17.6561C11.0572 17.6692 11.0429 17.6781 11.0269 17.6807C10.8676 17.7066 10.7095 17.7396 10.5531 17.7795C10.548 17.7809 10.5429 17.7815 10.5379 17.7815ZM12.9686 17.69C12.9653 17.69 12.9621 17.6897 12.959 17.6892C12.799 17.6638 12.6383 17.6443 12.477 17.6305C12.469 17.6298 12.4612 17.6275 12.4541 17.6239C12.4469 17.6202 12.4406 17.6151 12.4354 17.609C12.4303 17.6029 12.4264 17.5958 12.4239 17.5881C12.4215 17.5805 12.4206 17.5724 12.4213 17.5644C12.4219 17.5564 12.4242 17.5486 12.4279 17.5415C12.4316 17.5344 12.4366 17.5281 12.4428 17.5229C12.4489 17.5177 12.456 17.5138 12.4636 17.5114C12.4713 17.5089 12.4793 17.508 12.4873 17.5087C12.6489 17.5225 12.814 17.5426 12.9781 17.5686C12.9933 17.5709 13.007 17.579 13.0165 17.591C13.0261 17.6031 13.0307 17.6183 13.0295 17.6337C13.0283 17.649 13.0214 17.6633 13.0101 17.6737C12.9988 17.6842 12.9839 17.69 12.9686 17.69ZM11.5031 17.6241C11.4871 17.6243 11.4717 17.6183 11.4602 17.6073C11.4486 17.5963 11.4418 17.5812 11.4412 17.5653C11.4406 17.5493 11.4463 17.5338 11.457 17.5219C11.4678 17.5101 11.4827 17.503 11.4986 17.502C11.5555 17.4978 11.6128 17.4944 11.6704 17.4917C11.6647 17.4848 11.6606 17.4767 11.6584 17.4681C11.6562 17.4594 11.6559 17.4504 11.6575 17.4416C11.6883 17.2783 11.7301 17.1173 11.7827 16.9597C11.7852 16.9521 11.7892 16.945 11.7945 16.939C11.7997 16.9329 11.8061 16.9279 11.8133 16.9243C11.8205 16.9207 11.8283 16.9186 11.8363 16.918C11.8443 16.9174 11.8523 16.9185 11.8599 16.921C11.8675 16.9235 11.8746 16.9275 11.8807 16.9328C11.8867 16.938 11.8917 16.9444 11.8953 16.9516C11.8989 16.9588 11.901 16.9666 11.9016 16.9746C11.9022 16.9826 11.9012 16.9906 11.8986 16.9982C11.8478 17.1506 11.8074 17.3062 11.7777 17.464C11.776 17.4727 11.7726 17.4808 11.7676 17.488C11.8273 17.4863 11.887 17.4854 11.9467 17.4854L11.9932 17.4855C12.0012 17.4856 12.0091 17.4872 12.0165 17.4903C12.0239 17.4934 12.0307 17.4979 12.0363 17.5036C12.042 17.5093 12.0464 17.516 12.0495 17.5235C12.0525 17.5309 12.0541 17.5388 12.054 17.5469C12.054 17.5549 12.0524 17.5628 12.0493 17.5702C12.0462 17.5776 12.0417 17.5844 12.036 17.59C12.0303 17.5957 12.0235 17.6001 12.0161 17.6032C12.0087 17.6062 12.0007 17.6078 11.9927 17.6077H11.9923L11.9468 17.6076C11.7987 17.6075 11.6507 17.613 11.5031 17.6241ZM12.0244 16.5863C12.0141 16.5862 12.004 16.5836 11.9949 16.5786C11.9859 16.5736 11.9783 16.5664 11.9728 16.5577C11.9673 16.549 11.9641 16.539 11.9635 16.5287C11.9629 16.5184 11.9649 16.5081 11.9694 16.4988C12.0411 16.3494 12.1215 16.2042 12.21 16.0641C12.2143 16.0573 12.2198 16.0514 12.2264 16.0468C12.2329 16.0421 12.2403 16.0389 12.2482 16.0371C12.256 16.0353 12.2641 16.0351 12.272 16.0365C12.2799 16.0378 12.2875 16.0407 12.2943 16.045C12.301 16.0493 12.3069 16.0549 12.3115 16.0614C12.3162 16.068 12.3195 16.0754 12.3212 16.0832C12.323 16.091 12.3232 16.0991 12.3219 16.107C12.3205 16.1149 12.3176 16.1225 12.3133 16.1293C12.2273 16.2654 12.1493 16.4064 12.0796 16.5515C12.0746 16.5619 12.0668 16.5707 12.057 16.5768C12.0473 16.583 12.036 16.5863 12.0244 16.5863ZM12.5453 15.7584C12.5338 15.7584 12.5225 15.7552 12.5128 15.7491C12.5031 15.743 12.4952 15.7342 12.4903 15.7239C12.4853 15.7135 12.4833 15.702 12.4845 15.6906C12.4858 15.6792 12.4903 15.6683 12.4974 15.6593C12.6004 15.5298 12.7099 15.4056 12.8254 15.2872C12.831 15.2814 12.8377 15.2768 12.845 15.2737C12.8524 15.2705 12.8603 15.2688 12.8683 15.2687C12.8764 15.2686 12.8843 15.2701 12.8918 15.273C12.8992 15.276 12.906 15.2804 12.9118 15.286C12.9175 15.2916 12.9221 15.2983 12.9253 15.3057C12.9285 15.3131 12.9301 15.321 12.9303 15.329C12.9304 15.337 12.9289 15.345 12.9259 15.3524C12.9229 15.3599 12.9185 15.3667 12.9129 15.3724C12.8003 15.4879 12.6936 15.6091 12.5932 15.7353C12.5875 15.7425 12.5802 15.7484 12.5719 15.7524C12.5636 15.7564 12.5545 15.7584 12.5453 15.7584ZM34.661 15.6693C34.5504 15.6692 34.4399 15.6686 34.3294 15.6673C34.3214 15.6672 34.3135 15.6655 34.3061 15.6624C34.2987 15.6592 34.292 15.6547 34.2864 15.6489C34.2808 15.6432 34.2764 15.6364 34.2734 15.6289C34.2704 15.6215 34.269 15.6135 34.2691 15.6055C34.2694 15.5717 34.297 15.5433 34.3309 15.5451C34.4954 15.547 34.6585 15.5476 34.82 15.5466H34.8204C34.8366 15.5465 34.8521 15.5529 34.8636 15.5643C34.8751 15.5758 34.8816 15.5913 34.8816 15.6075C34.8817 15.6237 34.8753 15.6393 34.8639 15.6508C34.8524 15.6622 34.8369 15.6687 34.8207 15.6688C34.7677 15.6692 34.7144 15.6693 34.661 15.6693ZM35.3106 15.6611C35.2944 15.6613 35.2787 15.6551 35.2671 15.6438C35.2555 15.6325 35.2489 15.617 35.2487 15.6008C35.2485 15.5846 35.2548 15.569 35.2661 15.5574C35.2774 15.5458 35.2928 15.5392 35.309 15.539C35.4742 15.5347 35.6385 15.5287 35.7976 15.5211C35.8056 15.5207 35.8137 15.5219 35.8212 15.5246C35.8288 15.5273 35.8357 15.5315 35.8417 15.5369C35.8476 15.5423 35.8524 15.5488 35.8558 15.5561C35.8592 15.5633 35.8612 15.5712 35.8616 15.5792C35.862 15.5872 35.8608 15.5952 35.8581 15.6028C35.8553 15.6103 35.8512 15.6173 35.8458 15.6232C35.8404 15.6292 35.8339 15.634 35.8266 15.6374C35.8193 15.6408 35.8115 15.6428 35.8035 15.6432C35.6398 15.651 35.476 15.657 35.3122 15.6611H35.3106ZM33.84 15.6577L33.8383 15.6576C33.6759 15.6532 33.5121 15.6475 33.3473 15.6406C33.3393 15.6402 33.3314 15.6383 33.3242 15.6349C33.3169 15.6315 33.3103 15.6268 33.3049 15.6209C33.2995 15.615 33.2953 15.608 33.2925 15.6005C33.2898 15.593 33.2885 15.585 33.2889 15.5769C33.2891 15.5689 33.291 15.561 33.2944 15.5537C33.2977 15.5464 33.3025 15.5398 33.3084 15.5344C33.3144 15.529 33.3213 15.5247 33.3289 15.522C33.3364 15.5193 33.3444 15.5181 33.3525 15.5185C33.5167 15.5253 33.6798 15.531 33.8417 15.5355C33.8574 15.5365 33.872 15.5435 33.8827 15.555C33.8933 15.5665 33.8991 15.5817 33.8989 15.5974C33.8987 15.6131 33.8925 15.6281 33.8815 15.6393C33.8705 15.6505 33.8557 15.6571 33.84 15.6577ZM32.8601 15.6169L32.8567 15.6168C32.6932 15.6078 32.5298 15.5979 32.3664 15.587C32.3507 15.5854 32.3361 15.5778 32.3259 15.5657C32.3157 15.5536 32.3105 15.5379 32.3116 15.5221C32.3126 15.5063 32.3198 15.4915 32.3315 15.4809C32.3433 15.4702 32.3587 15.4646 32.3745 15.4651C32.5383 15.476 32.7013 15.4859 32.8634 15.4948C32.8792 15.4957 32.894 15.5028 32.9047 15.5145C32.9155 15.5262 32.9212 15.5416 32.9208 15.5574C32.9204 15.5733 32.9138 15.5883 32.9025 15.5994C32.8911 15.6105 32.8759 15.6168 32.8601 15.6169ZM36.2899 15.6136C36.2741 15.6135 36.2589 15.6074 36.2475 15.5964C36.2362 15.5854 36.2295 15.5705 36.229 15.5547C36.2284 15.5389 36.2339 15.5235 36.2445 15.5118C36.255 15.5 36.2697 15.4928 36.2854 15.4916C36.4508 15.4794 36.6145 15.465 36.7721 15.4489C36.78 15.4481 36.7881 15.4488 36.7958 15.4511C36.8035 15.4534 36.8106 15.4572 36.8169 15.4623C36.8231 15.4673 36.8282 15.4736 36.8321 15.4806C36.8359 15.4877 36.8383 15.4954 36.8391 15.5034C36.8399 15.5114 36.8391 15.5195 36.8368 15.5271C36.8345 15.5348 36.8308 15.542 36.8257 15.5482C36.8206 15.5544 36.8144 15.5596 36.8073 15.5634C36.8003 15.5672 36.7925 15.5696 36.7846 15.5704C36.6214 15.5871 36.458 15.6015 36.2944 15.6135L36.2899 15.6136ZM31.8814 15.5518L31.8767 15.5517C31.7135 15.539 31.5504 15.5255 31.3873 15.5113C31.3712 15.5099 31.3563 15.5021 31.3458 15.4897C31.3354 15.4773 31.3304 15.4613 31.3318 15.4451C31.3332 15.429 31.341 15.4141 31.3534 15.4036C31.3658 15.3932 31.3818 15.3882 31.398 15.3896C31.5613 15.4038 31.724 15.4173 31.8861 15.4298C31.9019 15.431 31.9166 15.4383 31.9271 15.4501C31.9376 15.4619 31.9432 15.4773 31.9426 15.4931C31.942 15.5089 31.9353 15.5239 31.9238 15.5348C31.9124 15.5458 31.8972 15.5519 31.8814 15.5518ZM37.265 15.5125C37.2494 15.5126 37.2344 15.5068 37.223 15.4962C37.2117 15.4856 37.2047 15.4711 37.2037 15.4556C37.2026 15.44 37.2075 15.4247 37.2174 15.4127C37.2273 15.4007 37.2413 15.3929 37.2568 15.3909C37.4217 15.3683 37.5839 15.3429 37.7387 15.3154C37.7466 15.314 37.7547 15.3142 37.7625 15.3159C37.7704 15.3176 37.7778 15.3209 37.7844 15.3255C37.7909 15.3301 37.7965 15.3359 37.8009 15.3427C37.8052 15.3494 37.8081 15.357 37.8095 15.3649C37.8109 15.3728 37.8108 15.3809 37.809 15.3887C37.8073 15.3966 37.804 15.404 37.7994 15.4106C37.7948 15.4171 37.789 15.4227 37.7822 15.4271C37.7755 15.4314 37.7679 15.4343 37.76 15.4357C37.6036 15.4635 37.4398 15.4891 37.2733 15.512C37.2705 15.5124 37.2677 15.5125 37.265 15.5125ZM30.9043 15.4666C30.9023 15.4666 30.9003 15.4665 30.8984 15.4663C30.7359 15.4507 30.573 15.4342 30.4098 15.4171C30.4019 15.4163 30.3941 15.4139 30.3871 15.41C30.38 15.4062 30.3738 15.401 30.3687 15.3948C30.3637 15.3886 30.3599 15.3814 30.3576 15.3737C30.3553 15.366 30.3546 15.3579 30.3554 15.3499C30.3563 15.342 30.3587 15.3342 30.3625 15.3272C30.3663 15.3201 30.3715 15.3139 30.3778 15.3088C30.384 15.3038 30.3912 15.3 30.3989 15.2977C30.4066 15.2954 30.4146 15.2947 30.4226 15.2955C30.5854 15.3126 30.7479 15.329 30.9101 15.3446C30.926 15.3457 30.9409 15.353 30.9515 15.365C30.9621 15.3769 30.9676 15.3925 30.9668 15.4085C30.9661 15.4244 30.9591 15.4394 30.9474 15.4503C30.9357 15.4611 30.9202 15.467 30.9043 15.4666ZM29.9288 15.3644C29.9264 15.3644 29.9241 15.3643 29.9219 15.364C29.7591 15.3457 29.5962 15.3268 29.4333 15.3073C29.4253 15.3063 29.4176 15.3038 29.4106 15.2999C29.4036 15.296 29.3974 15.2907 29.3925 15.2844C29.3875 15.2781 29.3839 15.2709 29.3817 15.2631C29.3795 15.2554 29.3789 15.2473 29.3799 15.2394C29.3819 15.2233 29.3902 15.2088 29.4029 15.1988C29.4156 15.1888 29.4317 15.1842 29.4478 15.1859C29.6105 15.2054 29.7731 15.2243 29.9355 15.2426C29.9511 15.2443 29.9655 15.2518 29.9756 15.2638C29.9858 15.2757 29.991 15.2911 29.9901 15.3067C29.9892 15.3224 29.9824 15.3371 29.971 15.3478C29.9595 15.3586 29.9444 15.3645 29.9288 15.3644ZM38.2298 15.34C38.2147 15.3401 38.2002 15.3345 38.189 15.3245C38.1778 15.3145 38.1707 15.3007 38.169 15.2857C38.1673 15.2708 38.1713 15.2557 38.18 15.2435C38.1887 15.2312 38.2017 15.2226 38.2164 15.2194C38.3787 15.1826 38.5373 15.1422 38.6879 15.0991C38.6956 15.0969 38.7037 15.0962 38.7117 15.0971C38.7196 15.098 38.7274 15.1005 38.7344 15.1044C38.7414 15.1083 38.7476 15.1135 38.7526 15.1198C38.7575 15.1261 38.7612 15.1333 38.7635 15.141C38.7657 15.1488 38.7663 15.1568 38.7654 15.1648C38.7645 15.1728 38.762 15.1805 38.7581 15.1875C38.7542 15.1945 38.749 15.2007 38.7427 15.2057C38.7364 15.2107 38.7292 15.2144 38.7215 15.2166C38.5633 15.2617 38.4038 15.3024 38.2433 15.3386C38.2388 15.3396 38.2342 15.34 38.2298 15.34ZM28.9532 15.2478C28.9506 15.2478 28.948 15.2476 28.9454 15.2473C28.7831 15.2268 28.6208 15.2058 28.4587 15.1844C28.4507 15.1833 28.443 15.1807 28.4361 15.1767C28.4291 15.1727 28.423 15.1673 28.4182 15.1609C28.4133 15.1546 28.4097 15.1473 28.4076 15.1396C28.4056 15.1318 28.4051 15.1237 28.4061 15.1158C28.4071 15.1078 28.4097 15.1001 28.4137 15.0931C28.4176 15.0861 28.423 15.08 28.4294 15.0751C28.4358 15.0702 28.4431 15.0666 28.4509 15.0646C28.4586 15.0626 28.4667 15.0621 28.4747 15.0632C28.6366 15.0846 28.7986 15.1056 28.9608 15.1261C28.9762 15.1279 28.9904 15.1357 29.0003 15.1476C29.0103 15.1596 29.0153 15.1749 29.0143 15.1905C29.0133 15.206 29.0065 15.2206 28.9951 15.2312C28.9838 15.2419 28.9688 15.2478 28.9532 15.2478ZM27.9812 15.1193C27.9784 15.1193 27.9756 15.1192 27.9728 15.1188C27.8107 15.0964 27.6491 15.0737 27.4877 15.0507C27.4797 15.0496 27.472 15.047 27.465 15.043C27.4579 15.0389 27.4518 15.0335 27.4469 15.0271C27.442 15.0206 27.4384 15.0133 27.4364 15.0054C27.4344 14.9976 27.4339 14.9895 27.4351 14.9814C27.4362 14.9734 27.4389 14.9657 27.4431 14.9588C27.4472 14.9518 27.4527 14.9458 27.4592 14.941C27.4657 14.9362 27.4732 14.9327 27.481 14.9308C27.4889 14.9288 27.497 14.9285 27.505 14.9298C27.6661 14.9528 27.8276 14.9755 27.9894 14.9977C28.0046 15 28.0184 15.0079 28.028 15.0199C28.0377 15.0319 28.0424 15.047 28.0414 15.0623C28.0403 15.0777 28.0336 15.092 28.0224 15.1026C28.0113 15.1132 27.9965 15.1191 27.9812 15.1193ZM39.171 15.0686C39.1566 15.0687 39.1426 15.0636 39.1316 15.0544C39.1205 15.0451 39.1131 15.0323 39.1106 15.0181C39.1081 15.0039 39.1107 14.9893 39.118 14.9768C39.1252 14.9644 39.1366 14.9549 39.1502 14.95C39.3022 14.8952 39.4519 14.834 39.5988 14.7666C39.6133 14.7607 39.6296 14.7606 39.6443 14.7664C39.6589 14.7722 39.6707 14.7834 39.6773 14.7977C39.6839 14.8119 39.6847 14.8282 39.6796 14.8431C39.6745 14.858 39.6639 14.8703 39.6499 14.8776C39.4999 14.9464 39.347 15.0089 39.1918 15.065C39.185 15.0674 39.178 15.0686 39.171 15.0686ZM13.2276 15.057C13.215 15.057 13.2028 15.0532 13.1925 15.0461C13.1823 15.0389 13.1744 15.0287 13.1701 15.017C13.1658 15.0052 13.1652 14.9924 13.1684 14.9803C13.1717 14.9682 13.1785 14.9574 13.1881 14.9493C13.3142 14.8426 13.4451 14.7417 13.5803 14.6468C13.5869 14.6422 13.5943 14.6389 13.6021 14.6371C13.61 14.6354 13.6181 14.6352 13.626 14.6366C13.6339 14.638 13.6414 14.6409 13.6482 14.6452C13.655 14.6495 13.6608 14.6551 13.6654 14.6617C13.6701 14.6682 13.6733 14.6756 13.6751 14.6835C13.6768 14.6913 13.677 14.6994 13.6756 14.7073C13.6743 14.7152 13.6713 14.7227 13.667 14.7295C13.6627 14.7363 13.6571 14.7422 13.6506 14.7468C13.5183 14.8395 13.3904 14.9383 13.267 15.0426C13.256 15.0519 13.242 15.057 13.2276 15.057ZM27.0111 14.9808C27.0081 14.9808 27.0052 14.9805 27.0021 14.9801C26.8398 14.9562 26.678 14.9319 26.5168 14.9075C26.5008 14.9051 26.4864 14.8964 26.4768 14.8833C26.4672 14.8703 26.4631 14.8539 26.4656 14.8379C26.468 14.8219 26.4767 14.8075 26.4897 14.7979C26.5028 14.7883 26.5191 14.7843 26.5351 14.7867C26.6961 14.8111 26.8577 14.8353 27.0199 14.8592C27.0352 14.8614 27.0491 14.8694 27.0588 14.8814C27.0685 14.8934 27.0733 14.9087 27.0722 14.9241C27.071 14.9395 27.0641 14.9539 27.0528 14.9645C27.0415 14.975 27.0266 14.9808 27.0111 14.9808ZM26.0413 14.8337C26.0382 14.8337 26.035 14.8335 26.0318 14.8329C25.8694 14.8077 25.7078 14.7823 25.5471 14.7568C25.5311 14.7542 25.5167 14.7454 25.5072 14.7323C25.4977 14.7192 25.4938 14.7028 25.4963 14.6868C25.4989 14.6708 25.5077 14.6565 25.5208 14.647C25.5339 14.6375 25.5502 14.6336 25.5662 14.636C25.7268 14.6615 25.8883 14.6869 26.0506 14.7122C26.0657 14.7147 26.0792 14.7228 26.0887 14.7348C26.0981 14.7468 26.1026 14.7619 26.1015 14.7772C26.1003 14.7924 26.0935 14.8067 26.0823 14.8171C26.0712 14.8276 26.0565 14.8335 26.0413 14.8337ZM25.0724 14.68C25.0691 14.68 25.0658 14.6797 25.0626 14.6792C24.9 14.6529 24.7386 14.6266 24.5783 14.6003C24.5624 14.5977 24.5481 14.5888 24.5386 14.5756C24.5292 14.5625 24.5253 14.5461 24.528 14.5301C24.5306 14.5141 24.5394 14.4998 24.5526 14.4904C24.5658 14.4809 24.5821 14.4771 24.5981 14.4797C24.7582 14.506 24.9196 14.5323 25.082 14.5586C25.0972 14.5609 25.111 14.569 25.1205 14.5811C25.1301 14.5931 25.1347 14.6084 25.1335 14.6237C25.1323 14.6391 25.1253 14.6534 25.114 14.6638C25.1027 14.6742 25.0878 14.68 25.0724 14.68ZM40.0581 14.6558C40.0447 14.6558 40.0317 14.6514 40.021 14.6433C40.0103 14.6352 40.0026 14.6239 39.9991 14.6109C39.9955 14.598 39.9963 14.5843 40.0013 14.5719C40.0063 14.5594 40.0153 14.549 40.0268 14.5422C40.1649 14.4602 40.2976 14.3693 40.424 14.2702C40.4367 14.2605 40.4528 14.2562 40.4687 14.2582C40.4846 14.2602 40.499 14.2684 40.509 14.2809C40.5189 14.2935 40.5235 14.3095 40.5217 14.3254C40.52 14.3414 40.5121 14.356 40.4997 14.3661C40.3692 14.4686 40.2321 14.5625 40.0894 14.6471C40.0799 14.6528 40.0691 14.6558 40.0581 14.6558ZM24.1044 14.5212C24.1011 14.5212 24.0977 14.521 24.0944 14.5204C23.9316 14.4934 23.7702 14.4664 23.6105 14.4397C23.6026 14.4384 23.595 14.4356 23.5882 14.4313C23.5814 14.427 23.5755 14.4215 23.5708 14.415C23.5662 14.4084 23.5628 14.401 23.561 14.3932C23.5592 14.3854 23.559 14.3773 23.5603 14.3694C23.5616 14.3615 23.5645 14.3539 23.5688 14.3471C23.573 14.3403 23.5786 14.3344 23.5851 14.3297C23.5916 14.3251 23.599 14.3218 23.6068 14.32C23.6146 14.3182 23.6227 14.3179 23.6307 14.3192C23.7903 14.346 23.9516 14.3729 24.1144 14.3999C24.1296 14.4023 24.1432 14.4104 24.1527 14.4225C24.1622 14.4346 24.1667 14.4498 24.1655 14.4652C24.1642 14.4805 24.1572 14.4947 24.1459 14.5051C24.1346 14.5155 24.1198 14.5213 24.1044 14.5212ZM14.0283 14.494C14.0148 14.4941 14.0017 14.4897 13.991 14.4815C13.9804 14.4733 13.9727 14.4618 13.9692 14.4489C13.9657 14.4359 13.9666 14.4221 13.9717 14.4096C13.9768 14.3972 13.9859 14.3868 13.9976 14.3801C14.1403 14.2973 14.2864 14.2204 14.4354 14.1496C14.4427 14.1461 14.4505 14.1442 14.4586 14.1437C14.4666 14.1433 14.4746 14.1445 14.4821 14.1472C14.4897 14.1499 14.4967 14.154 14.5026 14.1594C14.5086 14.1648 14.5134 14.1713 14.5169 14.1785C14.5203 14.1858 14.5223 14.1936 14.5227 14.2016C14.5231 14.2096 14.5219 14.2176 14.5192 14.2252C14.5166 14.2328 14.5124 14.2397 14.507 14.2457C14.5017 14.2516 14.4952 14.2565 14.4879 14.2599C14.3419 14.3293 14.1988 14.4047 14.0589 14.4858C14.0493 14.4914 14.0387 14.494 14.0283 14.494ZM23.1368 14.3594C23.1335 14.3594 23.13 14.3591 23.1266 14.3585L22.6429 14.2771C22.6273 14.274 22.6135 14.2649 22.6045 14.2519C22.5955 14.2388 22.5919 14.2227 22.5946 14.207C22.5972 14.1913 22.6058 14.1773 22.6187 14.1679C22.6315 14.1585 22.6474 14.1544 22.6632 14.1566L23.1469 14.238C23.162 14.2406 23.1755 14.2488 23.1848 14.2609C23.1942 14.273 23.1986 14.2881 23.1974 14.3033C23.1961 14.3186 23.1892 14.3328 23.178 14.3431C23.1668 14.3535 23.1521 14.3593 23.1368 14.3594ZM22.1694 14.1966C22.166 14.1966 22.1626 14.1963 22.1592 14.1957C21.9953 14.1682 21.834 14.1412 21.6755 14.1149C21.6675 14.1136 21.66 14.1107 21.6531 14.1064C21.6463 14.1022 21.6404 14.0967 21.6358 14.0901C21.6311 14.0836 21.6278 14.0762 21.626 14.0684C21.6242 14.0606 21.6239 14.0525 21.6252 14.0446C21.6279 14.0286 21.6369 14.0144 21.65 14.005C21.6632 13.9955 21.6796 13.9917 21.6955 13.9944C21.8541 14.0207 22.0156 14.0477 22.1794 14.0752C22.1944 14.078 22.2077 14.0862 22.217 14.0982C22.2262 14.1103 22.2306 14.1253 22.2293 14.1405C22.2281 14.1556 22.2213 14.1697 22.2102 14.1801C22.1991 14.1904 22.1846 14.1963 22.1694 14.1966ZM14.912 14.0731C14.8977 14.0731 14.8839 14.0681 14.8729 14.059C14.8619 14.0499 14.8544 14.0372 14.8518 14.0231C14.8492 14.0091 14.8516 13.9946 14.8586 13.9821C14.8656 13.9696 14.8768 13.96 14.8901 13.9549C15.0441 13.896 15.2001 13.8428 15.358 13.7954C15.3657 13.7931 15.3738 13.7923 15.3817 13.7931C15.3897 13.7939 15.3975 13.7963 15.4045 13.8001C15.4116 13.8039 15.4178 13.8091 15.4229 13.8153C15.428 13.8215 15.4318 13.8287 15.4341 13.8363C15.4364 13.844 15.4372 13.8521 15.4363 13.8601C15.4355 13.8681 15.4332 13.8758 15.4294 13.8829C15.4256 13.8899 15.4204 13.8962 15.4142 13.9012C15.408 13.9063 15.4008 13.9101 15.3931 13.9124C15.2382 13.959 15.085 14.0112 14.9338 14.069C14.9269 14.0717 14.9195 14.073 14.912 14.0731ZM40.8213 14.0478C40.8094 14.0478 40.7978 14.0443 40.7878 14.0379C40.7779 14.0314 40.7701 14.0221 40.7653 14.0112C40.7605 14.0003 40.759 13.9883 40.761 13.9766C40.763 13.9649 40.7683 13.954 40.7764 13.9453C40.8846 13.8281 40.9821 13.7014 41.0676 13.5667C41.0719 13.5599 41.0774 13.5541 41.084 13.5494C41.0905 13.5448 41.0979 13.5415 41.1058 13.5398C41.1136 13.538 41.1217 13.5378 41.1296 13.5392C41.1375 13.5405 41.1451 13.5434 41.1518 13.5477C41.1586 13.552 41.1645 13.5576 41.1691 13.5641C41.1737 13.5707 41.177 13.5781 41.1788 13.5859C41.1805 13.5937 41.1808 13.6018 41.1794 13.6097C41.178 13.6176 41.1751 13.6252 41.1708 13.632C41.0814 13.7729 40.9795 13.9055 40.8662 14.0281C40.8605 14.0343 40.8536 14.0393 40.8459 14.0427C40.8381 14.0461 40.8297 14.0478 40.8213 14.0478ZM21.2014 14.0358C21.1981 14.0358 21.1948 14.0355 21.1915 14.035C21.0265 14.008 20.8651 13.9819 20.7074 13.9567C20.6995 13.9554 20.6919 13.9526 20.6851 13.9484C20.6782 13.9442 20.6723 13.9387 20.6676 13.9322C20.6629 13.9257 20.6595 13.9184 20.6576 13.9105C20.6558 13.9027 20.6555 13.8947 20.6567 13.8867C20.658 13.8788 20.6608 13.8712 20.665 13.8644C20.6692 13.8576 20.6747 13.8516 20.6812 13.8469C20.6877 13.8422 20.6951 13.8388 20.7029 13.837C20.7107 13.8351 20.7188 13.8348 20.7267 13.8361C20.8845 13.8612 21.0461 13.8874 21.2112 13.9144C21.2263 13.9171 21.2398 13.9252 21.2491 13.9372C21.2584 13.9493 21.2629 13.9644 21.2617 13.9796C21.2605 13.9948 21.2536 14.009 21.2425 14.0194C21.2313 14.0298 21.2167 14.0356 21.2014 14.0358ZM20.2324 13.8815C20.2293 13.8815 20.2262 13.8813 20.2231 13.8808C20.0616 13.8559 19.9 13.8318 19.7383 13.8084C19.7223 13.806 19.7078 13.7974 19.6981 13.7845C19.6884 13.7715 19.6842 13.7552 19.6866 13.7391C19.6889 13.7231 19.6975 13.7086 19.7104 13.6989C19.7234 13.6892 19.7397 13.6851 19.7558 13.6874C19.9124 13.7101 20.0745 13.7343 20.2416 13.76C20.2568 13.7624 20.2705 13.7704 20.2801 13.7824C20.2896 13.7945 20.2943 13.8097 20.2931 13.825C20.292 13.8404 20.2851 13.8547 20.2738 13.8652C20.2625 13.8756 20.2478 13.8815 20.2324 13.8815ZM15.8494 13.7908C15.8343 13.7909 15.8197 13.7854 15.8085 13.7753C15.7972 13.7653 15.7901 13.7515 15.7884 13.7365C15.7867 13.7215 15.7907 13.7064 15.7995 13.6941C15.8083 13.6819 15.8213 13.6733 15.836 13.6701C15.9967 13.634 16.1586 13.6033 16.3213 13.578C16.3292 13.5767 16.3373 13.5771 16.3451 13.579C16.3529 13.5809 16.3603 13.5843 16.3668 13.589C16.3733 13.5938 16.3787 13.5997 16.3829 13.6066C16.3871 13.6134 16.3899 13.621 16.3911 13.629C16.3923 13.6369 16.392 13.645 16.3901 13.6528C16.3882 13.6606 16.3848 13.668 16.38 13.6744C16.3753 13.6809 16.3693 13.6864 16.3625 13.6906C16.3556 13.6947 16.348 13.6975 16.3401 13.6988C16.1794 13.7238 16.0189 13.7542 15.8628 13.7893C15.8584 13.7903 15.8539 13.7908 15.8494 13.7908ZM19.261 13.7416C19.2583 13.7416 19.2556 13.7414 19.2529 13.7411C19.0911 13.7196 18.9291 13.6998 18.767 13.6815C18.759 13.6806 18.7513 13.6781 18.7443 13.6742C18.7372 13.6703 18.7311 13.6651 18.726 13.6589C18.721 13.6526 18.7173 13.6454 18.7151 13.6377C18.7129 13.63 18.7122 13.6219 18.7131 13.6139C18.714 13.606 18.7164 13.5982 18.7203 13.5912C18.7242 13.5842 18.7294 13.578 18.7357 13.573C18.742 13.568 18.7491 13.5643 18.7569 13.5621C18.7646 13.5598 18.7726 13.5591 18.7806 13.56C18.9304 13.5768 19.0947 13.597 19.2689 13.6199C19.2844 13.6218 19.2986 13.6296 19.3086 13.6416C19.3185 13.6536 19.3235 13.669 19.3225 13.6845C19.3215 13.7001 19.3145 13.7147 19.3031 13.7253C19.2916 13.7359 19.2766 13.7418 19.261 13.7416ZM16.8169 13.6397C16.8011 13.6398 16.7859 13.6337 16.7745 13.6229C16.7631 13.612 16.7563 13.5971 16.7556 13.5814C16.7549 13.5656 16.7603 13.5502 16.7707 13.5384C16.7811 13.5265 16.7957 13.5191 16.8114 13.5178C16.973 13.503 17.1386 13.493 17.3039 13.4878C17.3389 13.4858 17.3659 13.5133 17.3669 13.547C17.3674 13.5632 17.3615 13.5789 17.3504 13.5907C17.3393 13.6025 17.324 13.6095 17.3078 13.61C17.1449 13.6151 16.9816 13.625 16.8225 13.6395C16.8206 13.6396 16.8187 13.6397 16.8169 13.6397ZM18.2854 13.6345C18.2837 13.6345 18.2822 13.6344 18.2805 13.6343C18.1179 13.6214 17.9543 13.6128 17.7944 13.6087C17.7864 13.6085 17.7785 13.6068 17.7712 13.6035C17.7638 13.6002 17.7572 13.5956 17.7517 13.5898C17.7462 13.5839 17.7418 13.5771 17.739 13.5696C17.7361 13.5621 17.7347 13.5541 17.7349 13.5461C17.7358 13.5124 17.7638 13.4845 17.7975 13.4866C17.9597 13.4908 18.1254 13.4995 18.2902 13.5125C18.3058 13.514 18.3202 13.5213 18.3304 13.5331C18.3407 13.5449 18.3461 13.5601 18.3455 13.5757C18.3449 13.5914 18.3383 13.6061 18.3271 13.6171C18.3159 13.628 18.301 13.6342 18.2854 13.6345ZM41.3401 13.225C41.3301 13.225 41.3203 13.2225 41.3115 13.2179C41.3027 13.2132 41.2952 13.2065 41.2896 13.1983C41.284 13.19 41.2805 13.1806 41.2794 13.1707C41.2783 13.1608 41.2796 13.1508 41.2833 13.1415C41.3414 12.993 41.3863 12.8396 41.4173 12.6831C41.4205 12.6672 41.4299 12.6532 41.4433 12.6442C41.4568 12.6352 41.4733 12.632 41.4892 12.6351C41.5051 12.6383 41.5191 12.6477 41.5281 12.6612C41.5371 12.6746 41.5403 12.6911 41.5372 12.707C41.5047 12.8706 41.4578 13.031 41.397 13.1862C41.3925 13.1977 41.3847 13.2075 41.3745 13.2144C41.3644 13.2213 41.3524 13.225 41.3401 13.225ZM41.5347 12.2709L41.5319 12.2708C41.5239 12.2705 41.516 12.2686 41.5087 12.2652C41.5015 12.2618 41.4949 12.257 41.4895 12.2511C41.4841 12.2452 41.4799 12.2382 41.4772 12.2307C41.4744 12.2231 41.4732 12.2151 41.4736 12.2071L41.475 12.1688C41.4795 12.0218 41.4725 11.8747 41.4539 11.7289C41.4519 11.7128 41.4563 11.6965 41.4662 11.6837C41.4762 11.6709 41.4908 11.6626 41.5069 11.6605C41.5229 11.6585 41.5392 11.6629 41.552 11.6729C41.5648 11.6828 41.5731 11.6974 41.5752 11.7135C41.5945 11.8658 41.6019 12.0194 41.5972 12.1729L41.5956 12.2125C41.5949 12.2282 41.5882 12.2431 41.5769 12.2539C41.5655 12.2648 41.5504 12.2709 41.5347 12.2709ZM41.4139 11.3047C41.4007 11.3047 41.3879 11.3004 41.3773 11.2925C41.3668 11.2846 41.3591 11.2735 41.3554 11.2608C41.3098 11.107 41.2538 10.9565 41.1876 10.8104C41.1809 10.7956 41.1804 10.7788 41.1861 10.7637C41.1919 10.7485 41.2034 10.7363 41.2182 10.7296C41.2329 10.7229 41.2498 10.7224 41.2649 10.7282C41.2801 10.7339 41.2923 10.7454 41.299 10.7602C41.3675 10.9114 41.4255 11.0672 41.4726 11.2263C41.4753 11.2355 41.4759 11.2451 41.4742 11.2544C41.4725 11.2638 41.4687 11.2726 41.463 11.2803C41.4573 11.2879 41.4499 11.294 41.4413 11.2983C41.4328 11.3025 41.4235 11.3047 41.4139 11.3047ZM41.0157 10.413C41.0051 10.413 40.9948 10.4103 40.9856 10.4051C40.9764 10.3998 40.9687 10.3923 40.9632 10.3833C40.88 10.2449 40.7903 10.1106 40.6944 9.98069C40.6853 9.96762 40.6816 9.9515 40.6842 9.93578C40.6868 9.92005 40.6954 9.90595 40.7083 9.8965C40.7211 9.88704 40.7371 9.88298 40.7529 9.88516C40.7687 9.88735 40.783 9.89561 40.7928 9.90819C40.891 10.0412 40.9829 10.1788 41.0681 10.3205C41.0736 10.3298 41.0766 10.3403 41.0768 10.3511C41.0769 10.362 41.0742 10.3726 41.0688 10.382C41.0635 10.3914 41.0558 10.3992 41.0465 10.4047C41.0371 10.4101 41.0265 10.413 41.0157 10.413ZM40.437 9.62306C40.4198 9.62306 40.4028 9.61588 40.3908 9.60197C40.2845 9.47949 40.1742 9.36053 40.0601 9.2453C40.0492 9.23366 40.0434 9.21827 40.0437 9.20239C40.0441 9.18651 40.0506 9.17139 40.0619 9.16022C40.0732 9.14906 40.0884 9.14273 40.1043 9.14257C40.1201 9.14242 40.1355 9.14846 40.147 9.1594C40.2629 9.2766 40.375 9.39753 40.4831 9.52201C40.4908 9.53086 40.4957 9.54172 40.4974 9.5533C40.4991 9.56489 40.4974 9.57671 40.4925 9.58736C40.4876 9.59801 40.4798 9.60703 40.47 9.61336C40.4601 9.61969 40.4487 9.62306 40.437 9.62306ZM39.749 8.92438C39.7344 8.92438 39.7197 8.91917 39.708 8.90854C39.5875 8.79941 39.4643 8.69314 39.3387 8.58982C39.3262 8.57951 39.3183 8.56466 39.3168 8.54853C39.3152 8.5324 39.3201 8.51631 39.3304 8.5038C39.3407 8.4913 39.3556 8.48339 39.3717 8.48183C39.3878 8.48027 39.4039 8.48519 39.4164 8.49549C39.5435 8.60004 39.6681 8.70756 39.7901 8.81795C39.7993 8.82622 39.8057 8.83709 39.8086 8.84912C39.8115 8.86114 39.8106 8.87375 39.8062 8.88528C39.8017 8.89681 39.7939 8.90672 39.7837 8.9137C39.7735 8.92068 39.7614 8.92441 39.749 8.92438ZM38.9926 8.29999C38.9798 8.29999 38.9668 8.29598 38.9557 8.28761C38.8257 8.18928 38.694 8.09322 38.5607 7.99948C38.5541 7.99487 38.5485 7.989 38.5442 7.98223C38.5399 7.97545 38.537 7.9679 38.5356 7.96C38.5342 7.95209 38.5344 7.944 38.5362 7.93617C38.538 7.92834 38.5412 7.92093 38.5458 7.91437C38.5505 7.90781 38.5563 7.90222 38.5631 7.89793C38.5699 7.89363 38.5774 7.89071 38.5853 7.88934C38.5932 7.88796 38.6013 7.88816 38.6092 7.88991C38.617 7.89166 38.6244 7.89494 38.631 7.89956C38.7655 7.99407 38.8984 8.09098 39.0295 8.19023C39.0397 8.19795 39.0472 8.20869 39.051 8.22092C39.0548 8.23316 39.0546 8.24626 39.0505 8.25839C39.0465 8.27052 39.0387 8.28107 39.0283 8.28853C39.0179 8.296 39.0054 8.30001 38.9926 8.29999ZM38.1897 7.73494C38.1783 7.73494 38.1666 7.73171 38.1563 7.72493C38.02 7.63547 37.8824 7.548 37.7436 7.46253C37.7298 7.45402 37.7199 7.44039 37.7162 7.42462C37.7124 7.40885 37.7151 7.39224 37.7236 7.37844C37.7321 7.36464 37.7457 7.35478 37.7615 7.35104C37.7773 7.3473 37.7939 7.34997 37.8077 7.35847C37.9475 7.44462 38.0861 7.53273 38.2234 7.62279C38.2344 7.63001 38.2428 7.64059 38.2473 7.65296C38.2518 7.66532 38.2522 7.67881 38.2484 7.69141C38.2446 7.70402 38.2369 7.71506 38.2263 7.7229C38.2157 7.73075 38.2029 7.73497 38.1897 7.73494ZM37.3543 7.21953C37.3435 7.21953 37.333 7.21668 37.3237 7.21127C37.1826 7.12931 37.0405 7.04904 36.8975 6.97048C36.8833 6.96268 36.8728 6.94956 36.8683 6.934C36.8638 6.91844 36.8656 6.90172 36.8734 6.88752C36.8812 6.87331 36.8943 6.86279 36.9099 6.85826C36.9254 6.85373 36.9422 6.85557 36.9564 6.86337C37.1002 6.94241 37.2431 7.02317 37.3851 7.10563C37.3967 7.11238 37.4058 7.12278 37.4109 7.13521C37.416 7.14763 37.4169 7.1614 37.4134 7.17438C37.4099 7.18736 37.4022 7.19881 37.3915 7.20697C37.3808 7.21514 37.3678 7.21955 37.3543 7.21953ZM36.4939 6.74637C36.4844 6.74637 36.4748 6.74416 36.4658 6.73947C36.321 6.66407 36.1754 6.59021 36.029 6.5179C36.0145 6.51072 36.0034 6.49807 35.9982 6.48272C35.993 6.46738 35.9941 6.4506 36.0013 6.43607C36.0084 6.42154 36.0211 6.41046 36.0364 6.40527C36.0518 6.40007 36.0686 6.40118 36.0831 6.40836C36.2303 6.48102 36.3767 6.55528 36.5222 6.63111C36.5344 6.63743 36.544 6.64764 36.5497 6.6601C36.5553 6.67256 36.5566 6.68656 36.5533 6.69984C36.5501 6.71313 36.5424 6.72494 36.5317 6.73337C36.5209 6.74181 36.5076 6.74638 36.4939 6.74637ZM35.6134 6.31137C35.6047 6.31137 35.596 6.30951 35.5876 6.30561C35.4397 6.23634 35.2911 6.1687 35.1417 6.1027C35.1274 6.09579 35.1164 6.08361 35.111 6.06874C35.1055 6.05387 35.1061 6.03746 35.1125 6.02297C35.1189 6.00848 35.1307 5.99705 35.1453 5.99108C35.16 5.98511 35.1764 5.98506 35.1911 5.99096C35.3413 6.05734 35.4907 6.12534 35.6394 6.19494C35.652 6.20085 35.6621 6.21087 35.6683 6.22334C35.6744 6.23581 35.676 6.24999 35.673 6.26354C35.67 6.2771 35.6625 6.28922 35.6516 6.29791C35.6408 6.30661 35.6273 6.31135 35.6134 6.31137ZM34.7178 5.91614C34.71 5.91614 34.7022 5.91467 34.6945 5.9115C34.6199 5.88053 34.5449 5.85046 34.4695 5.8213C34.462 5.81845 34.4551 5.81414 34.4493 5.80864C34.4434 5.80313 34.4388 5.79653 34.4355 5.78921C34.4322 5.78189 34.4304 5.77399 34.4301 5.76597C34.4299 5.75795 34.4313 5.74997 34.4341 5.74247C34.437 5.73497 34.4413 5.72811 34.4468 5.72228C34.4523 5.71645 34.4589 5.71175 34.4662 5.70847C34.4735 5.70519 34.4814 5.70338 34.4895 5.70315C34.4975 5.70292 34.5055 5.70427 34.513 5.70713C34.513 5.70713 34.5948 5.73829 34.7411 5.79851C34.7542 5.80391 34.7649 5.81368 34.7716 5.82615C34.7783 5.83862 34.7804 5.85301 34.7777 5.86688C34.7749 5.88076 34.7675 5.89325 34.7566 5.90223C34.7456 5.91121 34.7319 5.91613 34.7178 5.91614Z" fill="#70ABBA"/>
<path d="M36.0094 49.5812C36.2056 49.5 36.3301 49.2891 36.3415 49.0774C36.3528 48.8657 36.2638 48.6574 36.1306 48.4925C35.9974 48.3274 35.8226 48.201 35.6421 48.0895C35.3435 47.9049 35.0115 47.7535 34.6653 47.7164C35.0731 47.4005 35.5046 47.1165 35.9559 46.8669C35.997 46.8442 36.0385 46.8223 36.0798 46.8001L36.5444 47.8002C36.6477 48.0226 36.7551 48.2509 36.9341 48.4187C37.113 48.5866 37.383 48.6817 37.6098 48.5878C37.806 48.5066 37.9306 48.2958 37.9419 48.084C37.9533 47.8724 37.8642 47.6641 37.731 47.4991C37.5978 47.3341 37.423 47.2077 37.2425 47.0961C36.9345 46.9057 36.591 46.7504 36.2329 46.7197C36.7425 46.4578 37.2731 46.2391 37.8192 46.0658L38.3288 47.0611C38.4406 47.2794 38.5567 47.5033 38.742 47.6642C38.9273 47.825 39.2006 47.9099 39.4238 47.8073C39.6167 47.7186 39.7331 47.5031 39.7363 47.2912C39.7394 47.0792 39.6425 46.8745 39.5031 46.7148C39.3637 46.555 39.1841 46.4353 38.9995 46.3308C38.7039 46.1634 38.3784 46.028 38.0428 45.9978C38.4406 45.8814 38.8451 45.7896 39.2541 45.7229C39.3752 45.7035 39.4967 45.6864 39.6184 45.6716L40.1762 46.6779C40.2952 46.8924 40.4186 47.1124 40.6091 47.2671C40.7995 47.4218 41.0755 47.4975 41.2952 47.3878C41.4851 47.2928 41.5943 47.0736 41.5905 46.8617C41.5867 46.6498 41.4831 46.4484 41.3385 46.2932C41.1939 46.1381 41.0105 46.0244 40.8226 45.926C40.554 45.7854 40.2624 45.6713 39.9638 45.6346C40.3783 45.5983 40.7948 45.5887 41.2106 45.606C41.5257 45.8073 41.8409 46.0085 42.156 46.2098C42.3628 46.3419 42.5763 46.4767 42.8176 46.5222C43.0589 46.5676 43.3379 46.5031 43.4788 46.3022C43.6006 46.1284 43.5923 45.8839 43.488 45.6993C43.3836 45.5148 43.1965 45.3869 42.9954 45.3193C42.7942 45.2516 42.5787 45.2388 42.3664 45.2416C41.9752 45.2468 41.5711 45.3085 41.2371 45.5078C41.2357 45.5076 41.2345 45.5073 41.2331 45.5072C40.7906 45.4881 40.3473 45.4992 39.9062 45.5403C40.1917 45.4061 40.441 45.1908 40.6567 44.9569C40.8006 44.8009 40.935 44.6321 41.019 44.4373C41.1029 44.2426 41.1327 44.018 41.0649 43.8171C40.9972 43.6163 40.8205 43.4467 40.6098 43.4213C40.366 43.3919 40.1316 43.5562 40.0043 43.766C39.877 43.9758 39.8348 44.2246 39.795 44.4666L39.6133 45.5724C39.0752 45.6388 38.5432 45.7484 38.0227 45.9002C38.2852 45.6967 38.4855 45.4127 38.6444 45.1178C38.745 44.931 38.8333 44.7342 38.8662 44.5247C38.8992 44.3152 38.8722 44.0903 38.7566 43.9127C38.641 43.7349 38.4278 43.6145 38.2173 43.6421C37.9737 43.674 37.7875 43.8913 37.7163 44.126C37.6451 44.3608 37.6661 44.6122 37.6877 44.8565L37.7865 45.972C37.7703 45.9772 37.7539 45.982 37.7376 45.9872C37.2055 46.1596 36.6881 46.3747 36.1905 46.6303C36.4532 46.3666 36.6138 46.0105 36.721 45.6515C36.7817 45.4483 36.8283 45.2377 36.8181 45.026C36.8078 44.8142 36.7358 44.5995 36.5866 44.4488C36.4374 44.2981 36.204 44.2234 36.0034 44.293C35.7715 44.3735 35.6331 44.6238 35.6109 44.8681C35.5888 45.1124 35.6603 45.3543 35.731 45.5891L36.0644 46.696C36.0575 46.6996 36.0507 46.7034 36.0438 46.7071L36.0342 46.7019L36.0381 46.7102C35.558 46.9666 35.0992 47.261 34.666 47.5905C34.7897 47.2799 34.8205 46.9316 34.81 46.5944C34.8033 46.3784 34.7806 46.1598 34.7026 45.9583C34.6247 45.7567 34.4861 45.5722 34.2934 45.4743C34.1008 45.3764 33.8514 45.3788 33.68 45.5104C33.4818 45.6626 33.4286 45.9491 33.4858 46.1925C33.543 46.4358 33.6898 46.6468 33.8336 46.8513L34.4464 47.7223L34.46 47.7516C33.9924 48.1271 33.5605 48.545 33.1698 49C33.1286 49.0481 33.1957 49.1216 33.2375 49.0729C33.6213 48.6261 34.0449 48.215 34.5032 47.8448L34.9439 48.7936C35.0472 49.0161 35.1547 49.2443 35.3336 49.4121C35.5126 49.5799 35.7824 49.6752 36.0094 49.5812ZM13.9087 36.2709C13.7424 36.1426 13.5001 36.1396 13.3129 36.2342C13.1257 36.3288 12.9909 36.5078 12.915 36.7033C12.839 36.8989 12.8168 37.1111 12.81 37.3209C12.7988 37.6681 12.8324 38.0274 12.9712 38.3427C12.4993 38.1485 12.0431 37.9183 11.6066 37.654C11.5669 37.63 11.5276 37.6052 11.4882 37.5807L12.1173 36.6894C12.2572 36.4912 12.4001 36.2865 12.456 36.0504C12.5118 35.8141 12.4604 35.5357 12.2681 35.3873C12.1018 35.259 11.8595 35.256 11.6723 35.3506C11.4851 35.4451 11.3503 35.6241 11.2743 35.8197C11.1984 36.0152 11.1761 36.2275 11.1693 36.4373C11.1578 36.7954 11.1938 37.1666 11.3439 37.4888C10.8681 37.1807 10.419 36.8333 10.0014 36.4501L10.6041 35.5226C10.7363 35.3191 10.8712 35.1091 10.9179 34.8709C10.9646 34.6327 10.9027 34.3564 10.7048 34.2155C10.5337 34.0937 10.2915 34.1 10.1081 34.2017C9.92467 34.3034 9.79681 34.4875 9.72844 34.6858C9.66001 34.8841 9.64587 35.0971 9.64717 35.307C9.64921 35.643 9.69343 35.9891 9.83283 36.2918C9.53699 36.0079 9.25893 35.7061 9.00023 35.3881C8.92394 35.2938 8.84943 35.198 8.77674 35.1009L9.36521 34.1265C9.49064 33.9188 9.61861 33.7046 9.65747 33.4649C9.69632 33.2253 9.62534 32.9512 9.42295 32.8168C9.24792 32.7007 9.00611 32.715 8.82611 32.8226C8.64611 32.9303 8.52435 33.1185 8.46254 33.3189C8.40073 33.5194 8.39355 33.7328 8.40175 33.9425C8.4134 34.2422 8.4592 34.5486 8.57491 34.8229C8.33947 34.4851 8.12607 34.1325 7.93605 33.7673L7.98819 32.6587C7.99961 32.4162 8.01007 32.1666 7.93022 31.9372C7.85032 31.7078 7.65754 31.5003 7.41572 31.4784C7.20665 31.4595 7.00092 31.5872 6.89398 31.7676C6.78704 31.948 6.76963 32.1716 6.81068 32.3775C6.85174 32.5834 6.94697 32.7746 7.05397 32.9553C7.2511 33.2884 7.50315 33.6046 7.83872 33.793C7.83929 33.7943 7.83952 33.7954 7.84019 33.7967C8.04181 34.1858 8.26973 34.5606 8.52237 34.9187C8.26653 34.7399 7.95907 34.6321 7.65216 34.5623C7.44745 34.5157 7.2364 34.4835 7.02795 34.5075C6.81951 34.5314 6.61219 34.6164 6.47324 34.7736C6.3343 34.9307 6.27588 35.1658 6.35788 35.3591C6.45277 35.5828 6.70923 35.7029 6.95195 35.7087C7.19466 35.7146 7.42884 35.6281 7.65607 35.543L8.69423 35.1541C9.01626 35.5831 9.37237 35.9854 9.75909 36.3572C9.45513 36.2323 9.11288 36.2004 8.78154 36.2094C8.57174 36.2151 8.35939 36.2363 8.1635 36.3112C7.9676 36.3862 7.78794 36.5201 7.69243 36.7068C7.59691 36.8935 7.59861 37.1359 7.72602 37.3029C7.87339 37.496 8.15157 37.5487 8.38801 37.4942C8.6245 37.4395 8.82984 37.2977 9.02873 37.1588L9.93705 36.5244C9.9495 36.5358 9.96165 36.5475 9.97421 36.5589C10.3843 36.9305 10.8237 37.2684 11.2881 37.5693C10.9325 37.4739 10.5479 37.5115 10.187 37.5965C9.98281 37.6445 9.77916 37.7083 9.60255 37.8214C9.42594 37.9345 9.27716 38.102 9.2214 38.3043C9.1657 38.5066 9.21648 38.7436 9.37499 38.8814C9.55833 39.0408 9.84137 39.0361 10.0618 38.9347C10.2822 38.8334 10.4546 38.6528 10.6212 38.4765L11.4065 37.6452C11.413 37.6493 11.4196 37.6533 11.4262 37.6574L11.4264 37.6682L11.4316 37.6608C11.8881 37.9463 12.3667 38.1949 12.8628 38.4041C12.5354 38.451 12.2215 38.5962 11.9374 38.7714C11.7554 38.8836 11.5791 39.0107 11.4446 39.1769C11.3101 39.343 11.22 39.5529 11.2309 39.7664C11.2419 39.9799 11.3668 40.1927 11.5641 40.2748C11.7924 40.3699 12.0644 40.2744 12.245 40.1055C12.4255 39.9365 12.5343 39.7066 12.6388 39.4824L13.0842 38.5276L13.1026 38.5015C13.6551 38.7176 14.2264 38.8822 14.8092 38.9933C14.8707 39.005 14.9008 38.9111 14.8385 38.8992C14.266 38.7901 13.7046 38.6292 13.1612 38.4184L13.758 37.5729C13.898 37.3747 14.0409 37.1701 14.0967 36.9339C14.1524 36.6977 14.1011 36.4193 13.9087 36.2709Z" fill="#00728D"/>
<path d="M20.3224 40.5885C20.7039 40.8988 20.9796 41.378 20.9796 41.378C20.9796 41.378 21.8181 42.4733 22.2529 43.6343C22.4036 44.046 22.6403 44.6739 22.6288 45.4972L22.6159 45.757C22.6098 45.8429 22.6 45.9273 22.5823 46.0107C22.5723 46.0741 22.5624 46.1374 22.5488 46.1994C22.544 46.2333 22.5382 46.2646 22.5297 46.297C22.3051 47.3546 21.7276 48.0881 21.4971 48.3618C21.2704 48.6202 20.432 49.5273 19.0638 49.852C18.217 50.052 16.9999 50.0803 16.8028 49.5666C16.7706 49.4657 16.774 49.3599 16.6803 49.2605C16.5013 49.0563 16.1871 49.1295 15.7615 49.1865C14.9738 49.2938 14.5809 49.3532 14.3403 49.2048C14.2271 49.1397 14.0415 48.9037 13.6722 48.4384C13.4154 48.1156 13.4136 48.0877 13.3373 48.0517C12.9525 47.8852 12.6362 48.4764 11.9521 48.6093C11.4265 48.7073 10.7898 48.5184 10.4865 48.0831C10.3121 47.824 10.3868 47.6808 10.1165 47.1553C9.92466 46.7844 9.82179 46.5952 9.65519 46.4673C9.00587 45.9708 8.02086 46.9469 7.52208 46.4901C7.27597 46.264 7.25369 45.7868 7.23164 45.3307C7.21563 44.8644 7.30725 44.7424 7.27931 44.5551C7.13222 43.4809 3.5397 43.7067 3.51572 43.2015C3.49943 42.817 5.59465 41.7415 7.15999 41.6175C7.40316 41.6028 7.87819 41.586 8.24894 41.2219C8.67991 40.8056 8.5408 40.348 8.8831 40.1325C9.05813 40.0283 9.21556 40.0664 10.6392 40.5008C11.0928 40.6417 11.4072 40.7409 11.5619 40.57C11.7146 40.4046 11.5961 40.1042 11.8183 39.8735C11.8506 39.8336 11.9336 39.7608 12.1106 39.7163C12.6939 39.5566 13.4814 39.903 13.8638 40.0813C14.6299 40.4342 14.9885 40.6788 15.1207 40.539C15.2462 40.3946 14.992 40.0707 15.1636 39.7594C15.2903 39.5418 15.5641 39.4593 15.7482 39.4448C16.0095 39.4268 16.197 39.5712 16.7088 40.0541C17.2348 40.5487 17.2989 40.643 17.5877 40.8942C18.078 41.3351 18.5257 41.734 18.7563 41.5843C18.9645 41.4489 18.7881 41.0168 19.0963 40.6513C19.109 40.6352 19.3482 40.3606 19.681 40.3368C19.9018 40.3197 20.1312 40.4321 20.3224 40.5885Z" fill="#70ABBA"/>
<path d="M19.838 42.2607C20.2398 42.4259 20.2625 42.9367 20.3522 43.3003C20.4376 43.6464 20.5515 43.9848 20.6927 44.312C20.9619 44.9355 21.3328 45.5112 21.781 46.021C21.7782 46.0205 21.7757 46.0198 21.7729 46.0194C20.9988 45.8652 20.2078 45.7758 19.4323 45.6737C18.6329 45.5683 17.8311 45.4474 17.0527 45.2287C16.4034 45.0452 15.8002 44.7705 15.2043 44.4713C15.2039 44.4712 15.2036 44.471 15.2033 44.4709C14.8749 43.7969 14.8336 43.0404 14.5671 42.3473C14.3337 41.7402 13.8164 41.1606 13.11 41.2167C13.0472 41.2217 13.0628 41.3183 13.1254 41.3134C13.8724 41.2541 14.3466 41.9514 14.5448 42.58C14.7354 43.1845 14.8089 43.8181 15.0652 44.4007L15.0621 44.3992L14.8517 44.2921C14.2792 43.9978 13.6968 43.7124 13.0658 43.5739C12.6294 43.4755 12.186 43.4164 11.7432 43.3722C11.3992 42.7593 10.8644 42.226 10.2227 41.9305C10.1655 41.9041 10.1301 41.9954 10.1872 42.0217C10.7852 42.2972 11.29 42.7922 11.6216 43.3593C11.5985 43.3564 11.5762 43.3558 11.5529 43.3529C10.4881 43.2517 9.4186 43.2065 8.34897 43.2173C8.25595 43.2189 8.16105 43.2198 8.06724 43.2231C8.00577 43.2244 7.99542 43.3213 8.05683 43.32C9.06565 43.2924 10.0797 43.332 11.0851 43.4103C11.6193 43.4522 12.1528 43.5065 12.6827 43.5972C12.8044 43.6194 12.9235 43.6426 13.0397 43.6731C13.0398 43.6732 13.0401 43.6731 13.0402 43.6732C12.8792 44.0055 12.5054 44.1146 12.1836 44.2316C11.9002 44.3347 11.6336 44.4754 11.3915 44.6557C10.9117 45.0139 10.5463 45.5037 10.3397 46.0656C10.3181 46.1247 10.4092 46.1604 10.431 46.1012C10.6487 45.5069 11.0536 44.9941 11.58 44.6423C11.8511 44.4611 12.1441 44.3543 12.447 44.2409C12.7305 44.1348 13.004 43.9849 13.1369 43.6994C13.1374 43.6983 13.1365 43.6976 13.137 43.6964C13.1372 43.6965 13.1375 43.6965 13.1377 43.6965C13.5088 43.7905 13.8638 43.9203 14.2177 44.0853C14.9375 44.4222 15.6195 44.8347 16.3671 45.1111C17.0947 45.3795 17.8586 45.5382 18.6233 45.6573C18.6885 45.6679 18.7544 45.6767 18.8203 45.6857L18.8209 45.6857C18.2518 46.3 17.6471 46.941 16.8312 47.2125C16.6426 47.2755 16.4465 47.3134 16.2479 47.3253C16.0556 47.3367 15.8602 47.3256 15.6714 47.3707C15.3188 47.4549 15.0832 47.7346 14.8677 48.0065C14.8285 48.0559 14.9072 48.1143 14.9462 48.0649C15.0695 47.9095 15.195 47.7516 15.3537 47.6304C15.5166 47.506 15.6996 47.4515 15.9025 47.4363C16.1017 47.4213 16.3002 47.4289 16.498 47.396C16.6761 47.3664 16.8506 47.3151 17.0181 47.2482C17.7859 46.9413 18.3617 46.3249 18.9119 45.7309C18.9157 45.7269 18.9186 45.7221 18.9204 45.7168C18.9221 45.7116 18.9227 45.706 18.9221 45.7005C18.9227 45.7005 18.9232 45.7006 18.9237 45.7007C19.9104 45.8431 20.9119 45.9366 21.8869 46.1417L21.8959 46.1437C21.9043 46.1472 21.9119 46.1503 21.9203 46.149C21.9214 46.1493 21.9226 46.1496 21.9236 46.1497C22.1255 46.1925 22.3259 46.239 22.5228 46.2946C22.5313 46.2622 22.5371 46.2309 22.5419 46.197C22.3407 46.1419 22.1384 46.0946 21.9348 46.0511L21.9333 46.0508C21.4187 45.4864 21.0062 44.8345 20.7207 44.1256C20.5752 43.7643 20.4672 43.3917 20.3874 43.0106C20.3176 42.6782 20.2183 42.3114 19.8733 42.1695C19.8152 42.1455 19.7797 42.2368 19.838 42.2607Z" fill="white"/>
<path d="M23.0897 33.8366C23.1102 34.3278 22.9342 34.8519 22.9342 34.8519C22.9342 34.8519 22.67 36.2058 22.0888 37.3009C21.8805 37.6867 21.5673 38.2802 20.9432 38.8173C20.8756 38.8715 20.8079 38.9256 20.7401 38.9798C20.6718 39.0322 20.6022 39.0809 20.528 39.1229C20.4738 39.1574 20.4198 39.192 20.3645 39.2228C20.3359 39.2417 20.3086 39.258 20.2787 39.2732C19.3378 39.8061 18.406 39.8599 18.0482 39.8687C17.7045 39.8703 16.4696 39.8438 15.3195 39.0347C14.6085 38.5331 13.7805 37.6407 14.0344 37.1526C14.0885 37.0616 14.17 36.994 14.1824 36.858C14.2166 36.5886 13.9536 36.4018 13.6288 36.121C13.0263 35.6024 12.7214 35.3476 12.673 35.0691C12.6466 34.9411 12.7004 34.6458 12.8039 34.0607C12.8752 33.6545 12.895 33.6347 12.8714 33.5537C12.741 33.1552 12.0887 33.3103 11.5357 32.8861C11.114 32.5576 10.8334 31.9556 10.9583 31.44C11.0366 31.1377 11.1934 31.0986 11.4077 30.5479C11.5582 30.1584 11.6317 29.956 11.617 29.7464C11.5583 28.9312 10.1746 28.8407 10.1859 28.1645C10.1921 27.8303 10.5346 27.4974 10.8615 27.1785C11.2001 26.8574 11.3521 26.8451 11.4738 26.7C12.1807 25.8778 9.63016 23.3377 9.99249 22.9848C10.2696 22.7177 12.4637 23.5736 13.5942 24.6634C13.7663 24.8357 14.0938 25.1802 14.6122 25.2165C15.2096 25.2632 15.46 24.8557 15.8482 24.9691C16.0423 25.0311 16.1181 25.1743 16.7365 26.5281C16.9318 26.9611 17.0658 27.2622 17.2963 27.2649C17.5214 27.2695 17.6677 26.9817 17.9877 26.9952C18.0391 26.9929 18.1486 27.0068 18.2992 27.1098C18.8054 27.4406 19.068 28.2599 19.188 28.6643C19.4317 29.4719 19.4862 29.9025 19.6785 29.9088C19.8698 29.9071 19.9437 29.5021 20.2906 29.4242C20.5375 29.3748 20.7807 29.5251 20.9137 29.6534C21.1004 29.8371 21.1165 30.0732 21.0943 30.7764C21.0726 31.4982 21.0445 31.6087 21.0479 31.9914C21.0428 32.6507 21.0408 33.2505 21.3058 33.3238C21.5452 33.3899 21.7518 32.9714 22.2297 32.96C22.2502 32.9587 22.6143 32.9558 22.8528 33.1892C23.0121 33.3435 23.08 33.5897 23.0897 33.8366Z" fill="#70ABBA"/>
<path d="M21.5308 34.5902C21.6734 35.0004 21.3061 35.3561 21.0933 35.6644C20.8908 35.9576 20.7129 36.2672 20.5615 36.5899C20.2732 37.2047 20.088 37.8641 20.0034 38.5375C20.0019 38.5351 20.0007 38.5327 19.9992 38.5304C19.6015 37.8486 19.1441 37.1971 18.7065 36.5488C18.2555 35.8804 17.8145 35.1999 17.4623 34.4721C17.1694 33.8643 16.9752 33.2306 16.8041 32.5862C16.804 32.5858 16.8039 32.5854 16.8038 32.5851C17.0908 31.8924 17.6299 31.36 17.972 30.7011C18.2719 30.1238 18.363 29.3524 17.8528 28.8606C17.8074 28.8169 17.7453 28.8926 17.7906 28.9362C18.3301 29.4562 18.1224 30.2735 17.783 30.8387C17.4569 31.3821 17.0312 31.8571 16.7648 32.4352L16.7639 32.4319L16.7047 32.2033C16.5455 31.5796 16.3732 30.9544 16.0586 30.3901C15.843 29.998 15.5934 29.627 15.333 29.2661C15.5638 28.6022 15.6086 27.8484 15.4045 27.172C15.3864 27.1116 15.2946 27.1457 15.3127 27.2058C15.5029 27.8362 15.4668 28.5423 15.2621 29.1665C15.2489 29.1473 15.2346 29.1302 15.2214 29.1108C14.5912 28.2465 13.9162 27.4157 13.1991 26.6221C13.1363 26.5534 13.0727 26.4829 13.0079 26.415C12.9662 26.3699 12.8868 26.4263 12.9285 26.4714C13.6179 27.2084 14.2604 27.994 14.8682 28.7987C15.1909 29.2264 15.504 29.6619 15.7874 30.1187C15.8514 30.2245 15.913 30.3291 15.9671 30.4364C15.9672 30.4365 15.9674 30.4367 15.9674 30.4369C15.6118 30.5366 15.2823 30.329 14.9814 30.1657C14.7164 30.0218 14.4343 29.9155 14.1388 29.8537C13.5526 29.7319 12.9437 29.783 12.386 30.0008C12.3274 30.0238 12.3611 30.1157 12.4199 30.0927C13.0092 29.8618 13.6615 29.8251 14.2738 29.9859C14.5893 30.0688 14.8634 30.2174 15.1491 30.3691C15.4165 30.511 15.71 30.6165 16.0119 30.5267C16.0131 30.5263 16.0131 30.5252 16.0142 30.5247L16.0145 30.5254C16.1902 30.8655 16.3283 31.2173 16.4393 31.5917C16.6642 32.354 16.8074 33.1381 17.0961 33.881C17.3774 34.6036 17.765 35.2808 18.1827 35.9323C18.218 35.9882 18.255 36.0434 18.292 36.0986L18.2924 36.0991C17.4552 36.0801 16.5744 36.0524 15.8303 35.6214C15.6581 35.5219 15.4997 35.4002 15.3592 35.2595C15.2233 35.123 15.1019 34.9694 14.9431 34.8579C14.6463 34.6496 14.2807 34.6587 13.9343 34.6775C13.8712 34.6809 13.8797 34.7785 13.9425 34.775C14.1406 34.7643 14.3421 34.7536 14.538 34.7921C14.7391 34.8316 14.9013 34.9325 15.0472 35.0744C15.1905 35.2135 15.3163 35.3672 15.472 35.4935C15.6122 35.6072 15.7663 35.7039 15.9275 35.785C16.6662 36.1565 17.5095 36.1789 18.3189 36.1972C18.3244 36.1974 18.3299 36.1963 18.335 36.1942C18.3401 36.192 18.3447 36.1887 18.3484 36.1846L18.3493 36.1859C18.8967 37.0192 19.4906 37.831 19.9833 38.6969L19.9878 38.705C19.9907 38.7136 19.9934 38.7213 20 38.7268C20.0005 38.7278 20.0011 38.7289 20.0016 38.7298C20.1034 38.9093 20.2014 39.0902 20.2904 39.2744C20.3202 39.2592 20.3475 39.2429 20.3761 39.224C20.284 39.0367 20.1853 38.854 20.0829 38.6727C20.0826 38.6722 20.0824 38.6718 20.0821 38.6714C20.1636 37.9119 20.3782 37.1709 20.7197 36.4873C20.8938 36.1389 21.1012 35.811 21.3336 35.4987C21.5362 35.226 21.745 34.9086 21.6225 34.5563C21.6019 34.4967 21.51 34.5306 21.5308 34.5902Z" fill="white"/>
<path d="M34.6683 46.3906C34.1807 46.454 33.6432 46.3243 33.6432 46.3243C33.6432 46.3243 32.2715 46.1792 31.1298 45.6959C30.7273 45.522 30.1088 45.2618 29.5193 44.687C29.4594 44.6243 29.3995 44.5616 29.3397 44.4989C29.2815 44.4354 29.227 44.3702 29.1787 44.3C29.1395 44.2491 29.1004 44.1983 29.0648 44.1459C29.0435 44.119 29.0249 44.0933 29.0071 44.0649C28.3941 43.1741 28.2593 42.2505 28.2192 41.8948C28.1877 41.5525 28.1063 40.32 28.8119 39.1038C29.2495 38.3517 30.0664 37.449 30.5747 37.6594C30.67 37.7054 30.7445 37.7807 30.8811 37.7811C31.1524 37.7917 31.3156 37.5133 31.567 37.1653C32.0311 36.5198 32.2583 36.1938 32.5315 36.1213C32.6567 36.084 32.9556 36.1117 33.5474 36.1638C33.9583 36.1995 33.9798 36.2175 34.0584 36.1868C34.444 36.0222 34.2326 35.3859 34.6069 34.798C34.8974 34.3492 35.4725 34.0172 35.997 34.0965C36.3051 34.1483 36.3577 34.301 36.9249 34.4664C37.3261 34.5824 37.5341 34.6379 37.7416 34.605C38.5486 34.4754 38.518 33.089 39.1927 33.0413C39.5261 33.0183 39.8877 33.3305 40.2339 33.6283C40.5833 33.9376 40.6088 34.0879 40.764 34.1965C41.6447 34.8289 43.9526 32.0665 44.3357 32.3967C44.626 32.6494 43.9648 34.9098 42.9779 36.1311C42.8212 36.3176 42.5065 36.6739 42.5157 37.1935C42.5213 37.7927 42.9491 38.0066 42.8699 38.4032C42.8251 38.602 42.6891 38.69 41.3944 39.4242C40.98 39.6565 40.6918 39.8163 40.7093 40.0462C40.7243 40.2708 41.0238 40.3915 41.0383 40.7115C41.045 40.7624 41.0408 40.8727 40.9513 41.0318C40.6659 41.5649 39.8726 41.898 39.4802 42.0529C38.697 42.3661 38.2727 42.458 38.2832 42.6501C38.3016 42.8405 38.7116 42.8788 38.8195 43.2176C38.8901 43.4592 38.7617 43.7146 38.6454 43.8583C38.4788 44.0603 38.245 44.097 37.5425 44.1362C36.8216 44.1776 36.709 44.1592 36.328 44.196C35.6708 44.2485 35.0732 44.2988 35.0232 44.5691C34.9782 44.8134 35.4132 44.9827 35.4663 45.4578C35.4693 45.478 35.5039 45.8406 35.2922 46.0984C35.1527 46.2703 34.9134 46.3594 34.6683 46.3906Z" fill="#70ABBA"/>
<path d="M33.7825 44.8906C33.3862 45.0685 32.9999 44.7336 32.6743 44.5485C32.3644 44.3723 32.0405 44.2222 31.7059 44.0995C31.0682 43.8659 30.3952 43.7389 29.717 43.7134C29.7192 43.7117 29.7214 43.7104 29.7237 43.7086C30.3682 43.253 30.9773 42.7405 31.5849 42.248C32.2114 41.7404 32.8508 41.2417 33.5451 40.8274C34.125 40.4825 34.7393 40.2337 35.3664 40.0072C35.3667 40.007 35.367 40.0069 35.3674 40.0068C36.0825 40.2322 36.6599 40.7228 37.3461 41.0062C37.9473 41.2545 38.7238 41.2779 39.1691 40.7267C39.2087 40.6777 39.1279 40.6225 39.0884 40.6714C38.6175 41.2542 37.7852 41.1186 37.1926 40.8298C36.6228 40.5523 36.1124 40.1697 35.5133 39.9548L35.5165 39.9536L35.739 39.8746C36.3465 39.6616 36.9542 39.4354 37.4889 39.0728C37.8607 38.8238 38.2086 38.5428 38.5454 38.2518C39.2269 38.4239 39.9817 38.4027 40.6377 38.1404C40.6963 38.117 40.6543 38.0285 40.596 38.0518C39.9846 38.2963 39.2781 38.322 38.6384 38.1725C38.6565 38.1577 38.6722 38.142 38.6903 38.1271C39.4964 37.4239 40.2651 36.679 40.9931 35.8953C41.0561 35.8268 41.1207 35.7573 41.1828 35.6869C41.2241 35.6414 41.1609 35.5672 41.1197 35.6128C40.4456 36.3638 39.7191 37.0725 38.9705 37.7481C38.5726 38.107 38.1661 38.4568 37.7357 38.7789C37.6359 38.852 37.5371 38.9224 37.4349 38.9858L37.4345 38.986C37.3041 38.6406 37.4822 38.2942 37.6187 37.9802C37.7389 37.7036 37.8202 37.4134 37.8559 37.1136C37.9261 36.519 37.822 35.9169 37.5564 35.3803C37.5284 35.324 37.4398 35.3655 37.4679 35.4221C37.7493 35.989 37.8427 36.6356 37.736 37.2596C37.681 37.581 37.5568 37.8671 37.4307 38.165C37.3127 38.4437 37.2332 38.7453 37.3489 39.0382C37.3494 39.0394 37.3506 39.0392 37.3511 39.0403L37.3505 39.0407C37.0269 39.2454 36.6885 39.4137 36.3253 39.557C35.5855 39.8475 34.817 40.0585 34.1021 40.411C33.4067 40.7543 32.7659 41.1995 32.1534 41.6724C32.1008 41.7125 32.0491 41.7542 31.9973 41.7958C31.9971 41.796 31.9969 41.7961 31.9968 41.7963C31.9426 40.9606 31.8934 40.0808 32.2578 39.3019C32.3419 39.1217 32.4493 38.9533 32.5773 38.8011C32.7013 38.6537 32.8438 38.5194 32.941 38.3515C33.1226 38.0377 33.0817 37.6743 33.0327 37.3308C33.0237 37.2683 32.9273 37.2852 32.9362 37.3475C32.9642 37.5439 32.9924 37.7437 32.9711 37.9422C32.9493 38.146 32.863 38.3163 32.7344 38.474C32.6083 38.6289 32.4661 38.7677 32.3539 38.9338C32.2529 39.0834 32.17 39.2454 32.1034 39.413C31.7978 40.1813 31.8489 41.0233 31.9014 41.8312C31.9017 41.8368 31.9032 41.8422 31.9058 41.8471C31.9084 41.852 31.912 41.8562 31.9165 41.8596L31.9152 41.8606C31.1329 42.4786 30.376 43.141 29.5564 43.7074L29.5487 43.7126C29.5404 43.7163 29.5329 43.7197 29.528 43.7267C29.5271 43.7273 29.5261 43.7279 29.5252 43.7286C29.3553 43.8456 29.1836 43.9591 29.0078 44.0638C29.0256 44.0922 29.0442 44.1179 29.0656 44.1447C29.244 44.0367 29.4174 43.9224 29.5892 43.8045L29.5903 43.8036C30.354 43.8185 31.111 43.9677 31.8217 44.2483C32.1841 44.3913 32.5287 44.5693 32.8602 44.7735C33.1494 44.9516 33.4839 45.1319 33.8242 44.9792C33.8817 44.9533 33.84 44.8647 33.7825 44.8906Z" fill="white"/>
<path d="M42.035 26.9813C41.5737 25.9901 40.873 25.0302 40.4999 24.0102C40.4916 23.6134 40.5044 23.1803 40.5447 22.7029C40.7373 20.4248 39.5592 19.1744 37.2357 18.0104C36.5299 17.2726 36.0244 16.4433 35.8913 15.2294C35.7479 14.4282 35.6065 13.6047 35.1413 12.9174C34.7874 12.3953 34.3299 12.0184 33.7771 11.7567C32.9356 10.6183 31.7934 10.0411 30.7932 9.33847C29.7994 7.53777 29.1889 5.364 27.0811 4.43487C26.3587 4.09188 25.5466 3.79114 24.7359 3.80008C23.8809 3.64909 22.8891 3.66249 21.7411 3.89927C19.6921 4.32159 18.2613 5.76653 17.727 6.89914C17.4186 7.55185 17.2132 8.15463 17.0909 8.71262C16.9783 8.96156 16.8791 9.21558 16.8093 9.49008C16.6858 9.97388 16.6231 10.4755 16.634 10.976C16.6545 11.8993 16.9405 12.8247 17.5088 13.5593C18.1001 14.322 19.0516 14.7431 19.561 15.575C19.8547 16.0536 19.8515 16.54 19.7524 17.0756C19.6647 17.5517 19.5681 18.0226 19.5047 18.5032C19.4343 19.0337 19.4222 19.5661 19.5009 20.0959C19.5214 20.236 19.5476 20.3845 19.5809 20.5336C19.5687 20.7979 19.5687 21.0698 19.586 21.3508C19.6743 22.7726 20.0429 23.3594 20.5612 23.9923C20.9132 24.421 21.3342 24.8715 21.7834 25.6183C22.6947 27.1342 23.6065 28.8453 24.5069 30.495C24.6419 30.7433 24.7775 30.9903 24.9125 31.2354C25.0706 31.5229 25.2301 31.8096 25.3912 32.0954C25.3925 32.0987 25.3944 32.1012 25.3963 32.1044C25.7783 32.7833 26.1578 33.4347 26.5334 34.0401C26.9993 34.7907 27.46 35.4696 27.9124 36.0372C28.0538 36.2153 28.2008 36.3888 28.3533 36.5574C28.9196 37.1788 29.4725 37.6018 30.0081 37.7496C30.1464 37.7874 30.2833 37.8072 30.419 37.8072C30.9021 37.8072 31.3353 37.772 31.725 37.7067C31.7385 37.7047 31.7513 37.7022 31.7647 37.6996C31.8004 37.6939 31.8361 37.6875 31.8716 37.6805C31.9067 37.6734 31.942 37.667 31.9758 37.6594C32.0098 37.6524 32.043 37.6453 32.0757 37.6376C32.1101 37.6299 32.1444 37.6218 32.1787 37.6133C32.2207 37.6033 32.2625 37.5924 32.3041 37.5807C32.3586 37.5662 32.4128 37.5506 32.4666 37.5339C32.498 37.5243 32.5287 37.5147 32.5588 37.5051C32.6539 37.4739 32.7481 37.4395 32.841 37.4021C32.8691 37.3912 32.8973 37.3797 32.9241 37.3688C32.9325 37.365 32.9408 37.3618 32.9485 37.358C32.9815 37.3438 33.0143 37.3293 33.047 37.3145C33.0483 37.3145 33.049 37.3139 33.0503 37.3132C33.0854 37.2968 33.1204 37.2802 33.1552 37.2632L33.1629 37.2594C33.1936 37.244 33.2243 37.2287 33.2544 37.2127C33.2768 37.2018 33.2986 37.1897 33.3203 37.1775C33.3427 37.166 33.3657 37.1532 33.3875 37.1404C33.4156 37.1244 33.4432 37.1078 33.4707 37.0912C33.5034 37.0716 33.5358 37.0515 33.5679 37.031C33.6647 36.9689 33.7586 36.9025 33.8495 36.832C33.8744 36.8128 33.8994 36.793 33.9237 36.7731C33.9494 36.7526 33.9743 36.7315 33.9992 36.7104C34.0306 36.6829 34.062 36.6554 34.0927 36.6278C34.1106 36.6112 34.1291 36.5946 34.1464 36.5779C34.2018 36.5254 34.2558 36.4714 34.3083 36.416C34.3497 36.372 34.3903 36.3272 34.4299 36.2816C34.4555 36.2515 34.4811 36.2215 34.506 36.1914C34.5449 36.1437 34.5829 36.0953 34.6199 36.0462C34.6398 36.0205 34.6583 35.995 34.6769 35.9693C34.9047 35.6552 35.0826 35.3307 35.2368 35.0236C35.2592 34.9788 35.281 34.9346 35.3027 34.8905C35.4966 34.495 35.6559 34.1347 35.839 33.8698C35.8498 33.8532 35.8614 33.8366 35.8735 33.8212C35.9067 33.7751 35.9426 33.7311 35.981 33.6894C37.2135 32.3596 38.9521 33.1512 40.2991 32.384C40.7957 32.2841 41.2045 32.0621 41.5296 31.7556C42.7114 30.6447 42.8016 28.4306 42.035 26.9813ZM36.4205 17.6226C34.12 16.4964 35.5451 14.5101 33.9831 12.0542C33.9735 12.0388 33.9627 12.0241 33.953 12.0094C35.9227 13.3474 35.1375 15.8284 36.4205 17.6226ZM30.2173 8.89946C29.729 8.4893 29.3041 8.00618 29.0091 7.35025C28.4761 6.16516 27.6403 5.03572 26.3657 4.35547C28.6188 5.23857 29.3061 7.02519 30.2173 8.89946ZM19.6377 19.8713C19.5783 19.4803 19.5603 19.0804 19.5993 18.6874C19.6845 17.839 20.2431 17.0851 20.1778 16.2283V16.2276C20.1704 16.1237 20.1534 16.0207 20.1273 15.9198C19.9468 15.2198 19.3997 14.7405 18.8519 14.3009C18.7105 14.1864 18.569 14.0756 18.4334 13.9637C17.6956 13.3545 17.1933 12.5866 16.9923 11.6453C16.8791 11.111 16.8746 10.5587 16.9514 10.0187C16.9706 11.4373 17.5804 12.5207 18.3579 13.4031C18.3579 13.4038 18.3586 13.4038 18.3586 13.4038C18.731 13.8261 19.1412 14.2024 19.5436 14.5473C20.1669 15.0816 20.3397 15.6818 20.3077 16.3698C20.2629 17.3411 19.8099 18.4878 19.6377 19.8713ZM41.2493 31.8439C41.0675 31.9699 40.8596 32.0768 40.6228 32.1606C40.7041 32.0941 40.7834 32.0186 40.8615 31.936C41.0516 31.7319 41.2288 31.4759 41.3901 31.154C42.6897 28.5541 41.0381 28.0959 40.5991 25.2055C40.7323 25.4396 40.873 25.67 41.0119 25.8972C42.2552 27.5706 43.0224 30.6146 41.2493 31.8439Z" fill="#523A23"/>
<path d="M41.5321 31.7571C41.2065 32.0638 40.7978 32.2857 40.301 32.3856C38.9544 33.1528 37.2153 32.3612 35.9832 33.6911C35.1901 34.5469 35.0049 37.1623 31.727 37.7082L33.9553 28.0018C33.9553 28.0018 33.3354 34.8746 34.6313 33.9869C35.9271 33.0993 35.8143 31.7187 38.4626 32.0005C39.4966 32.1107 40.2859 32.0507 40.8637 31.9373C40.7891 32.0175 40.7094 32.0927 40.625 32.1625C40.862 32.0783 41.0699 31.9713 41.2513 31.8456C41.3459 31.8193 41.4396 31.7898 41.5321 31.7571ZM20.226 8.32617C20.226 8.32617 23.6499 8.62177 24.3773 9.60547C24.3773 9.60547 25.1514 8.13961 25.8771 9.2669C26.6028 10.3942 27.544 11.1562 27.7635 14.8176C27.9831 18.4791 32.772 16.4401 33.2791 19.6569C33.7861 22.8736 32.2368 23.3525 32.2368 23.3525L25.5323 22.1131L22.518 22.5638C22.518 22.5638 25.1666 19.218 24.4347 18.1129C23.3713 16.5071 21.6729 20.113 20.3912 15.8393C19.7197 13.6004 20.226 8.32617 20.226 8.32617Z" fill="#3D2A18"/>
<path d="M34.0195 48.0561V48.1169C34.0195 48.1687 34.0195 48.2205 34.0189 48.2717V48.2794C34.0176 48.3782 34.015 48.477 34.0112 48.5757C34.0112 48.5834 34.0106 48.5904 34.0106 48.5981C34.008 48.6771 34.0042 48.756 33.999 48.8348C33.9485 48.8547 33.8979 48.8745 33.8474 48.8931C30.9236 50.0206 27.7471 50.6388 24.4254 50.6388C22.3079 50.6388 20.2494 50.3879 18.2778 49.9131C18.2778 49.6693 18.2714 49.4159 18.2567 49.1516C18.2535 49.0917 18.2497 49.0317 18.2452 48.9718C18.2137 48.5237 18.1605 48.0774 18.0858 47.6344C18.0755 47.5747 18.0572 47.5166 18.0314 47.4617C18.0149 47.4267 17.9963 47.3927 17.9758 47.3599C17.9617 47.3369 17.9464 47.3145 17.9297 47.2921C17.9291 47.2915 17.9284 47.2908 17.9284 47.2902C17.9201 47.2793 17.9124 47.2684 17.9041 47.2582C17.8772 47.2243 17.8484 47.1904 17.8177 47.1565C17.8068 47.1449 17.7966 47.1334 17.7857 47.1225C17.7748 47.111 17.7633 47.0995 17.7517 47.088C17.2302 46.5665 16.1936 46.0046 15.2299 45.0729H15.2293C15.2248 45.0684 15.2197 45.064 15.2146 45.0582C15.1723 45.0179 15.1308 44.9756 15.0885 44.9334C14.2125 44.0452 13.4229 42.8326 13.1739 41.0428C12.559 36.6172 14.7986 34.3232 16.7983 32.8014C16.9442 32.6894 17.0895 32.5826 17.2315 32.4789C17.2808 32.4431 17.3295 32.4085 17.3774 32.3739V32.3733C17.7025 32.1398 18.0122 31.9248 18.2912 31.7206C18.2944 31.7187 18.2976 31.7161 18.3008 31.7136C18.8358 31.3233 19.2568 30.9758 19.459 30.6239C19.4699 30.6047 19.4801 30.5861 19.4897 30.5682C19.4942 30.5599 19.498 30.5522 19.5013 30.5439C19.5601 30.4223 19.5915 30.2994 19.5915 30.1747C19.5915 30.1574 19.5908 30.1395 19.5895 30.1222V30.1196C19.5883 30.1058 19.5869 30.0919 19.5851 30.0781C19.5851 30.0742 19.5844 30.0704 19.5838 30.0665C19.5813 30.0485 19.5779 30.0305 19.5735 30.0128C19.571 30.0012 19.5684 29.9891 19.5652 29.9776C19.5625 29.9666 19.5595 29.9558 19.5562 29.945C19.5505 29.9255 19.5438 29.9063 19.5364 29.8874C19.5172 29.8355 19.498 29.785 19.4807 29.7351H19.4801C18.446 26.8952 19.1825 25.3812 20.5538 23.9932C21.3012 23.2369 22.2368 22.5176 23.1775 21.6409L23.1781 21.6403C23.1883 21.6307 23.1986 21.6218 23.2088 21.6122C23.2825 21.5439 23.3555 21.4748 23.4277 21.4048C23.4334 21.3997 23.4385 21.394 23.4443 21.3882C23.484 21.3504 23.523 21.312 23.562 21.2736C23.601 21.2352 23.6407 21.1962 23.6798 21.1572C23.7156 21.1213 23.7514 21.0849 23.7873 21.0484C23.9121 20.9216 24.0343 20.7923 24.1539 20.6606C24.1875 20.6246 24.2205 20.5881 24.2531 20.5512C24.3808 20.409 24.5051 20.2639 24.6262 20.116C24.6556 20.0802 24.6851 20.0437 24.7145 20.0072C24.7516 19.9605 24.7888 19.9138 24.8253 19.8665C24.8624 19.8191 24.8988 19.7711 24.9353 19.7231C24.9718 19.6745 25.0083 19.6259 25.0441 19.5766C25.0703 19.5407 25.096 19.5049 25.1203 19.4697C25.1452 19.4345 25.1689 19.3993 25.1919 19.3648C25.2219 19.3202 25.2511 19.2752 25.2796 19.2297C25.2796 19.2284 25.2803 19.2278 25.2809 19.2272C26.2043 17.7637 25.8293 16.8314 25.4031 16.3137C25.3218 16.2152 25.2328 16.1234 25.1369 16.0392C24.9775 15.8984 24.8534 15.8222 24.847 15.8018L26.3028 13.9115L26.4826 13.6773L26.7341 13.3516C26.7546 13.3893 26.7757 13.4271 26.7962 13.4642C26.8147 13.4981 26.8339 13.5314 26.8537 13.5647C26.8947 13.6344 26.9363 13.7035 26.9785 13.772C26.9996 13.806 27.0214 13.8398 27.0431 13.8731C27.0642 13.9071 27.0867 13.9403 27.1091 13.9729C27.19 14.0939 27.2741 14.2128 27.3612 14.3294C27.3925 14.371 27.4239 14.412 27.4552 14.4529C27.4655 14.4651 27.4751 14.4778 27.4847 14.4907C27.5231 14.5393 27.5621 14.5879 27.6018 14.636C27.6076 14.643 27.6133 14.6507 27.6197 14.6577C27.6632 14.7108 27.7074 14.7627 27.7516 14.8145C27.7523 14.8153 27.7531 14.8159 27.7541 14.8164V14.8177H27.7547C27.8084 14.8804 27.8635 14.9418 27.9185 15.0033C27.9666 15.0558 28.0145 15.1083 28.0625 15.1594C28.0888 15.1876 28.1156 15.2158 28.1425 15.2433C28.179 15.2817 28.2161 15.3194 28.2525 15.3571L28.2622 15.3668C28.3031 15.4084 28.344 15.4493 28.3857 15.4903L28.4682 15.5709C28.5143 15.6157 28.561 15.6605 28.6084 15.7053C28.6174 15.7136 28.6257 15.7219 28.6346 15.7302C28.6852 15.7782 28.7363 15.8256 28.7875 15.8723C28.8208 15.903 28.8541 15.9337 28.888 15.9644C28.8995 15.9746 28.911 15.9855 28.9226 15.9951C28.968 16.0367 29.0134 16.0777 29.0595 16.118C29.5771 16.5787 30.114 17.0151 30.6324 17.465L30.633 17.4656C30.8019 17.6128 30.9696 17.7606 31.1334 17.9122C31.175 17.9506 31.2166 17.989 31.2582 18.0281C31.2691 18.0377 31.28 18.0479 31.2902 18.0581C31.3536 18.1176 31.4163 18.1778 31.4784 18.2386C31.4803 18.2405 31.4822 18.2418 31.4835 18.2437C31.4853 18.2449 31.4868 18.2464 31.488 18.2482C31.5298 18.2884 31.5707 18.3293 31.6109 18.3711C31.6412 18.4003 31.6708 18.4302 31.6998 18.4607C31.7523 18.5144 31.8048 18.5688 31.856 18.6238C31.9211 18.6933 31.9852 18.7639 32.048 18.8356L32.0486 18.8362C32.5823 19.4403 33.0424 20.1135 33.3706 20.9191V20.9197C33.386 20.9568 33.4013 20.994 33.416 21.0317C33.416 21.0323 33.4167 21.033 33.4167 21.0336C33.5152 21.2877 33.5997 21.5552 33.6707 21.8373C33.7208 22.0373 33.7635 22.239 33.7987 22.442C33.8626 22.806 33.904 23.1736 33.9228 23.5427V23.5433C34.0182 25.335 33.6175 27.1402 33.0398 28.8789C32.9962 29.0097 32.9518 29.1402 32.9067 29.2705V29.2711C31.9392 32.0444 30.5774 34.6284 30.1404 36.6869C30.1398 36.6895 30.1391 36.6914 30.1391 36.6933C30.0597 37.0638 30.0117 37.4164 30.0009 37.7504C29.9913 38.0243 30.0079 38.2854 30.054 38.5324C30.0623 38.5778 30.0719 38.6226 30.0821 38.6668C30.0924 38.7116 30.1039 38.7551 30.1161 38.7986C30.1346 38.8636 30.1557 38.9279 30.1794 38.9912C30.1871 39.0123 30.1954 39.0328 30.2037 39.0539C30.2357 39.133 30.2718 39.2103 30.3118 39.2856C30.4251 39.5 30.5723 39.699 30.7566 39.882V39.8826L30.7757 39.9017C30.8122 39.9369 30.8481 39.9728 30.8832 40.0079C30.9901 40.1148 31.0938 40.2243 31.1942 40.3349V40.3356C31.2621 40.4098 31.3273 40.484 31.3913 40.5595C31.4878 40.6719 31.5814 40.7867 31.6722 40.9038V40.9044L31.7624 41.0215C31.8507 41.1385 31.9365 41.2573 32.0196 41.378V41.3786C32.1026 41.4985 32.1829 41.6203 32.2603 41.744V41.7446C32.3121 41.8262 32.3624 41.9088 32.4113 41.9922V41.9928C32.4542 42.0658 32.4964 42.1387 32.5374 42.2123C32.5991 42.3222 32.6586 42.4334 32.7159 42.5457C32.7351 42.5835 32.7536 42.6206 32.7728 42.6583C32.8106 42.7332 32.8464 42.8087 32.8823 42.8842C32.9021 42.9277 32.9226 42.9712 32.9424 43.0154C33.0167 43.1776 33.0867 43.3417 33.1524 43.5075C33.1741 43.5625 33.1959 43.6182 33.217 43.6733V43.6739C33.268 43.8063 33.316 43.9399 33.361 44.0745C33.3764 44.1193 33.3911 44.1641 33.4058 44.2089C33.4205 44.2536 33.4345 44.2984 33.4486 44.3432C33.5227 44.5773 33.5891 44.8138 33.6476 45.0523C33.6669 45.1316 33.686 45.2103 33.704 45.2897C33.7033 45.2903 33.704 45.2903 33.704 45.291C33.7756 45.6053 33.8349 45.9223 33.8819 46.2412C33.8812 46.2419 33.8812 46.2425 33.8819 46.2425C33.8959 46.3327 33.9081 46.4224 33.919 46.5126C33.9183 46.5132 33.9183 46.5132 33.919 46.5139C33.9273 46.5817 33.9356 46.6495 33.9427 46.7167C33.9503 46.7846 33.9567 46.8518 33.9631 46.9196C33.9836 47.1365 33.9983 47.3528 34.0073 47.5678C34.0098 47.6184 34.0118 47.6689 34.0131 47.7188C34.015 47.7713 34.0163 47.8231 34.0169 47.8749C34.0182 47.9165 34.0188 47.9581 34.0188 47.9998C34.0195 48.0183 34.0195 48.0375 34.0195 48.0561Z" fill="#FFA01F"/>
<path d="M22.0475 29.5294C21.6188 30.2367 20.417 30.4716 19.4986 30.545C19.6017 30.3318 19.6211 30.1163 19.5342 29.888C19.5147 29.8367 19.4958 29.7859 19.478 29.7357C20.5568 30.0456 21.4919 29.9021 22.0475 29.5294ZM19.7313 33.4877C18.8862 32.5642 17.6216 32.7742 16.7955 32.8023C17.8435 32.041 19.1902 31.1524 19.4872 30.5688C20.0709 31.0137 20.769 31.6314 20.8651 32.1065C21.0341 32.9412 20.5957 34.4323 19.7313 33.4877ZM34.0169 48.1178C34.0169 48.1697 34.0169 48.2215 34.0163 48.2727V48.2804C34.0144 48.3796 34.0125 48.4787 34.0086 48.5766C34.0086 48.5843 34.008 48.5913 34.008 48.599C34.0048 48.678 34.001 48.7569 33.9965 48.8358C33.9459 48.8557 33.8953 48.8755 33.8448 48.8941C33.4186 47.2149 32.2309 43.1848 30.5627 42.8181C28.4498 42.3536 25.0416 44.3674 21.3507 47.3186C20.4151 48.0667 19.3145 48.7258 18.2542 49.1525H18.2535C18.2503 49.0931 18.2465 49.0335 18.2426 48.9727C18.2111 48.5246 18.1579 48.0783 18.0833 47.6353C18.073 47.5756 18.0547 47.5175 18.0289 47.4626C18.0123 47.4276 17.9937 47.3937 17.9732 47.3608C17.9591 47.3378 17.9438 47.3154 17.9271 47.293C17.9265 47.2924 17.9258 47.2917 17.9258 47.2911C17.9175 47.2803 17.9098 47.2693 17.9015 47.2591C17.8746 47.2252 17.8458 47.1913 17.8151 47.1574C17.8042 47.1458 17.794 47.1344 17.7831 47.1234C17.7722 47.1119 17.7607 47.1004 17.7492 47.0889C17.2276 46.5674 16.191 46.0055 15.2273 45.0738H15.2267C15.2222 45.0693 15.2171 45.0649 15.212 45.0591C15.1697 45.0188 15.1282 44.9765 15.0859 44.9343C18.2182 44.4582 22.8831 39.9232 25.3481 37.306C26.7603 35.4381 24.2667 33.6099 21.9425 33.2406C23.6159 32.8689 24.8503 33.4083 25.7148 33.9241C25.9848 34.0847 26.2702 34.1109 26.5236 34.0418C27.0829 33.8908 27.4873 33.279 27.2294 32.6366C27.2243 32.6225 27.2185 32.6084 27.2128 32.5943C27.1987 32.522 27.1891 32.4797 27.1891 32.4797C26.3086 32.474 25.6124 32.2046 25.3865 32.1061C25.3443 32.0881 25.3186 32.076 25.3116 32.0721C25.3346 32.0811 25.3577 32.0894 25.3814 32.0971C26.1486 32.3613 27.2909 32.1451 27.2909 31.6881C27.2908 31.6622 27.2874 31.6364 27.2806 31.6113C26.3214 31.7233 25.5273 31.5314 24.9028 31.237C23.7752 30.7072 23.1999 29.8458 23.1999 29.8458C23.6786 30.1517 24.1092 30.3622 24.4971 30.4966C26.1467 31.0693 27.0144 30.265 27.4246 29.538L27.7337 25.0908V25.0889L27.7766 24.4663L27.7791 24.4375H28.6187L32.9406 28.7831L33.0372 28.8798C32.9936 29.0106 32.9493 29.1411 32.9041 29.2714V29.272C31.9366 32.0453 30.5748 34.6293 30.1378 36.6878C30.1372 36.6904 30.1365 36.6923 30.1365 36.6942C30.0572 37.0647 30.0092 37.4173 29.9983 37.7513C29.9887 38.0252 30.0054 38.2863 30.0514 38.5333C30.0597 38.5787 30.0687 38.6235 30.0796 38.6677C30.0898 38.7125 30.1013 38.756 30.1135 38.7995C30.132 38.8645 30.1531 38.9288 30.1768 38.9921C30.1845 39.0132 30.1928 39.0337 30.2011 39.0548C30.2329 39.1339 30.2688 39.2112 30.3086 39.2865C30.4219 39.5009 30.5684 39.6992 30.754 39.8829V39.8835L30.7732 39.9027C30.8097 39.9378 30.8455 39.9737 30.8807 40.0089C30.9867 40.1157 31.0903 40.2247 31.1917 40.3358V40.3365C31.2584 40.4102 31.3241 40.4849 31.3888 40.5604C31.4847 40.6733 31.5783 40.7881 31.6697 40.9047V40.9053L31.7599 41.0224C31.8481 41.1395 31.9338 41.2583 32.0171 41.3789V41.3795C32.0996 41.4998 32.1798 41.6216 32.2577 41.7449V41.7455C32.3091 41.8274 32.3594 41.91 32.4088 41.9931V41.9937C32.4517 42.0667 32.4939 42.1396 32.5348 42.2132C32.5961 42.3234 32.6556 42.4345 32.7134 42.5466C32.7326 42.5844 32.7511 42.6215 32.7703 42.6592C32.8074 42.7342 32.8439 42.8095 32.8797 42.8851C32.8996 42.9286 32.9201 42.9721 32.9399 43.0163C33.0139 43.1786 33.0839 43.3427 33.1498 43.5084C33.1716 43.5634 33.1934 43.6191 33.2145 43.6742V43.6748C33.2649 43.8074 33.3129 43.941 33.3584 44.0754C33.3738 44.1202 33.3885 44.165 33.4032 44.2098C33.4179 44.2545 33.432 44.2993 33.4461 44.3441C33.5193 44.5785 33.5856 44.8149 33.6451 45.0532C33.6643 45.1325 33.6835 45.2112 33.7014 45.2906C33.7008 45.2912 33.7014 45.2912 33.7014 45.2919C33.7724 45.6063 33.8317 45.9233 33.8793 46.2421C33.8787 46.2428 33.8787 46.2434 33.8793 46.2434C33.8921 46.3336 33.905 46.4239 33.9164 46.5135C33.9158 46.5141 33.9158 46.5141 33.9164 46.5148C33.9248 46.5826 33.9331 46.6504 33.9401 46.7176C33.9478 46.7855 33.9542 46.8527 33.9606 46.9205C33.9811 47.1374 33.9958 47.3537 34.0048 47.5687C34.0073 47.6193 34.0092 47.6698 34.0105 47.7197C34.0125 47.7722 34.0138 47.824 34.0144 47.8758C34.0157 47.9174 34.0163 47.959 34.0163 48.0007C34.0169 48.0397 34.0169 48.0788 34.0169 48.1178Z" fill="#F58931"/>
<path d="M31.8501 18.6239C29.7174 17.5015 26.0383 21.9856 23.7987 21.7323C23.5573 21.7048 23.3613 21.6643 23.2031 21.6124C23.2767 21.5439 23.3498 21.4748 23.4223 21.4051C23.9779 20.87 24.5292 20.274 25.0383 19.5769C26.2451 17.9253 25.7515 16.8897 25.2845 16.3282C25.0113 15.9993 24.7473 15.8336 24.8412 15.8023L26.7283 13.3516C27.9734 15.6618 30.206 16.8643 31.8501 18.6239Z" fill="#FFD6C9"/>
<path d="M31.8501 18.622C29.7174 17.4996 26.0383 21.9837 23.7987 21.7304C23.5573 21.7029 23.3613 21.6624 23.2031 21.6105C23.2767 21.542 23.3498 21.4729 23.4223 21.4032C23.4612 21.413 23.4992 21.4331 23.5395 21.4346C25.0783 21.4886 29.7278 18.8686 28.0243 18.202C27.0524 17.8217 26.8834 15.1385 25.6263 16.2372C25.5371 16.3152 25.3996 16.3052 25.2845 16.3262C25.0113 15.9974 24.7473 15.8316 24.8412 15.8004L26.7283 13.3496C27.9734 15.6599 30.206 16.8624 31.8501 18.622Z" fill="#F0BFAE"/>
<path d="M17.6475 9.25279C17.3434 9.91992 17.6806 12.343 18.636 13.9464C19.2562 14.9872 20.7833 17.9607 22.9022 17.3819C23.7747 17.1436 26.0854 15.9439 26.7334 13.3522C26.9512 12.8486 26.9205 12.3149 25.8214 11.5388C26.2651 10.9683 26.4557 8.97133 25.0291 8.74637C24.1231 8.60352 24.3952 10.0281 23.7755 10.2535C23.1556 10.4789 18.9433 10.6895 17.6475 9.25279Z" fill="#FFD6C9"/>
<path d="M17.5391 9.07016C17.8413 10.2946 19.071 11.2675 22.1134 11.021C23.4626 10.9116 24.6064 12.8802 24.6064 12.8802C24.7762 12.9818 24.8709 11.4475 24.0414 9.97018C24.0414 9.97018 19.6377 6.85172 17.5391 9.07016Z" fill="#523A23"/>
<path d="M32.0002 38.7611C31.2475 40.0585 23.3624 44.3844 20.8555 45.7375C20.3772 45.995 20.0947 46.1451 20.0947 46.1451C19.9961 46.237 19.893 46.324 19.7859 46.4059C19.0662 46.9582 18.0857 47.3783 17.5063 47.3108C15.4503 47.0711 14.9082 45.4254 15.1333 45.1344C15.3623 44.8385 17.38 45.184 19.2881 44.2052C19.2881 44.2052 22.5303 41.1756 25.0821 38.7568C26.5108 37.4032 27.7224 36.2407 28.028 35.9086C28.3346 35.5755 27.6889 30.8285 27.6927 26.719V26.7185C27.6948 24.3164 27.9189 22.1324 28.6856 21.1739C30.8124 18.5153 33.3241 19.6562 33.8613 22.2355C33.9016 22.429 33.9301 22.6248 33.9467 22.8218C34.1998 25.8011 33.8381 35.5917 32.0002 38.7611Z" fill="#FFD6C9"/>
<path d="M30.1656 36.6902C30.1656 36.6902 29.0674 36.8382 28.5388 36.5633C28.0496 36.309 26.5627 38.4131 25.0859 38.7565C26.5146 37.4029 27.7262 36.2404 28.0318 35.9084C28.3385 35.5752 27.6927 30.8282 27.6965 26.7188C27.7132 26.7771 28.9219 31.4712 28.6487 33.2967C28.3744 35.1353 29.1516 36.5844 30.1656 36.6902Z" fill="#F5C7B7"/>
<path d="M32.004 38.7619C31.2514 40.0594 23.3662 44.3853 20.8594 45.7383C23.5418 44.0548 30.4163 39.4289 31.2856 38.4661C32.6589 36.9449 32.6166 32.18 33.0602 27.4374C33.2909 24.9696 33.5159 23.2881 33.8652 22.2363C33.9055 22.4299 33.934 22.6257 33.9506 22.8227C34.2037 25.802 33.8419 35.5925 32.004 38.7619Z" fill="#F5C7B7"/>
<path d="M19.6167 30.0846C19.6167 30.0846 21.0914 30.8509 20.6266 32.5094C20.3086 33.6438 19.1153 32.0423 17.3686 32.3766C17.0067 31.4107 18.2392 29.5304 19.6167 30.0846Z" fill="#FFD6C9"/>
<path d="M24.5053 10.0901C24.3757 9.87904 24.3187 9.24499 24.9419 9.26614C25.5652 9.28729 25.6814 9.97037 25.6744 10.6253C25.6694 11.0925 25.3362 11.3174 25.1884 11.069C25.1046 10.9282 25.0837 10.7581 25.0483 10.6113C25.0227 10.5056 24.7517 10.4915 24.5053 10.0901Z" fill="#F0BFAE"/>
<path d="M33.4949 21.1824C33.4776 21.0009 33.436 20.7807 33.3626 20.5447C33.0813 19.643 32.3292 18.5151 30.657 18.4854C26.4839 18.4109 26.6977 12.8507 25.8203 11.5381C26.2917 11.5004 26.756 11.536 27.2128 11.638C29.427 12.1267 31.4528 14.1427 33.1552 16.6475C35.1562 19.5923 33.4949 21.1824 33.4949 21.1824Z" fill="#523A23"/>
<path d="M34.0188 24.8663C33.9477 22.9248 33.6239 19.6407 30.3734 19.3239C25.5367 18.8524 26.6977 12.8507 25.8203 11.5381C26.2917 11.5004 26.756 11.536 27.2128 11.638C27.4665 12.3798 27.3402 13.4301 27.7522 14.8171C29.0846 19.3027 33.8704 17.4596 34.5989 20.6338C35.1614 23.0846 34.0052 24.5964 34.0188 24.8663Z" fill="#3D2A18"/>
<path d="M25.2109 7.62566C26.6265 7.46042 29.7745 9.26796 29.9663 12.4496C30.152 15.5286 31.5915 16.1469 33.662 17.4568C33.662 17.4568 29.4237 16.4893 29.2252 13.3158C28.8968 8.06461 25.887 7.76675 25.2109 7.62566ZM36.8593 22.2371C36.8593 22.2371 38.5523 24.1423 37.8761 26.8467C37.2001 29.551 38.2301 30.5698 38.2301 30.5698C38.2301 30.5698 38.0002 28.8538 38.634 27.4593C39.2679 26.0649 38.7608 23.9658 36.8593 22.2371Z" fill="#3D2A18"/>
<path d="M43.0562 43.4152C43.2555 43.4152 43.4171 43.2536 43.4171 43.0543C43.4171 42.8549 43.2555 42.6934 43.0562 42.6934C42.8569 42.6934 42.6953 42.8549 42.6953 43.0543C42.6953 43.2536 42.8569 43.4152 43.0562 43.4152Z" fill="#00728D"/>
<path d="M43.5719 30.9308C43.7712 30.9308 43.9328 30.7692 43.9328 30.5699C43.9328 30.3706 43.7712 30.209 43.5719 30.209C43.3725 30.209 43.2109 30.3706 43.2109 30.5699C43.2109 30.7692 43.3725 30.9308 43.5719 30.9308Z" fill="#00728D"/>
<path d="M3.87654 29.5285C4.07586 29.5285 4.23744 29.3669 4.23744 29.1676C4.23744 28.9682 4.07586 28.8066 3.87654 28.8066C3.67721 28.8066 3.51562 28.9682 3.51562 29.1676C3.51562 29.3669 3.67721 29.5285 3.87654 29.5285Z" fill="#00728D"/>
<path d="M3.15388 40.2277C3.3532 40.2277 3.51479 40.0661 3.51479 39.8668C3.51479 39.6674 3.3532 39.5059 3.15388 39.5059C2.95455 39.5059 2.79297 39.6674 2.79297 39.8668C2.79297 40.0661 2.95455 40.2277 3.15388 40.2277Z" fill="#00728D"/>
<path d="M44.0392 40.6546C44.1342 40.6546 44.2113 40.5776 44.2113 40.4826C44.2113 40.3876 44.1342 40.3105 44.0392 40.3105C43.9442 40.3105 43.8672 40.3876 43.8672 40.4826C43.8672 40.5776 43.9442 40.6546 44.0392 40.6546Z" fill="#00728D"/>
<path d="M47.3361 43.2288C47.4311 43.2288 47.5081 43.1518 47.5081 43.0568C47.5081 42.9618 47.4311 42.8848 47.3361 42.8848C47.2411 42.8848 47.1641 42.9618 47.1641 43.0568C47.1641 43.1518 47.2411 43.2288 47.3361 43.2288Z" fill="#00728D"/>
<path d="M0.0978111 40.8226C0.19282 40.8226 0.269839 40.7456 0.269839 40.6505C0.269839 40.5555 0.19282 40.4785 0.0978111 40.4785C0.00280233 40.4785 -0.0742188 40.5555 -0.0742188 40.6505C-0.0742188 40.7456 0.00280233 40.8226 0.0978111 40.8226Z" fill="#00728D"/>
<path d="M46.7267 32.5452C46.8217 32.5452 46.8987 32.4682 46.8987 32.3732C46.8987 32.2782 46.8217 32.2012 46.7267 32.2012C46.6317 32.2012 46.5547 32.2782 46.5547 32.3732C46.5547 32.4682 46.6317 32.5452 46.7267 32.5452Z" fill="#00728D"/>
<path d="M4.91422 33.8343C5.00923 33.8343 5.08625 33.7573 5.08625 33.6623C5.08625 33.5673 5.00923 33.4902 4.91422 33.4902C4.81921 33.4902 4.74219 33.5673 4.74219 33.6623C4.74219 33.7573 4.81921 33.8343 4.91422 33.8343Z" fill="#00728D"/>
<path d="M9.96109 30.3812C10.0561 30.3812 10.1331 30.3041 10.1331 30.2091C10.1331 30.1141 10.0561 30.0371 9.96109 30.0371C9.86608 30.0371 9.78906 30.1141 9.78906 30.2091C9.78906 30.3041 9.86608 30.3812 9.96109 30.3812Z" fill="#00728D"/>
<path d="M6.31265 45.9085C6.40766 45.9085 6.48468 45.8315 6.48468 45.7365C6.48468 45.6415 6.40766 45.5645 6.31265 45.5645C6.21764 45.5645 6.14062 45.6415 6.14062 45.7365C6.14062 45.8315 6.21764 45.9085 6.31265 45.9085Z" fill="#00728D"/>
<path d="M8.34372 27.9505C8.06119 27.8019 7.66579 27.8457 7.46723 28.1293C7.25443 28.4333 7.40288 28.8522 7.42058 28.9L7.45434 28.9441L7.4199 28.9005C7.37856 28.8707 7.01454 28.6157 6.66472 28.7396C6.33836 28.8553 6.19059 29.2246 6.25828 29.5366C6.38236 30.1081 7.19307 30.316 7.2848 30.3395C7.83346 30.4801 8.2477 30.2573 8.39066 30.1676L8.39937 30.1621L8.40932 30.1526C8.53113 30.0353 8.83311 29.701 8.84329 29.1542C8.8451 29.0575 8.86071 28.2223 8.34372 27.9505ZM11.9351 13.2771C11.8183 13.1251 11.5917 13.0498 11.4122 13.1546C11.2198 13.2669 11.1956 13.5327 11.1933 13.5632L11.2006 13.5957L11.1928 13.5633C11.1777 13.5367 11.0432 13.3062 10.8213 13.286C10.6142 13.2671 10.4409 13.4314 10.3996 13.6186C10.3237 13.9614 10.7137 14.2783 10.7578 14.3142C11.0218 14.5286 11.3037 14.5111 11.4041 14.4981L11.4102 14.4973L11.418 14.4946C11.5139 14.4612 11.7625 14.3547 11.9054 14.059C11.9306 14.0067 12.1488 13.5551 11.9351 13.2771ZM43.2137 18.149C43.1991 17.958 43.0506 17.7709 42.843 17.7604C42.6204 17.7492 42.4548 17.9585 42.4361 17.9827L42.4245 18.0139L42.4357 17.9825C42.4377 17.952 42.4511 17.6854 42.2764 17.5471C42.1134 17.4181 41.8785 17.4608 41.7415 17.5948C41.4904 17.8404 41.6435 18.319 41.6609 18.3731C41.7645 18.697 42.0101 18.8366 42.1013 18.8806L42.1069 18.8832L42.1149 18.8853C42.2135 18.9098 42.4799 18.9566 42.7612 18.7872C42.8108 18.7574 43.2405 18.4988 43.2137 18.149ZM33.7596 3.71527C33.4467 3.65182 33.0794 3.80457 32.9682 4.13245C32.8491 4.48386 33.109 4.84443 33.1394 4.88537L33.1841 4.91828L33.1388 4.88605C33.0908 4.86897 32.6699 4.72618 32.3688 4.94317C32.088 5.14556 32.0496 5.54153 32.202 5.82203C32.4812 6.33596 33.3177 6.30837 33.4123 6.30526C33.9783 6.28654 34.3136 5.95662 34.4257 5.83045L34.4325 5.82271L34.4394 5.81083C34.5235 5.66408 34.7197 5.25849 34.5763 4.73082C34.551 4.63751 34.332 3.83143 33.7596 3.71527Z" fill="#FF9F99"/>
</g>
<defs>
<clipPath id="clip0_82_33861">
<rect width="48" height="48" rx="6.85714" fill="white"/>
</clipPath>
</defs>
</svg>
