<svg width="80" height="80" viewBox="0 0 80 80" fill="none" xmlns="http://www.w3.org/2000/svg">
<g clip-path="url(#clip0_82_35450)">
<path opacity="0.2" d="M37.1348 80.0003C36.3159 79.9996 35.4986 79.9278 34.6921 79.7859C31.2965 79.1864 28.2408 77.3569 26.1088 74.6469C23.9768 71.9369 22.918 68.5364 23.1348 65.0951L13.8494 63.4584C12.2223 63.1801 10.6681 62.576 9.28029 61.6821C7.89244 60.7883 6.69949 59.6233 5.77306 58.257C4.83449 56.9315 4.17122 55.4313 3.82246 53.8451C3.47371 52.2588 3.44655 50.6188 3.74259 49.0218C4.09658 47.0051 4.94339 45.107 6.20775 43.4963C7.4721 41.8857 9.11483 40.6125 10.9899 39.7897C10.9608 39.2508 10.9786 38.7103 11.0432 38.1745L13.5588 17.2585C13.749 15.1444 14.3705 13.0918 15.3848 11.2272C16.3991 9.36259 17.7847 7.72563 19.4562 6.41731C21.1276 5.10899 23.0494 4.15706 25.103 3.62025C27.1567 3.08345 29.2985 2.97317 31.3964 3.2962L31.693 3.34184L32.0748 3.43007C33.2222 3.71708 34.2908 4.25758 35.2019 5.01184C36.0488 4.70709 36.9421 4.55168 37.8422 4.5525H38.3897L39.2111 4.6725L43.8377 5.48774C45.1825 5.72255 46.4412 6.30864 47.4865 7.18664C48.3382 6.87755 49.2375 6.72002 50.1436 6.7212H50.6911L51.5124 6.84137L63.5932 8.97067C65.7365 9.34876 67.7767 10.1722 69.582 11.3879C71.3872 12.6035 72.9174 14.1843 74.0737 16.0282C75.2299 17.872 75.9866 19.9379 76.2948 22.0924C76.6029 24.2469 76.4557 26.442 75.8627 28.5361L71.1493 48.7631C71.0252 49.2911 70.8562 49.8075 70.6444 50.3068C71.2501 50.8938 71.7944 51.541 72.2688 52.2384C73.3058 53.7144 74.0044 55.401 74.3146 57.1779C74.6249 58.9549 74.5391 60.7784 74.0635 62.5184C73.3147 65.1888 71.7052 67.5373 69.485 69.1992C67.2647 70.8612 64.5579 71.7437 61.7848 71.7097C61.0256 71.7094 60.2678 71.6433 59.5201 71.512L50.5754 69.9332C49.7262 72.8397 47.957 75.3923 45.5334 77.2075C43.1098 79.0228 40.1628 80.0028 37.1348 80.0003Z" fill="#1A1A1A"/>
<path d="M37.1347 76.8851C36.3158 76.8843 35.4986 76.8126 34.6921 76.6707C31.2965 76.0712 28.2408 74.2418 26.1088 71.5318C23.9768 68.8218 22.918 65.4213 23.1347 61.98L13.8494 60.3433C12.2222 60.065 10.6681 59.4608 9.28031 58.5669C7.89249 57.6731 6.69958 56.508 5.77318 55.1417C4.83459 53.8162 4.1713 52.3161 3.82251 50.7299C3.47373 49.1436 3.44654 47.5036 3.74254 45.9067C4.09653 43.8899 4.94334 41.9918 6.2077 40.3812C7.47206 38.7706 9.11479 37.4973 10.9898 36.6746C10.9607 36.1356 10.9786 35.5952 11.0432 35.0593L13.5587 14.1433C13.9046 10.2794 15.6844 6.68482 18.5476 4.06726C21.4109 1.4497 25.1503 -0.00125149 29.0297 8.09959e-07C29.81 8.09959e-07 63.593 5.85563 63.593 5.85563C65.7364 6.2337 67.7766 7.05715 69.5818 8.2728C71.3871 9.48844 72.9173 11.0692 74.0735 12.9131C75.2298 14.7569 75.9865 16.8228 76.2946 18.9773C76.6028 21.1318 76.4556 23.3269 75.8625 25.421L71.1492 45.648C71.0251 46.176 70.8561 46.6925 70.6443 47.1918C71.25 47.7787 71.7943 48.426 72.2686 49.1234C73.3057 50.5993 74.0043 52.2859 74.3145 54.0629C74.6247 55.8398 74.539 57.6634 74.0633 59.4034C73.3145 62.0737 71.7051 64.4221 69.4849 66.0841C67.2646 67.746 64.5578 68.6285 61.7847 68.5945C61.0255 68.5942 60.2678 68.5281 59.52 68.3967L50.5754 66.818C49.7262 69.7245 47.9569 72.277 45.5334 74.0923C43.1098 75.9075 40.1627 76.8875 37.1347 76.8851Z" fill="#F2F2F2"/>
<path d="M68.0416 57.8077C67.5739 59.3397 66.5541 60.6436 65.1797 61.4664C63.8054 62.2893 62.1745 62.5726 60.6032 62.2614L45.606 59.6169L44.7946 64.2183C44.4328 66.2493 43.2799 68.0537 41.589 69.2355C39.8981 70.4173 37.8074 70.8798 35.7758 70.5216C33.7442 70.1634 31.9378 69.0136 30.753 67.3248C29.5683 65.636 29.1021 63.5461 29.4568 61.5138L30.2681 56.9125L14.9302 54.208C13.3086 53.9102 11.8694 52.9861 10.9238 51.6356C9.97818 50.2851 9.60208 48.6167 9.87683 46.9911C10.1558 45.4699 10.9867 44.1054 12.2102 43.1595C13.4336 42.2135 14.9633 41.7528 16.5057 41.8657C16.7034 41.8734 16.9001 41.8975 17.0938 41.9377L63.1073 50.0511C63.303 50.0795 63.4961 50.1241 63.6845 50.1844C65.0875 50.5506 66.3076 51.4184 67.1139 52.6235C67.645 53.3639 68.004 54.2136 68.1645 55.1106C68.325 56.0075 68.283 56.929 68.0416 57.8077ZM19.782 39.2488L61.5008 46.605C62.2877 46.7394 63.0962 46.5687 63.7616 46.1277C64.4271 45.6868 64.8993 45.0087 65.0822 44.2316L69.8684 23.7257C70.2242 22.4699 70.3127 21.1535 70.128 19.8613C69.9434 18.5692 69.4898 17.3302 68.7965 16.2243C68.1032 15.1185 67.1857 14.1703 66.1031 13.4411C65.0206 12.7119 63.7971 12.2178 62.5118 11.9909L50.4255 9.85976C50.2239 9.82216 50.0168 9.82515 49.8164 9.86855C49.6159 9.91196 49.4261 9.9949 49.2581 10.1125C49.0901 10.2302 48.9473 10.3801 48.8379 10.5537C48.7286 10.7272 48.6549 10.9208 48.6213 11.1231L47.81 15.7245C47.6982 16.3325 47.3517 16.8721 46.8452 17.2267C46.3388 17.5813 45.7132 17.7224 45.1036 17.6195C44.8413 17.5696 44.5905 17.4717 44.3636 17.3309C43.9451 17.0964 43.6094 16.7381 43.4026 16.3052C43.1958 15.8723 43.128 15.386 43.2085 14.9131L44.0198 10.3118C44.0575 10.1101 44.0545 9.90303 44.0111 9.70257C43.9677 9.50212 43.8847 9.31233 43.7671 9.14431C43.6495 8.9763 43.4995 8.83345 43.326 8.7241C43.1524 8.61476 42.9588 8.54113 42.7565 8.50753L38.1244 7.69086C37.9228 7.65326 37.7157 7.65625 37.5153 7.69965C37.3148 7.74305 37.125 7.826 36.957 7.94364C36.789 8.06128 36.6462 8.21125 36.5368 8.38477C36.4275 8.55829 36.3538 8.75187 36.3202 8.95419L33.8862 22.7583C33.8336 23.0611 33.7219 23.3505 33.5573 23.6101C33.3927 23.8696 33.1785 24.0942 32.927 24.2708C32.6755 24.4474 32.3916 24.5727 32.0916 24.6394C31.7916 24.7062 31.4814 24.713 31.1787 24.6597C30.876 24.6063 30.5869 24.4937 30.3278 24.3284C30.0687 24.1631 29.8448 23.9483 29.6688 23.6963C29.4929 23.4443 29.3684 23.1601 29.3025 22.8599C29.2366 22.5597 29.2306 22.2494 29.2848 21.9469L30.5018 15.0449L31.7189 8.14286C31.7921 7.75128 31.7112 7.34654 31.4929 7.0133C31.2746 6.68007 30.9359 6.44414 30.5476 6.35489L30.4555 6.33863C29.1828 6.14302 27.8834 6.21328 26.6392 6.54499C25.395 6.87671 24.233 7.46266 23.2266 8.26591C22.2202 9.06915 21.3912 10.0722 20.7918 11.2119C20.1924 12.3516 19.8358 13.6031 19.7443 14.8875L17.2283 35.7937C17.1344 36.5864 17.3463 37.3851 17.8207 38.0271C18.2952 38.669 18.9966 39.1059 19.782 39.2488Z" fill="#50B36F"/>
</g>
<defs>
<clipPath id="clip0_82_35450">
<rect width="80" height="80" fill="white"/>
</clipPath>
</defs>
</svg>
