<svg width="96" height="96" viewBox="0 0 96 96" fill="none" xmlns="http://www.w3.org/2000/svg">
<path opacity="0.2" d="M89.5862 78.9348C87.3225 81.9763 84.4737 84.5346 81.2071 86.4593C77.9406 88.384 74.3223 89.6364 70.5648 90.1428L40.5895 95.4299C38.5138 95.8015 36.4097 95.9921 34.3009 95.9997C20.24 95.9997 10.2838 87.1708 7.67397 72.3837L2.39029 42.4046C1.58074 38.7012 1.51992 34.8732 2.21142 31.1459C2.90291 27.4186 4.33276 23.8672 6.41685 20.7006C8.67942 17.6587 11.5275 15.0999 14.7935 13.1748C18.0595 11.2497 21.6775 9.99717 25.4347 9.4909L55.4137 4.20562C57.4905 3.83385 59.5957 3.64317 61.7055 3.63574C75.7665 3.63574 85.7193 12.4629 88.3291 27.2501L93.6126 57.2309C94.4221 60.9343 94.4829 64.7622 93.7914 68.4895C93.0999 72.2168 91.6702 75.7682 89.5862 78.9348Z" fill="#1A1A1A"/>
<path d="M89.5862 75.2991C87.3225 78.3406 84.4737 80.8988 81.2071 82.8236C77.9406 84.7483 74.3223 86.0007 70.5648 86.5071L40.5895 91.7941C38.5138 92.1658 36.4098 92.3564 34.3011 92.364C20.2402 92.364 10.2838 83.5351 7.67396 68.748L2.39028 38.7689C1.58074 35.0655 1.51993 31.2375 2.21142 27.5102C2.90291 23.7829 4.33275 20.2315 6.41684 17.0649C8.67941 14.023 11.5275 11.4642 14.7935 9.53907C18.0595 7.61399 21.6775 6.36147 25.4347 5.8552L55.4137 0.56988C57.4905 0.198126 59.5957 0.00744912 61.7055 0C75.7665 0 85.7192 8.82716 88.3291 23.6143L93.6126 53.5951C94.4221 57.2986 94.4829 61.1265 93.7914 64.8538C93.1 68.581 91.6702 72.1324 89.5862 75.2991Z" fill="#F2F2F2"/>
<path d="M56.6753 7.73133L26.6971 13.0173C13.663 15.3155 7.25112 24.4705 9.54968 37.5064L14.8356 67.4845C17.1342 80.5202 26.2906 86.9302 39.3248 84.632L69.3029 79.346C82.3373 77.0477 88.7489 67.8926 86.4504 54.8569L81.1642 24.8788C78.8658 11.8428 69.7097 5.43301 56.6753 7.73133ZM45.573 64.0374C44.5127 65.5581 42.9601 66.6663 41.1774 67.1748L36.4322 68.5613C35.819 68.737 35.1743 68.7731 34.5453 68.6671C33.9163 68.5611 33.319 68.3156 32.7973 67.9486C32.2756 67.5816 31.8427 67.1024 31.5303 66.5463C31.218 65.9902 31.0341 65.3711 30.9922 64.7346L30.6686 59.7818C30.5393 57.7872 31.1451 55.8143 32.3715 54.2359C33.5979 52.6575 35.3599 51.583 37.3246 51.2154C38.3986 50.9082 39.5316 50.8696 40.624 51.1031C41.7164 51.3367 42.7346 51.8352 43.589 52.5548C44.5395 53.0849 45.3445 53.8415 45.9323 54.7575C46.5201 55.6735 46.8727 56.7204 46.9587 57.8054C47.155 58.8841 47.1335 59.9911 46.8955 61.0614C46.6576 62.1317 46.2079 63.1435 45.573 64.0374ZM64.6715 26.8222C62.3282 35.4163 58.5055 43.5364 53.3748 50.8182C52.5357 48.3988 50.9419 46.3126 48.8282 44.8669C46.7145 43.4211 44.1925 42.6921 41.6334 42.7872C46.7464 35.4319 53.0946 29.0176 60.3966 23.8287C60.8674 23.54 61.4118 23.3942 61.9639 23.4089C62.5159 23.4236 63.0518 23.5982 63.5066 23.9115C63.9727 24.2216 64.3338 24.6659 64.5418 25.1857C64.7498 25.7054 64.795 26.2762 64.6715 26.8222Z" fill="#2182F0"/>
</svg>
