<svg width="80" height="81" viewBox="0 0 80 81" fill="none" xmlns="http://www.w3.org/2000/svg">
<g clip-path="url(#clip0_119_34496)">
<path opacity="0.2" d="M37.1348 80.3929C36.3159 80.3922 35.4986 80.3204 34.6921 80.1784C31.2965 79.579 28.2408 77.7495 26.1088 75.0395C23.9768 72.3295 22.918 68.929 23.1348 65.4877L13.8494 63.851C12.2223 63.5727 10.6681 62.9685 9.28029 62.0747C7.89244 61.1809 6.69949 60.0159 5.77306 58.6496C4.83449 57.3241 4.17122 55.8239 3.82246 54.2377C3.47371 52.6514 3.44655 51.0113 3.74259 49.4144C4.09658 47.3976 4.94339 45.4996 6.20775 43.8889C7.4721 42.2783 9.11483 41.005 10.9899 40.1823C10.9608 39.6434 10.9786 39.1029 11.0432 38.567L13.5588 17.651C13.749 15.537 14.3705 13.4843 15.3848 11.6197C16.3991 9.75516 17.7847 8.11821 19.4562 6.80989C21.1276 5.50157 23.0494 4.54963 25.103 4.01283C27.1567 3.47603 29.2985 3.36575 31.3964 3.68878L31.693 3.73442L32.0748 3.82265C33.2222 4.10966 34.2908 4.65015 35.2019 5.40442C36.0488 5.09967 36.9421 4.94425 37.8422 4.94508H38.3897L39.2111 5.06508L43.8377 5.88032C45.1825 6.11513 46.4412 6.70122 47.4865 7.57922C48.3382 7.27012 49.2375 7.1126 50.1436 7.11378H50.6911L51.5124 7.23395L63.5932 9.36325C65.7365 9.74133 67.7767 10.5648 69.582 11.7804C71.3872 12.9961 72.9174 14.5769 74.0737 16.4207C75.2299 18.2646 75.9866 20.3305 76.2948 22.485C76.6029 24.6394 76.4557 26.8346 75.8627 28.9286L71.1493 49.1556C71.0252 49.6836 70.8562 50.2001 70.6444 50.6994C71.2501 51.2864 71.7944 51.9336 72.2688 52.631C73.3058 54.1069 74.0044 55.7935 74.3146 57.5705C74.6249 59.3475 74.5391 61.171 74.0635 62.911C73.3147 65.5814 71.7052 67.9299 69.485 69.5918C67.2647 71.2538 64.5579 72.1363 61.7848 72.1022C61.0256 72.102 60.2678 72.0358 59.5201 71.9045L50.5754 70.3258C49.7262 73.2323 47.957 75.7848 45.5334 77.6001C43.1098 79.4154 40.1628 80.3953 37.1348 80.3929Z" fill="#1A1A1A"/>
<path d="M37.1347 77.2777C36.3158 77.2769 35.4986 77.2052 34.6921 77.0632C31.2965 76.4638 28.2408 74.6343 26.1088 71.9243C23.9768 69.2144 22.918 65.8139 23.1347 62.3726L13.8494 60.7359C12.2222 60.4576 10.6681 59.8533 9.28031 58.9595C7.89249 58.0656 6.69958 56.9006 5.77318 55.5343C4.83459 54.2088 4.1713 52.7086 3.82251 51.1224C3.47373 49.5362 3.44654 47.8962 3.74254 46.2992C4.09653 44.2825 4.94334 42.3844 6.2077 40.7738C7.47206 39.1631 9.11479 37.8899 10.9898 37.0671C10.9607 36.5282 10.9786 35.9878 11.0432 35.4519L13.5587 14.5359C13.9046 10.6719 15.6844 7.0774 18.5476 4.45984C21.4109 1.84228 25.1503 0.391327 29.0297 0.392579C29.81 0.392579 63.593 6.24821 63.593 6.24821C65.7364 6.62628 67.7766 7.44973 69.5818 8.66537C71.3871 9.88102 72.9173 11.4618 74.0735 13.3057C75.2298 15.1495 75.9865 17.2154 76.2946 19.3699C76.6028 21.5244 76.4556 23.7195 75.8625 25.8136L71.1492 46.0406C71.0251 46.5686 70.8561 47.085 70.6443 47.5843C71.25 48.1713 71.7943 48.8185 72.2686 49.5159C73.3057 50.9919 74.0043 52.6785 74.3145 54.4554C74.6247 56.2324 74.539 58.0559 74.0633 59.7959C73.3145 62.4663 71.7051 64.8147 69.4849 66.4766C67.2646 68.1386 64.5578 69.021 61.7847 68.987C61.0255 68.9868 60.2678 68.9206 59.52 68.7893L50.5754 67.2106C49.7262 70.1171 47.9569 72.6696 45.5334 74.4849C43.1098 76.3001 40.1627 77.2801 37.1347 77.2777Z" fill="#F2F2F2"/>
<path d="M68.0416 58.2003C67.5739 59.7323 66.5541 61.0361 65.1797 61.859C63.8054 62.6819 62.1745 62.9652 60.6032 62.6539L45.606 60.0095L44.7946 64.6109C44.4328 66.6418 43.2799 68.4463 41.589 69.6281C39.8981 70.8098 37.8074 71.2724 35.7758 70.9142C33.7442 70.5559 31.9378 69.4062 30.753 67.7174C29.5683 66.0286 29.1021 63.9386 29.4568 61.9064L30.2681 57.305L14.9302 54.6006C13.3086 54.3028 11.8694 53.3787 10.9238 52.0282C9.97818 50.6777 9.60208 49.0092 9.87683 47.3836C10.1558 45.8625 10.9867 44.498 12.2102 43.5521C13.4336 42.6061 14.9633 42.1454 16.5057 42.2583C16.7034 42.266 16.9001 42.2901 17.0938 42.3303L63.1073 50.4436C63.303 50.472 63.4961 50.5166 63.6845 50.577C65.0875 50.9432 66.3076 51.8109 67.1139 53.016C67.645 53.7565 68.004 54.6062 68.1645 55.5032C68.325 56.4001 68.283 57.3216 68.0416 58.2003ZM19.782 39.6414L61.5008 46.9975C62.2877 47.132 63.0962 46.9613 63.7616 46.5203C64.4271 46.0793 64.8993 45.4013 65.0822 44.6242L69.8684 24.1183C70.2242 22.8625 70.3127 21.546 70.128 20.2539C69.9434 18.9618 69.4898 17.7228 68.7965 16.6169C68.1032 15.511 67.1857 14.5629 66.1031 13.8337C65.0206 13.1045 63.7971 12.6104 62.5118 12.3835L50.4255 10.2523C50.2239 10.2147 50.0168 10.2177 49.8164 10.2611C49.6159 10.3045 49.4261 10.3875 49.2581 10.5051C49.0901 10.6228 48.9473 10.7727 48.8379 10.9462C48.7286 11.1198 48.6549 11.3133 48.6213 11.5157L47.81 16.117C47.6982 16.7251 47.3517 17.2647 46.8452 17.6193C46.3388 17.9739 45.7132 18.115 45.1036 18.012C44.8413 17.9622 44.5905 17.8643 44.3636 17.7235C43.9451 17.489 43.6094 17.1307 43.4026 16.6978C43.1958 16.2649 43.128 15.7786 43.2085 15.3057L44.0198 10.7043C44.0575 10.5027 44.0545 10.2956 44.0111 10.0952C43.9677 9.89469 43.8847 9.7049 43.7671 9.53689C43.6495 9.36888 43.4995 9.22602 43.326 9.11668C43.1524 9.00734 42.9588 8.93371 42.7565 8.9001L38.1244 8.08344C37.9228 8.04584 37.7157 8.04882 37.5153 8.09223C37.3148 8.13563 37.125 8.21858 36.957 8.33622C36.789 8.45386 36.6462 8.60383 36.5368 8.77735C36.4275 8.95086 36.3538 9.14445 36.3202 9.34677L33.8862 23.1508C33.8336 23.4537 33.7219 23.7431 33.5573 24.0027C33.3927 24.2622 33.1785 24.4867 32.927 24.6634C32.6755 24.84 32.3916 24.9653 32.0916 25.032C31.7916 25.0987 31.4814 25.1056 31.1787 25.0522C30.876 24.9989 30.5869 24.8863 30.3278 24.721C30.0687 24.5557 29.8448 24.3409 29.6688 24.0889C29.4929 23.8369 29.3684 23.5526 29.3025 23.2525C29.2366 22.9523 29.2306 22.642 29.2848 22.3395L30.5018 15.4375L31.7189 8.53544C31.7921 8.14386 31.7112 7.73912 31.4929 7.40588C31.2746 7.07264 30.9359 6.83672 30.5476 6.74747L30.4555 6.7312C29.1828 6.53559 27.8834 6.60586 26.6392 6.93757C25.395 7.26928 24.233 7.85524 23.2266 8.65848C22.2202 9.46173 21.3912 10.4648 20.7918 11.6045C20.1924 12.7442 19.8358 13.9957 19.7443 15.2801L17.2283 36.1862C17.1344 36.979 17.3463 37.7777 17.8207 38.4196C18.2952 39.0616 18.9966 39.4985 19.782 39.6414Z" fill="#E41C11"/>
</g>
<defs>
<clipPath id="clip0_119_34496">
<rect width="80" height="80" fill="white" transform="translate(0 0.392578)"/>
</clipPath>
</defs>
</svg>
