<svg width="80" height="80" viewBox="0 0 80 80" fill="none" xmlns="http://www.w3.org/2000/svg">
<path d="M9.48901 7.6561C9.46549 6.55334 9.27707 5.1551 10.0599 4.31881C10.4509 3.90079 10.9949 3.65956 11.5672 3.65046C12.1586 3.63557 12.7305 3.86251 13.1507 4.27885C14.0358 5.14562 13.7525 6.5252 13.7851 7.65826L19.8952 7.66152C19.954 7.53827 19.9312 7.18473 19.9282 7.03365C19.907 5.83821 19.7848 4.63279 20.9963 3.93495C22.0273 3.3412 23.4023 3.70426 23.9541 4.75263C24.3437 5.49262 24.2429 6.80793 24.2276 7.64902C25.8885 7.68571 27.6352 7.65748 29.3063 7.65748L38.7129 7.65704L49.8376 7.65595C51.8026 7.65573 53.8281 7.68015 55.7892 7.64977C55.7674 6.56242 55.584 5.13459 56.3613 4.31445C56.7643 3.88985 57.3245 3.64999 57.9098 3.65129C58.5082 3.64948 59.0371 3.87157 59.4696 4.29092C60.2817 5.07812 60.0709 6.54909 60.0793 7.6496C62.0243 7.69935 64.2456 7.57501 66.1446 7.66371L66.172 7.66548C66.4577 7.32776 65.6779 5.17929 67.0432 4.10349C67.371 3.84392 67.769 3.6881 68.1859 3.65598C68.7712 3.60704 69.3513 3.79781 69.7932 4.1846C70.7799 5.04592 70.5112 6.4626 70.5229 7.64804C71.2343 7.66924 71.9415 7.65023 72.652 7.65313C72.9562 7.65438 73.5095 7.63931 73.7985 7.68946C75.2127 7.78057 76.3293 8.30729 77.276 9.37937C77.849 10.038 78.2302 10.8413 78.3782 11.7017C78.4824 12.2925 78.4474 13.6699 78.4471 14.3324L78.446 18.8956L78.4473 24.4851C78.4485 25.3524 78.4531 26.2398 78.4562 27.1087C78.4562 27.1195 78.4467 27.1937 78.4451 27.2074L78.4462 58.4342L78.446 67.6478L78.4504 70.3134C78.4513 70.861 78.4734 71.5907 78.4043 72.1168C78.2627 73.1709 77.787 74.1518 77.0467 74.9154C76.004 75.9839 74.6657 76.3982 73.2045 76.4064L27.2915 76.4048L12.8557 76.4053L8.57487 76.406C6.47023 76.4068 4.64417 76.5906 3.01381 74.9564C2.26929 74.2148 1.78482 73.2521 1.63284 72.2123C1.54127 71.5685 1.55999 70.8006 1.5605 70.1412L1.56123 67.5484L1.56212 58.5799L1.55997 26.7543L1.56404 16.6967L1.56125 14.0136C1.55927 12.0643 1.50943 10.6729 2.95409 9.14957C4.71965 7.28785 7.1627 7.67884 9.48901 7.6561Z" fill="#DFE0FD"/>
<path d="M9.48763 7.6561C9.46412 6.55334 9.27569 5.1551 10.0586 4.31881C10.4495 3.90079 10.9935 3.65956 11.5658 3.65046C12.1572 3.63557 12.7291 3.86251 13.1494 4.27885C14.0344 5.14562 13.7512 6.5252 13.7838 7.65826L19.8939 7.66152C19.9526 7.53827 19.9298 7.18473 19.9268 7.03365C19.9056 5.83821 19.7834 4.63279 20.995 3.93495C22.0259 3.3412 23.4009 3.70426 23.9528 4.75263C24.3423 5.49262 24.2415 6.80793 24.2262 7.64902C25.8871 7.68571 27.6339 7.65748 29.305 7.65748L38.7115 7.65704L49.8362 7.65595C51.8012 7.65573 53.8267 7.68015 55.7878 7.64977C55.7661 6.56242 55.5826 5.13459 56.36 4.31445C56.7629 3.88985 57.3231 3.64999 57.9084 3.65129C58.5068 3.64948 59.0357 3.87157 59.4682 4.29092C60.2803 5.07812 60.0695 6.54909 60.0779 7.6496C62.0229 7.69935 64.2442 7.57501 66.1432 7.66371L66.1706 7.66548C66.4564 7.32776 65.6765 5.17929 67.0418 4.10349C67.3696 3.84392 67.7676 3.6881 68.1845 3.65598C68.7698 3.60704 69.35 3.79781 69.7918 4.1846C70.7786 5.04592 70.5098 6.4626 70.5215 7.64804C71.2329 7.66924 71.9401 7.65023 72.6506 7.65313C72.9548 7.65438 73.5081 7.63931 73.7971 7.68946C75.2114 7.78057 76.3279 8.30729 77.2746 9.37937C77.8476 10.038 78.2289 10.8413 78.3768 11.7017C78.4811 12.2925 78.4461 13.6699 78.4457 14.3324L78.4446 18.8956L78.4459 24.4851C78.4471 25.3524 78.4517 26.2398 78.4548 27.1087C78.4548 27.1195 78.4453 27.1937 78.4437 27.2074C78.4404 27.0537 78.4398 26.9914 78.4128 26.8417C78.3256 26.7743 76.4701 26.7971 76.1698 26.7956L62.2979 26.7587L1.55859 26.7543L1.56266 16.6967L1.55988 14.0136C1.55789 12.0643 1.50805 10.6729 2.95271 9.14957C4.71827 7.28785 7.16132 7.67884 9.48763 7.6561Z" fill="#8C64D5"/>
<path d="M19.8945 7.66201C19.9533 7.53876 19.9305 7.18521 19.9275 7.03413C19.9063 5.83869 19.7841 4.63327 20.9956 3.93543C22.0266 3.34168 23.4016 3.70474 23.9534 4.75311C24.343 5.4931 24.2422 6.80841 24.2269 7.64951C25.8878 7.68619 27.6345 7.65796 29.3056 7.65796L38.7122 7.65752L49.8369 7.65643C51.8019 7.65621 53.8273 7.68063 55.7884 7.65026C55.7667 6.5629 55.5833 5.13507 56.3606 4.31493C56.7636 3.89033 57.3237 3.65047 57.9091 3.65177C58.5075 3.64996 59.0364 3.87205 59.4689 4.2914C60.2809 5.0786 60.0702 6.54957 60.0786 7.65008C62.0236 7.69983 64.2448 7.57549 66.1439 7.66419C65.8178 7.70971 64.4527 7.69011 64.0502 7.68797C62.7342 7.68099 61.3808 7.70815 60.0689 7.68468C60.0687 9.83407 60.0272 12.1301 60.077 14.2672C60.0422 15.3737 60.1736 16.8436 59.9838 17.9018C59.7058 19.4509 57.5933 20.0611 56.4253 18.9048C56.1675 18.6468 55.9819 18.3256 55.8869 17.9734C55.7248 17.3929 55.7847 14.9979 55.7833 14.2521L55.7853 7.68693L24.2164 7.69041C24.2055 9.8611 24.207 12.0318 24.2211 14.2025C24.2102 15.0303 24.2859 17.3486 24.1047 18.0009C24.0086 18.354 23.818 18.6742 23.5537 18.9271C23.1284 19.3292 22.5564 19.5387 21.972 19.5064C21.3952 19.4831 20.8527 19.2251 20.4705 18.7921C20.2559 18.5493 20.1031 18.2584 20.0247 17.944C19.8575 17.2911 19.943 15.0864 19.9297 14.2709C19.9439 13.6214 19.9645 7.83938 19.8945 7.66201Z" fill="#484747"/>
<path d="M66.1719 7.66548C66.4577 7.32776 65.6778 5.17929 67.0431 4.10349C67.3709 3.84392 67.7689 3.6881 68.1858 3.65598C68.7711 3.60704 69.3512 3.79781 69.7931 4.1846C70.7798 5.04592 70.5111 6.4626 70.5228 7.64804C71.2342 7.66924 71.9414 7.65023 72.6519 7.65313C72.9561 7.65438 73.5094 7.63931 73.7984 7.68946C72.7036 7.69271 71.6088 7.69049 70.5139 7.68276C70.5145 9.73281 70.4533 12.0975 70.5213 14.1147C70.515 14.7299 70.5136 15.3452 70.5172 15.9604C70.5214 16.9945 70.6591 18.1849 69.838 18.9396C69.3975 19.3445 68.8537 19.5353 68.2614 19.5062C67.6755 19.479 67.127 19.2098 66.7472 18.7628C65.8792 17.747 66.3622 15.6158 66.2298 14.2566C66.2488 13.5489 66.3147 7.89362 66.1719 7.66548Z" fill="#484747"/>
<path d="M9.48775 7.65574C9.46424 6.55298 9.27581 5.15474 10.0587 4.31845C10.4496 3.90043 10.9937 3.6592 11.5659 3.6501C12.1573 3.63521 12.7292 3.86215 13.1495 4.27849C14.0345 5.14526 13.7513 6.52484 13.7839 7.6579C13.756 8.24812 13.753 8.85354 13.7608 9.44498C13.7819 11.0505 13.7319 12.6729 13.7749 14.2767C13.6281 15.6851 14.1513 17.8138 13.1796 18.8482C12.7935 19.2565 12.2604 19.4937 11.6987 19.5072C10.7522 19.5355 9.71645 18.8533 9.57625 17.9335C9.40241 16.7929 9.48836 15.3606 9.483 14.1964C9.52436 12.0477 9.47672 9.81406 9.48775 7.65574Z" fill="#484747"/>
<path d="M70.5207 14.1152C70.5627 14.2496 70.5271 14.2262 70.6083 14.2884C71.4452 14.929 72.0051 15.7775 72.138 16.8344C72.2746 17.8602 71.9916 18.8977 71.3532 19.712C70.724 20.5044 69.8057 21.0141 68.8005 21.1289C67.7904 21.2497 66.7743 20.9581 65.9818 20.3203C65.1874 19.673 64.6841 18.7353 64.5841 17.7156C64.4913 16.692 64.8111 15.6737 65.4724 14.887C65.6521 14.6721 65.9683 14.356 66.2293 14.2572C66.3616 15.6163 65.8786 17.7475 66.7466 18.7633C67.1265 19.2103 67.6749 19.4795 68.2608 19.5067C68.8532 19.5358 69.3969 19.345 69.8374 18.9402C70.6585 18.1855 70.5208 16.995 70.5166 15.9609C70.513 15.3457 70.5144 14.7305 70.5207 14.1152Z" fill="#9F7DDC"/>
<path d="M13.7755 14.2775C14.135 14.3927 14.5662 14.9142 14.7765 15.2267C15.3476 16.0633 15.5554 17.0955 15.3526 18.0878C15.1531 19.0961 14.556 19.9817 13.6961 20.5448C12.8377 21.0958 11.796 21.2839 10.7991 21.0681C9.81962 20.8508 8.96578 20.255 8.42384 19.4108C7.87003 18.5465 7.69001 17.495 7.92491 16.4959C8.13576 15.5792 8.59331 14.8862 9.35014 14.3285C9.42764 14.2714 9.42714 14.2986 9.48355 14.1973C9.48891 15.3614 9.40295 16.7937 9.5768 17.9344C9.717 18.8542 10.7528 19.5364 11.6992 19.5081C12.261 19.4945 12.794 19.2573 13.1801 18.849C14.1519 17.8147 13.6286 15.6859 13.7755 14.2775Z" fill="#9F7DDC"/>
<path d="M60.0777 14.2671C60.6348 14.5144 61.1915 15.3194 61.4263 15.8711C61.8144 16.8039 61.8199 17.8519 61.4416 18.7887C61.0682 19.7239 60.333 20.4686 59.4029 20.8542C58.4565 21.2528 57.3898 21.2536 56.4427 20.8567C55.5076 20.4652 54.769 19.7142 54.393 18.7727C54.0187 17.8211 54.0371 16.7598 54.4443 15.8219C54.6727 15.3044 55.2476 14.4588 55.784 14.252C55.7854 14.9978 55.7255 17.3928 55.8876 17.9733C55.9826 18.3255 56.1682 18.6467 56.426 18.9047C57.594 20.0609 59.7065 19.4508 59.9845 17.9017C60.1743 16.8434 60.0429 15.3736 60.0777 14.2671Z" fill="#9F7DDC"/>
<path d="M24.221 14.2021C24.231 14.2161 24.241 14.2301 24.251 14.2441C25.3311 15.0061 25.9311 16.1885 25.8672 17.5353C25.8152 18.5545 25.3594 19.5109 24.6005 20.1932C23.8389 20.872 22.8361 21.2154 21.8185 21.146C20.7967 21.0807 19.845 20.6048 19.18 19.8265C18.5242 19.0624 18.2031 18.0667 18.2891 17.0634C18.3599 16.1654 19.0189 14.5714 19.9296 14.2705C19.9428 15.0861 19.8574 17.2907 20.0246 17.9437C20.103 18.2581 20.2558 18.549 20.4703 18.7918C20.8525 19.2248 21.395 19.4828 21.9719 19.506C22.5563 19.5384 23.1283 19.3289 23.5536 18.9268C23.8178 18.6739 24.0085 18.3537 24.1046 18.0006C24.2858 17.3482 24.21 15.03 24.221 14.2021Z" fill="#9F7DDC"/>
<path d="M31.2215 10.0946C33.5925 10.0353 36.1906 10.0914 38.5828 10.091L41.843 10.0906C42.4205 10.0906 44.0045 10.0101 44.4442 10.2878C44.7619 10.4876 44.9839 10.8086 45.0589 11.1763C45.1339 11.5355 45.0548 11.9097 44.8408 12.2077C44.5673 12.586 44.2334 12.7103 43.798 12.7694C41.0655 12.8014 38.2706 12.774 35.5345 12.7747L32.719 12.775C32.1697 12.775 31.6584 12.7744 31.09 12.7516C29.9759 12.707 29.4603 11.4521 30.1089 10.5964C30.3717 10.2496 30.793 10.1297 31.2215 10.0946Z" fill="#FEB0AE"/>
<path d="M49.0132 10.0937C49.5241 10.0839 50.0585 10.0367 50.5176 10.2947C50.8415 10.4763 51.0749 10.7849 51.1616 11.1461C51.3593 12.0028 50.7383 12.6323 49.9296 12.7704C49.3198 12.777 48.6777 12.8683 48.1718 12.5009C47.8729 12.2858 47.6791 11.9541 47.6383 11.5881C47.5987 11.2154 47.718 10.8432 47.9669 10.563C48.2726 10.2152 48.5816 10.1314 49.0132 10.0937Z" fill="#FEB0AE"/>
<path d="M63.3147 47.3128C64.2986 47.2193 65.3444 47.2929 66.3352 47.2915C67.51 47.29 68.7327 47.2189 69.9027 47.3059C70.0581 47.3175 70.208 47.3481 70.3497 47.4147C70.7098 47.5842 70.9852 47.872 71.1 48.259C71.2286 48.6925 71.2067 54.35 71.1414 55.0311C71.1198 55.2562 71.0767 55.4384 70.9597 55.6343C70.7422 55.9986 70.4137 56.1657 70.0206 56.2748C69.5533 56.3092 69.0939 56.2865 68.6312 56.2954C67.2066 56.3226 65.6802 56.2618 64.2691 56.2986C62.127 56.3542 62.1505 55.5922 62.1488 53.8284L62.1475 51.7003C62.1473 50.6865 62.1334 49.6682 62.1672 48.6559C62.1919 47.9136 62.5858 47.4645 63.3147 47.3128Z" fill="#669F2A"/>
<path d="M23.5528 34.0409C24.8027 33.9987 26.1131 34.0428 27.3698 34.027C28.1698 34.0548 28.985 33.9828 29.783 34.0441C31.2867 34.1594 31.1731 35.2516 31.1742 36.3316L31.1745 38.3984L31.1733 40.4834C31.1745 41.6676 31.3689 42.8194 29.8423 43.0381C28.177 43.0837 26.4784 43.0108 24.8094 43.0445C24.2914 43.0551 23.2144 43.1017 22.7853 42.814C22.4778 42.6106 22.2687 42.2887 22.208 41.9253C22.137 41.5012 22.1756 39.6455 22.175 39.1119L22.1725 36.7308C22.1719 35.4992 21.9362 34.1961 23.5528 34.0409Z" fill="#669F2A"/>
<path d="M10.0526 60.5604C11.2548 60.5137 12.566 60.5742 13.784 60.5496C14.6833 60.5728 15.597 60.5073 16.4945 60.5635C18.0232 60.6593 17.8495 61.9879 17.8506 63.0471L17.8518 65.2004C17.8521 66.1853 17.8648 67.174 17.8351 68.1578C17.8117 68.9365 17.4243 69.3479 16.6837 69.5296C15.7292 69.6095 14.3315 69.5207 13.3284 69.5501C12.2965 69.5201 11.2453 69.5968 10.2157 69.5349C8.73169 69.4456 8.84048 68.2726 8.84044 67.2328L8.84273 65.1621C8.84418 64.0674 8.8234 62.9688 8.85826 61.8759C8.8814 61.1499 9.35341 60.6838 10.0526 60.5604Z" fill="#669F2A"/>
<path d="M36.6506 34.0703C38.7827 34.0058 40.9686 34.0874 43.1041 34.0642C43.6461 34.0585 44.3536 34.4164 44.4334 35.0024C44.5914 36.1608 44.4661 37.4067 44.5034 38.5792C44.4895 39.635 44.5341 40.698 44.4749 41.7519C44.4374 42.4186 44.0324 42.8569 43.3961 42.995C42.5136 43.0995 41.0869 43.0219 40.157 43.041C39.0616 43.0413 37.9714 43.0564 36.8761 43.025C36.2849 43.0081 35.6139 42.6095 35.5511 41.9844C35.445 40.9291 35.498 39.8141 35.495 38.7499C35.4917 37.5467 35.4549 36.3241 35.5449 35.1258C35.598 34.551 36.1267 34.178 36.6506 34.0703Z" fill="#D0D2F6"/>
<path d="M10.0839 47.3179C10.6406 47.2792 11.3163 47.3029 11.881 47.3048C13.4666 47.3101 15.0602 47.2786 16.6442 47.325C17.1798 47.3407 17.7559 47.8672 17.8009 48.3903C17.8853 49.3733 17.8512 50.3765 17.8514 51.3604L17.8506 53.5797C17.8495 54.7129 18.0625 56.0906 16.5722 56.2709C16.4194 56.2961 15.805 56.2878 15.6378 56.2879L13.8404 56.287L11.3638 56.2884C10.4615 56.2882 9.12767 56.4815 8.8908 55.2228C8.79525 54.715 8.83641 53.9364 8.83997 53.402C8.85047 51.8242 8.80786 50.2387 8.86448 48.6628C8.89583 47.8909 9.30228 47.4167 10.0839 47.3179Z" fill="#D0D2F6"/>
<path d="M36.7442 47.3166C38.8527 47.2449 41.0555 47.3328 43.1694 47.3189C43.75 47.315 44.4156 47.7795 44.4606 48.3936C44.5377 49.4431 44.5061 50.5355 44.506 51.5956L44.5045 53.6564C44.503 54.783 44.6975 56.0897 43.2153 56.2731C43.0053 56.2986 42.5408 56.2863 42.3122 56.2869L40.5222 56.2891L38.1866 56.29C37.6395 56.2899 36.6736 56.358 36.1606 56.0996C35.907 55.9324 35.5664 55.5419 35.5516 55.2247C35.4481 53.0331 35.4795 50.7895 35.5249 48.596C35.5403 47.8514 36.0419 47.4166 36.7442 47.3166Z" fill="#D0D2F6"/>
<path d="M37.0388 60.5684C39.0733 60.5273 41.2721 60.5422 43.3158 60.597C44.1538 60.6194 44.4994 61.4012 44.4983 62.1595C44.4968 63.2755 44.5161 64.4748 44.5035 65.6C44.4516 66.5839 44.6071 67.6862 44.4052 68.6501C44.2597 69.3444 43.4929 69.5256 42.91 69.5319C41.6714 69.5617 40.3974 69.525 39.1529 69.5419C38.3335 69.5317 37.5139 69.5817 36.6969 69.512C35.9968 69.4523 35.5469 68.9033 35.5185 68.2222C35.4713 67.0978 35.4916 65.9711 35.4938 64.8462C35.4958 63.8131 35.4514 62.7664 35.5394 61.739C35.5621 61.4812 35.6619 61.2005 35.8388 61.013C36.2139 60.615 36.5391 60.5886 37.0388 60.5684Z" fill="#D0D2F6"/>
<path d="M23.4234 47.3193C23.6751 47.2922 24.2506 47.306 24.5243 47.3058H26.612L28.7118 47.3039C29.6204 47.3017 30.8756 47.14 31.1317 48.3789C31.2048 48.7321 31.1712 49.2825 31.1717 49.6533L31.1718 51.6822L31.1707 53.7066C31.172 54.8233 31.3629 56.0883 29.8984 56.2746C29.7092 56.2994 29.0982 56.2883 28.8896 56.2885L26.9834 56.2891L24.6817 56.2889C24.059 56.2892 23.2579 56.3877 22.7389 56.0274C21.9984 55.5136 22.1598 54.2144 22.1645 53.3883C22.1736 51.7641 22.1123 50.1113 22.2129 48.4913C22.2564 47.7924 22.7573 47.4 23.4234 47.3193Z" fill="#D0D2F6"/>
<path d="M63.2898 34.0729C64.9218 34.0176 66.6008 34.0819 68.2399 34.0549C69.2179 34.1135 70.7912 33.7371 71.0969 35.0432C71.1751 35.4547 71.1657 35.9157 71.1623 36.3351C71.1479 38.1043 71.1926 39.8776 71.138 41.6451C71.116 42.361 70.7713 42.838 70.053 42.9988C69.8019 43.0271 69.5305 43.0394 69.2794 43.0386C67.3687 43.0293 65.4527 43.0694 63.5429 43.0258C63.2405 42.9902 62.9029 42.943 62.668 42.743C62.1537 42.3046 62.149 41.7193 62.1552 41.1001C62.1749 39.1733 62.1104 37.2369 62.1873 35.3127C62.2143 34.6336 62.6405 34.211 63.2898 34.0729Z" fill="#D0D2F6"/>
<path d="M23.6787 60.5676C24.93 60.5459 26.2059 60.5625 27.4636 60.5589C28.3428 60.5564 29.4184 60.5023 30.2784 60.6461C30.4284 60.6711 30.6203 60.8272 30.734 60.9286C31.1 61.2479 31.1751 61.6756 31.1683 62.1487C31.1384 64.2344 31.2409 66.3517 31.1156 68.4301C31.0995 68.697 30.9515 68.9779 30.7655 69.1629C30.4197 69.5062 30.0208 69.5275 29.5611 69.5329C27.9976 69.5684 26.4145 69.5187 24.8497 69.5451C23.4678 69.5381 22.2016 69.7681 22.1756 67.9206C22.1516 66.2247 22.1637 64.5058 22.1617 62.8115C22.1608 62.1504 22.1092 61.2573 22.6881 60.8465C23.0323 60.6022 23.2831 60.5847 23.6787 60.5676Z" fill="#D0D2F6"/>
<path d="M50.0696 47.3197C52.1337 47.2121 54.3755 47.3581 56.4551 47.3177C57.0137 47.3067 57.7127 47.7281 57.773 48.3272C57.8748 49.3383 57.8248 50.4103 57.826 51.4349L57.8296 53.6146C57.8302 54.7217 58.0266 56.0866 56.5721 56.2724C56.2829 56.3042 55.7357 56.288 55.4193 56.2883L53.3523 56.29L51.2407 56.2902C50.8255 56.29 50.3999 56.298 49.9866 56.2678C49.4651 56.2297 48.8949 55.6797 48.8648 55.1564C48.8029 54.0771 48.8285 52.9746 48.8284 51.8913L48.8287 49.8578C48.8282 48.7819 48.6405 47.5016 50.0696 47.3197Z" fill="#D0D2F6"/>
<path d="M49.9779 34.0702C51.9748 34.0105 54.0018 34.0938 56.0003 34.0546C57.3842 34.0274 57.8464 34.4886 57.83 35.8863C57.807 37.8266 57.8676 39.7799 57.7989 41.7189C57.7745 42.4069 57.3918 42.8416 56.7281 42.9994C55.5942 43.0958 54.2259 43.0203 53.0651 43.043C52.1251 43.0325 51.1786 43.0657 50.2398 43.0282C50.01 43.0189 49.6264 42.9343 49.4436 42.8116C49.2186 42.6507 48.9098 42.286 48.8823 41.9936C48.7925 41.0383 48.8293 39.9561 48.8286 39.0008L48.8279 36.7683C48.8286 35.6661 48.5887 34.3539 49.9779 34.0702Z" fill="#D0D2F6"/>
<path d="M50.3406 60.5673C51.9695 60.5417 53.6049 60.5683 55.2352 60.558C56.5466 60.5581 57.802 60.3766 57.8217 62.1398C57.842 63.9744 57.8156 65.8064 57.8269 67.6386C57.8336 68.713 57.6314 69.5014 56.3806 69.5314C54.3013 69.5695 52.175 69.5436 50.0945 69.5202C49.3439 69.5116 48.8502 68.8875 48.8405 68.1576C48.818 66.4784 48.8319 64.7845 48.8278 63.1041C48.832 61.8092 48.6539 60.6442 50.3406 60.5673Z" fill="#D0D2F6"/>
<path d="M5.06151 47.2326C5.35123 47.2065 5.49581 47.1972 5.78799 47.2912C6.02629 47.338 6.51248 47.7593 6.56692 48.0094C6.7491 48.8463 6.68407 50.1705 6.68404 51.0005L6.68326 55.0232L6.68429 58.8244C6.68446 59.516 6.68504 60.2065 6.67451 60.898C6.66203 61.7168 6.42012 62.1904 5.59949 62.4588C5.20924 62.4805 5.08895 62.4763 4.72484 62.3276C4.48928 62.2313 4.12929 61.8615 4.08815 61.6341C3.92753 60.7468 3.98142 59.5183 3.98109 58.6118L3.98015 54.3732L3.98067 50.9212C3.98092 50.2205 3.97531 49.5258 3.99757 48.8255C4.02553 47.9458 4.18784 47.5335 5.06151 47.2326Z" fill="#D0D2F6"/>
<path d="M5.06261 41.1389C5.72035 41.0678 6.40329 41.3421 6.58043 42.0021C6.86557 43.0645 6.77219 44.2575 5.60405 44.6453C5.32896 44.6639 5.12033 44.6742 4.8593 44.5745C4.51219 44.4428 4.23716 44.1701 4.10241 43.8242C3.91419 43.3484 3.91482 42.335 4.14888 41.8681C4.3696 41.4279 4.63274 41.2831 5.06261 41.1389Z" fill="#D0D2F6"/>
</svg>
