<svg width="72" height="72" viewBox="0 0 72 72" fill="none" xmlns="http://www.w3.org/2000/svg">
<path d="M69.3296 69.5595H3.52878V59.0101H6.59598V58.9597C6.59598 58.0229 6.95454 57.1719 7.54062 56.521V34.4343C6.9338 33.767 6.59728 32.8976 6.5967 31.9957V31.9453H3.52734V22.6191L36.4292 3.30078L69.3296 22.6184V31.9453H66.2545V31.9957C66.2542 32.8943 65.9201 33.7609 65.317 34.4271V56.5282C65.9202 57.1944 66.2543 58.061 66.2545 58.9597V59.0101H69.3296V69.5595Z" fill="#C1C2C6"/>
<path d="M67.4695 67.6982H1.66797V57.1487H4.73589V57.0983C4.73589 56.1623 5.09373 55.3106 5.68053 54.6597V32.5737C5.07327 31.9063 4.73648 31.0366 4.73589 30.1343V30.0839H1.66797V20.7585L34.5684 1.43945L67.4702 20.7578V30.0847H64.3944V30.1351C64.3944 31.0336 64.0606 31.9002 63.4576 32.5665V54.6669C64.0607 55.3334 64.3946 56.2002 64.3944 57.0991V57.1495H67.4702L67.4695 67.6982Z" fill="white"/>
<path d="M4.52734 22.3965H64.6063V27.2277H4.52734V22.3965Z" fill="#C8E6E2"/>
<path d="M4.52734 60.0075H64.6063V64.8387H4.52734V60.0075ZM34.5672 4.75977L4.52734 22.3962H64.6063L34.5672 4.75977Z" fill="#EBF0F3"/>
<path d="M16.582 19.1188L34.5691 8.55859L52.5554 19.1188H16.582Z" fill="#E1E6E9"/>
<path d="M8.53906 30.041H17.9711V57.6775H8.53906V30.041Z" fill="#EBF0F3"/>
<path d="M18.1438 56.3297H8.36836C7.945 56.3297 7.60156 56.6731 7.60156 57.0972V60.006H18.9113V57.0972C18.9113 56.6731 18.5679 56.3297 18.1438 56.3297ZM7.60156 27.2266V30.1354C7.60156 30.5594 7.945 30.9029 8.36836 30.9029H18.1438C18.5679 30.9029 18.9113 30.5594 18.9113 30.1354V27.2266H7.60156ZM10.6724 54.7169C10.6006 54.7169 10.5296 54.7027 10.4633 54.6753C10.3971 54.6478 10.3369 54.6075 10.2862 54.5568C10.2355 54.506 10.1953 54.4458 10.1679 54.3795C10.1406 54.3132 10.1265 54.2421 10.1266 54.1704V33.5467C10.1266 33.4019 10.1841 33.263 10.2866 33.1606C10.389 33.0581 10.5279 33.0006 10.6727 33.0006C10.8176 33.0006 10.9565 33.0581 11.0589 33.1606C11.1613 33.263 11.2188 33.4019 11.2188 33.5467V54.1704C11.2188 54.4728 10.974 54.7169 10.6724 54.7169ZM13.2564 54.7169C13.1847 54.717 13.1135 54.7029 13.0472 54.6755C12.9809 54.648 12.9206 54.6078 12.8698 54.557C12.819 54.5063 12.7788 54.446 12.7514 54.3796C12.7239 54.3133 12.7099 54.2422 12.71 54.1704V33.5467C12.71 33.4019 12.7675 33.263 12.8699 33.1606C12.9723 33.0581 13.1112 33.0006 13.2561 33.0006C13.4009 33.0006 13.5398 33.0581 13.6422 33.1606C13.7447 33.263 13.8022 33.4019 13.8022 33.5467V54.1704C13.8022 54.4728 13.5581 54.7169 13.2564 54.7169ZM15.8398 54.7169C15.7681 54.7169 15.697 54.7027 15.6308 54.6753C15.5645 54.6478 15.5043 54.6075 15.4536 54.5568C15.4029 54.506 15.3628 54.4458 15.3354 54.3795C15.308 54.3132 15.2939 54.2421 15.294 54.1704V33.5467C15.294 33.4019 15.3516 33.263 15.454 33.1606C15.5564 33.0581 15.6953 33.0006 15.8402 33.0006C15.985 33.0006 16.1239 33.0581 16.2263 33.1606C16.3287 33.263 16.3863 33.4019 16.3863 33.5467V54.1704C16.3863 54.4728 16.1415 54.7169 15.8398 54.7169Z" fill="#E1E6E9"/>
<path d="M29.8516 30.041H39.2828V57.6775H29.8516V30.041Z" fill="#EBF0F3"/>
<path d="M39.4563 56.3297H29.6809C29.2575 56.3297 28.9141 56.6731 28.9141 57.0972V60.006H40.2238V57.0972C40.2238 56.6731 39.8797 56.3297 39.4563 56.3297ZM28.9141 27.2266V30.1354C28.9141 30.5594 29.2575 30.9029 29.6809 30.9029H39.4563C39.8797 30.9029 40.2238 30.5594 40.2238 30.1354V27.2266H28.9141ZM31.9849 54.7169C31.9131 54.7169 31.8421 54.7027 31.7758 54.6753C31.7096 54.6478 31.6494 54.6075 31.5987 54.5568C31.548 54.506 31.5078 54.4458 31.4804 54.3795C31.4531 54.3132 31.439 54.2421 31.4391 54.1704V33.5467C31.4391 33.4019 31.4966 33.263 31.5991 33.1606C31.7015 33.0581 31.8404 33.0006 31.9852 33.0006C32.1301 33.0006 32.269 33.0581 32.3714 33.1606C32.4738 33.263 32.5313 33.4019 32.5313 33.5467V54.1704C32.5313 54.4728 32.2865 54.7169 31.9849 54.7169ZM34.5689 54.7169C34.4972 54.717 34.426 54.7029 34.3597 54.6755C34.2934 54.648 34.2331 54.6078 34.1823 54.557C34.1315 54.5063 34.0913 54.446 34.0639 54.3796C34.0364 54.3133 34.0224 54.2422 34.0225 54.1704V33.5467C34.0225 33.4019 34.08 33.263 34.1824 33.1606C34.2848 33.0581 34.4237 33.0006 34.5686 33.0006C34.7134 33.0006 34.8523 33.0581 34.9547 33.1606C35.0572 33.263 35.1147 33.4019 35.1147 33.5467V54.1704C35.1147 54.4728 34.8699 54.7169 34.5689 54.7169ZM37.1523 54.7169C37.0805 54.717 37.0094 54.7029 36.9431 54.6755C36.8767 54.648 36.8164 54.6078 36.7657 54.557C36.7149 54.5063 36.6747 54.446 36.6472 54.3796C36.6198 54.3133 36.6057 54.2422 36.6058 54.1704V33.5467C36.6058 33.4018 36.6634 33.2628 36.7659 33.1603C36.8684 33.0578 37.0074 33.0002 37.1523 33.0002C37.2972 33.0002 37.4362 33.0578 37.5387 33.1603C37.6412 33.2628 37.6988 33.4018 37.6988 33.5467V54.1704C37.6988 54.4728 37.454 54.7169 37.1523 54.7169Z" fill="#E1E6E9"/>
<path d="M51.1655 30.041H60.5961V57.6775H51.1641L51.1655 30.041Z" fill="#EBF0F3"/>
<path d="M60.7695 56.3297H50.9941C50.57 56.3297 50.2266 56.6731 50.2266 57.0972V60.006H61.5363V57.0972C61.5363 56.6731 61.1929 56.3297 60.7695 56.3297ZM50.2266 27.2266V30.1354C50.2266 30.5594 50.57 30.9029 50.9941 30.9029H60.7695C61.1929 30.9029 61.5363 30.5594 61.5363 30.1354V27.2266H50.2266ZM53.2981 54.7169C53.2263 54.717 53.1552 54.7029 53.0888 54.6755C53.0225 54.648 52.9622 54.6078 52.9115 54.557C52.8607 54.5063 52.8204 54.446 52.793 54.3796C52.7656 54.3133 52.7515 54.2422 52.7516 54.1704V33.5467C52.7516 33.4019 52.8091 33.263 52.9116 33.1606C53.014 33.0581 53.1529 33.0006 53.2977 33.0006C53.4426 33.0006 53.5815 33.0581 53.6839 33.1606C53.7863 33.263 53.8438 33.4019 53.8438 33.5467V54.1704C53.8438 54.4728 53.5998 54.7169 53.2981 54.7169ZM55.8814 54.7169C55.8097 54.7169 55.7387 54.7027 55.6724 54.6753C55.6062 54.6478 55.546 54.6075 55.4953 54.5568C55.4446 54.506 55.4044 54.4458 55.377 54.3795C55.3496 54.3132 55.3356 54.2421 55.3357 54.1704V33.5467C55.3357 33.4019 55.3932 33.263 55.4956 33.1606C55.5981 33.0581 55.737 33.0006 55.8818 33.0006C56.0266 33.0006 56.1655 33.0581 56.268 33.1606C56.3704 33.263 56.4279 33.4019 56.4279 33.5467V54.1704C56.4279 54.4728 56.1831 54.7169 55.8814 54.7169ZM58.4655 54.7169C58.3937 54.717 58.3226 54.7029 58.2563 54.6755C58.1899 54.648 58.1297 54.6078 58.0789 54.557C58.0281 54.5063 57.9879 54.446 57.9604 54.3796C57.933 54.3133 57.9189 54.2422 57.919 54.1704V33.5467C57.919 33.4019 57.9766 33.263 58.079 33.1606C58.1814 33.0581 58.3203 33.0006 58.4652 33.0006C58.61 33.0006 58.7489 33.0581 58.8513 33.1606C58.9537 33.263 59.0113 33.4019 59.0113 33.5467V54.1704C59.0113 54.4728 58.7672 54.7169 58.4655 54.7169Z" fill="#E1E6E9"/>
</svg>
