<svg width="30" height="30" viewBox="0 0 30 30" fill="none" xmlns="http://www.w3.org/2000/svg">
<rect width="30" height="30" rx="15" fill="white"/>
<path d="M10.4612 22.3403H8.5412C5.6012 22.1303 4.28125 19.8703 4.28125 17.8603C4.28125 15.8503 5.60121 13.5803 8.49121 13.3803C8.90121 13.3403 9.2612 13.6603 9.2912 14.0803C9.3212 14.4903 9.01125 14.8503 8.59125 14.8803C6.65125 15.0203 5.78125 16.4803 5.78125 17.8703C5.78125 19.2603 6.65125 20.7203 8.59125 20.8603H10.4612C10.8712 20.8603 11.2112 21.2003 11.2112 21.6103C11.2112 22.0203 10.8712 22.3403 10.4612 22.3403Z" fill="#292D32"/>
<path d="M19.6709 22.341C19.6509 22.341 19.6409 22.341 19.6209 22.341C19.2109 22.341 18.8309 22.001 18.8309 21.591C18.8309 21.161 19.1509 20.841 19.5709 20.841C20.8009 20.841 21.9009 20.411 22.7609 19.641C24.3209 18.281 24.4209 16.321 24.0009 14.941C23.5809 13.571 22.4109 12.001 20.3709 11.751C20.0409 11.711 19.7809 11.461 19.7209 11.131C19.3209 8.73098 18.0309 7.07098 16.0709 6.47098C14.0509 5.84098 11.6909 6.46098 10.2209 8.00098C8.79086 9.49098 8.46087 11.581 9.29087 13.881C9.43087 14.271 9.23092 14.701 8.84092 14.841C8.45092 14.981 8.0209 14.781 7.8809 14.391C6.8709 11.571 7.33091 8.87098 9.14091 6.97098C10.9909 5.03098 13.9609 4.26097 16.5109 5.04097C18.8509 5.76097 20.5009 7.69097 21.1009 10.371C23.1409 10.831 24.7809 12.381 25.4309 14.521C26.1409 16.851 25.5009 19.251 23.7509 20.771C22.6409 21.771 21.1909 22.341 19.6709 22.341Z" fill="#292D32"/>
<path d="M15 25.2793C12.99 25.2793 11.11 24.2093 10.08 22.4793C9.97002 22.3093 9.86002 22.1093 9.77002 21.8893C9.43002 21.1793 9.25 20.3693 9.25 19.5293C9.25 16.3593 11.83 13.7793 15 13.7793C18.17 13.7793 20.75 16.3593 20.75 19.5293C20.75 20.3793 20.57 21.1793 20.21 21.9193C20.13 22.1093 20.02 22.3093 19.9 22.4993C18.89 24.2093 17.01 25.2793 15 25.2793ZM15 15.2793C12.66 15.2793 10.75 17.1893 10.75 19.5293C10.75 20.1493 10.88 20.7293 11.13 21.2593C11.21 21.4293 11.28 21.5693 11.36 21.6993C12.12 22.9893 13.51 23.7793 14.99 23.7793C16.47 23.7793 17.86 22.9893 18.61 21.7193C18.7 21.5693 18.78 21.4293 18.84 21.2893C19.11 20.7393 19.24 20.1593 19.24 19.5393C19.25 17.1893 17.34 15.2793 15 15.2793Z" fill="#292D32"/>
<path d="M14.4309 21.2689C14.2409 21.2689 14.0509 21.1989 13.9009 21.0489L12.9109 20.0589C12.6209 19.7689 12.6209 19.2889 12.9109 18.9989C13.2009 18.7089 13.6809 18.7089 13.9709 18.9989L14.4509 19.4789L16.0509 17.9989C16.3609 17.7189 16.8309 17.7389 17.1109 18.0389C17.3909 18.3389 17.3709 18.8189 17.0709 19.0989L14.9409 21.0689C14.7909 21.1989 14.6109 21.2689 14.4309 21.2689Z" fill="#292D32"/>
</svg>
