<svg width="82" height="80" viewBox="0 0 82 80" fill="none" xmlns="http://www.w3.org/2000/svg">
<path d="M80.959 34.6667L72.6257 27.3333V11.5H54.6257L47.6257 5.41667C46.209 4.16667 44.459 3.5 42.6257 3.5C40.7923 3.5 39.0423 4.16667 37.6257 5.41667L30.6257 11.5H12.7923V27.25L4.45898 34.5833V72.25C4.45898 73.9167 5.04232 75.5833 6.04232 76.9167C7.54232 78.8333 9.70898 79.9167 12.0423 79.9167H73.3757C75.709 79.9167 77.8757 78.8333 79.3757 76.9167C80.459 75.5833 81.0423 73.9167 81.0423 72.1667V34.6667H80.959Z" fill="#D5D6DB"/>
<path d="M77.459 31.1667L69.1257 23.8333V8H51.209L44.209 1.91667C42.7923 0.666667 41.0423 0 39.209 0C37.3757 0 35.6257 0.666667 34.209 1.91667L27.209 8H9.29232V23.75L0.958984 31.1667V68.8333C0.958984 70.5 1.54232 72.1667 2.54232 73.5C4.04232 75.4167 6.20898 76.5 8.54232 76.5H69.8756C72.209 76.5 74.3757 75.4167 75.8757 73.5C76.959 72.1667 77.5423 70.5 77.5423 68.75V31.1667H77.459Z" fill="white"/>
<path d="M39.209 52.3333L73.959 32.75H4.45898L39.209 52.3333Z" fill="#F6C358"/>
<path d="M36.5423 4.5L4.45898 32.75H73.959L41.959 4.5C40.3756 3.16667 38.0423 3.16667 36.5423 4.5Z" fill="#F6C358"/>
<path d="M12.793 11.5H65.6263V55.5833H12.793V11.5Z" fill="white"/>
<path d="M12.793 11.5H65.6263V15H12.793V11.5Z" fill="#E56353"/>
<path d="M16.875 21.918H61.5417V23.168H16.875V21.918Z" fill="#EBF0F3"/>
<path d="M16.875 28.5H61.5417V29.75H16.875V28.5Z" fill="#EBF0F3"/>
<path d="M16.875 35.082H61.5417V36.332H16.875V35.082Z" fill="#EBF0F3"/>
<path d="M16.875 41.582H61.5417V42.832H16.875V41.582Z" fill="#EBF0F3"/>
<path d="M16.875 48.168H61.5417V49.418H16.875V48.168Z" fill="#EBF0F3"/>
<path d="M4.45898 32.75V68.8333C4.45898 69.8333 4.79232 70.6667 5.37565 71.4167L39.2923 52.3333L4.45898 32.75Z" fill="#FCD462"/>
<path d="M74.0423 32.75L39.209 52.3333L73.1256 71.4167C73.709 70.6667 74.0423 69.8333 74.0423 68.8333V32.75Z" fill="#FCD462"/>
<path d="M5.29297 71.4154C6.04297 72.4154 7.20964 73.082 8.54297 73.082H69.8763C71.2096 73.082 72.3763 72.4154 73.1263 71.4154L39.2096 52.332L5.29297 71.4154Z" fill="#F6C358"/>
<path d="M4.45898 32.75V65.3333L39.209 52.3333L4.45898 32.75Z" fill="#FCD462"/>
<path d="M4.45898 65.332V68.832C4.45898 69.832 4.79232 70.6654 5.37565 71.4154L39.2923 52.332L4.45898 65.332Z" fill="#DC8744"/>
</svg>
