<svg width="23" height="25" viewBox="0 0 23 25" fill="none" xmlns="http://www.w3.org/2000/svg">
<path d="M7.86624 2.00167C7.80677 1.7652 7.84245 1.5146 7.96548 1.30459C8.0885 1.09458 8.28888 0.942224 8.52285 0.8808C10.4737 0.373067 12.5204 0.373067 14.4713 0.8808C14.6874 0.936628 14.8758 1.07017 15.0012 1.25634C15.1266 1.4425 15.1802 1.66846 15.1521 1.89175C15.124 2.11505 15.0161 2.3203 14.8486 2.46893C14.6811 2.61756 14.4655 2.69934 14.2425 2.6989C14.1653 2.69849 14.0884 2.68841 14.0137 2.66888C12.363 2.23879 10.6311 2.23879 8.98042 2.66888C8.86385 2.69903 8.74252 2.70569 8.6234 2.68846C8.50427 2.67123 8.38968 2.63046 8.28619 2.56849C8.18269 2.50651 8.09233 2.42455 8.02027 2.32729C7.94821 2.23002 7.89587 2.11937 7.86624 2.00167ZM0.669785 10.4284C0.785606 10.4609 0.906632 10.47 1.02595 10.4552C1.14526 10.4405 1.26053 10.4022 1.36517 10.3425C1.4698 10.2828 1.56176 10.2028 1.63577 10.1073C1.70979 10.0117 1.76443 9.90232 1.79655 9.78543C2.25306 8.12845 3.11899 6.61555 4.3132 5.38853C4.47243 5.21183 4.55764 4.97976 4.55093 4.74103C4.54422 4.5023 4.44612 4.27548 4.27722 4.10818C4.10832 3.94088 3.88176 3.84611 3.6451 3.84378C3.40844 3.84144 3.18008 3.93172 3.00797 4.09566C1.5971 5.54543 0.573777 7.3327 0.0337607 9.29022C0.00139778 9.4071 -0.00781997 9.52926 0.0066348 9.64974C0.0210896 9.77021 0.0589333 9.88663 0.118002 9.99233C0.177071 10.098 0.256207 10.191 0.350886 10.2658C0.445564 10.3406 0.553929 10.3959 0.669785 10.4284ZM21.1964 9.78659C21.2614 10.0226 21.4165 10.223 21.6279 10.3436C21.8392 10.4641 22.0893 10.4951 22.3232 10.4296C22.5571 10.364 22.7557 10.2074 22.8751 9.99421C22.9946 9.78097 23.0253 9.52857 22.9604 9.29253C22.4206 7.33491 21.3972 5.54759 19.9862 4.09797C19.9019 4.01148 19.8016 3.9426 19.6909 3.89524C19.5802 3.84789 19.4614 3.82299 19.3412 3.82197C19.221 3.82095 19.1018 3.84383 18.9904 3.88931C18.879 3.93478 18.7775 4.00196 18.6918 4.087C18.6061 4.17204 18.5378 4.27329 18.4909 4.38495C18.444 4.49661 18.4193 4.61651 18.4183 4.7378C18.4173 4.85909 18.44 4.97939 18.485 5.09183C18.5301 5.20427 18.5967 5.30666 18.6809 5.39314C19.8744 6.61965 20.7399 8.1317 21.1964 9.78774V9.78659ZM22.3255 14.5841C22.2096 14.5516 22.0885 14.5425 21.9691 14.5574C21.8498 14.5722 21.7344 14.6106 21.6298 14.6704C21.5251 14.7302 21.4332 14.8103 21.3592 14.906C21.2853 15.0017 21.2307 15.1112 21.1987 15.2282C20.7884 16.7185 20.0449 18.0939 19.0253 19.2488C18.358 18.2749 17.5109 17.4401 16.5304 16.79C16.447 16.7342 16.3479 16.7076 16.2481 16.714C16.1483 16.7205 16.0534 16.7597 15.9778 16.8258C14.7345 17.9114 13.1453 18.5089 11.5011 18.5089C9.85688 18.5089 8.26767 17.9114 7.02431 16.8258C6.94864 16.7595 6.85349 16.72 6.75346 16.7136C6.65344 16.7071 6.55408 16.734 6.47064 16.79C5.48375 17.4312 4.62916 18.2591 3.954 19.228C2.94409 18.0764 2.20745 16.7077 1.79999 15.2259C1.73506 14.9898 1.57987 14.7895 1.36856 14.6689C1.15725 14.5483 0.907129 14.5174 0.673217 14.5829C0.439304 14.6484 0.240763 14.805 0.121271 15.0183C0.00177871 15.2315 -0.0288768 15.4839 0.0360484 15.7199C0.735501 18.2457 2.23479 20.4711 4.30504 22.0565C6.3753 23.6418 8.90277 24.5 11.5016 24.5C14.1005 24.5 16.628 23.6418 18.6982 22.0565C20.7685 20.4711 22.2678 18.2457 22.9672 15.7199C22.9992 15.6028 23.0079 15.4805 22.9929 15.36C22.9779 15.2395 22.9395 15.1232 22.8799 15.0177C22.8203 14.9121 22.7406 14.8195 22.6455 14.7451C22.5504 14.6707 22.4416 14.616 22.3255 14.5841ZM11.4971 16.6619C12.4926 16.6619 13.4657 16.364 14.2934 15.8059C15.1211 15.2478 15.7663 14.4545 16.1472 13.5265C16.5282 12.5984 16.6278 11.5771 16.4336 10.5919C16.2394 9.60661 15.7601 8.7016 15.0561 7.99127C14.3522 7.28094 13.4554 6.7972 12.479 6.60122C11.5026 6.40524 10.4906 6.50582 9.57091 6.89025C8.6512 7.27468 7.86511 7.92568 7.31204 8.76094C6.75898 9.5962 6.46378 10.5782 6.46378 11.5828C6.4653 12.9294 6.99607 14.2204 7.93967 15.1726C8.88326 16.1247 10.1626 16.6604 11.4971 16.6619Z" fill="#9F7DDC"/>
</svg>
