<svg width="138" height="28" viewBox="0 0 138 28" fill="none" xmlns="http://www.w3.org/2000/svg">
<path d="M4.72075 13.2436C4.72075 8.65758 8.40897 4.93843 12.959 4.93843C15.0398 4.93843 16.9403 5.71617 18.3899 6.99899C16.812 4.53296 14.0653 2.90234 10.9389 2.90234C6.04553 2.90234 2.07812 6.90112 2.07812 11.8332C2.07812 16.1186 5.07275 19.6979 9.0679 20.563C6.48076 19.1631 4.72075 16.4104 4.72075 13.2436Z" fill="#6F3DCB"/>
<mask id="mask0_243_8881" style="mask-type:luminance" maskUnits="userSpaceOnUse" x="0" y="0" width="28" height="28">
<path d="M0 0.667969H27.0782V27.3346H0V0.667969Z" fill="white"/>
</mask>
<g mask="url(#mask0_243_8881)">
<path d="M21.47 0.727343C21.307 0.666173 21.2342 0.837449 21.2064 1.06815C21.1527 1.51731 21.3313 1.96123 21.6694 2.26009C25.2016 5.37977 24.5167 13.0243 22.207 12.5681C20.6914 12.2693 22.3058 7.72695 21.0417 7.57315C20.2024 7.47004 19.4568 9.57429 19.5106 12.3514C19.5401 13.9383 20.0464 15.2491 20.492 16.3869C21.1353 18.035 20.544 19.9208 19.0632 20.8733C14.3502 23.9056 8.01933 23.3463 3.90281 19.1972C1.72837 17.0056 0.549245 14.19 0.361973 11.322C-0.546646 15.569 0.639413 20.1812 3.92362 23.4756C8.06095 27.63 14.6692 28.4951 19.7273 25.5519C24.5288 22.7556 26.5368 17.0056 26.8229 11.6593C27.1853 4.85895 23.3133 1.42818 21.47 0.727343ZM20.8076 4.44823C22.6422 6.07361 23.3375 8.92064 23.256 11.2136C23.5439 10.5041 23.6999 9.46243 23.6635 8.34739C23.6167 6.85659 23.2647 5.46191 22.6751 4.33114C21.9139 3.59185 21.1648 3.12521 20.603 2.91199C20.4365 2.84907 20.3654 3.02909 20.3377 3.26678C20.2892 3.71419 20.473 4.15287 20.8076 4.44823Z" fill="#6F3DCB"/>
</g>
<mask id="mask1_243_8881" style="mask-type:luminance" maskUnits="userSpaceOnUse" x="9" y="13" width="10" height="9">
<path d="M9.32227 13.0156H18.0877V21.3016H9.32227V13.0156Z" fill="white"/>
</mask>
<g mask="url(#mask1_243_8881)">
<path fill-rule="evenodd" clip-rule="evenodd" d="M13.6483 13.9368C12.0583 12.7903 9.57691 13.2238 9.67054 15.8611C9.76591 18.5613 13.1386 20.8001 13.8998 21.272C14.5951 20.8403 17.4857 18.9248 18.0371 16.5287C17.562 16.9953 16.9135 17.2837 16.1973 17.2837C14.7408 17.2837 13.5599 16.0935 13.5599 14.6254C13.5599 14.386 13.5911 14.157 13.6483 13.9368Z" fill="#4DAFA1"/>
</g>
<path fill-rule="evenodd" clip-rule="evenodd" d="M13.9488 11.591C13.9488 11.591 13.7546 11.6662 13.4633 11.972C13.172 12.2761 12.8703 12.7864 11.8281 12.7864C10.7877 12.7864 9.56872 11.6504 9.71958 10.053C9.35197 9.96563 9.46121 11.2589 8.59768 11.9004C7.73415 12.5418 5.77125 12.4229 5.84582 10.226C6.46139 10.3676 8.06881 10.6507 8.24221 9.27004C8.41388 7.88935 9.97795 8.05188 10.2155 8.81214C10.6802 8.56222 11.705 8.11655 12.6969 8.49755C13.6887 8.87855 14.0459 9.67202 13.9055 9.93243C13.765 10.1928 13.635 11.009 13.9488 11.591Z" fill="#4DAFA1"/>
<mask id="mask2_243_8881" style="mask-type:luminance" maskUnits="userSpaceOnUse" x="14" y="12" width="5" height="5">
<path d="M14.2051 12.5703H18.0875V16.5971H14.2051V12.5703Z" fill="white"/>
</mask>
<g mask="url(#mask2_243_8881)">
<path d="M18.0993 14.6282C18.0993 14.754 18.0872 14.8781 18.0629 15.0022C18.0386 15.1245 18.0022 15.2451 17.9537 15.3622C17.9069 15.4776 17.8479 15.5877 17.7785 15.6925C17.7092 15.7974 17.6294 15.8935 17.541 15.9827C17.4543 16.0718 17.3572 16.1522 17.2531 16.2221C17.1491 16.292 17.0399 16.3514 16.9254 16.3986C16.8092 16.4476 16.6913 16.4825 16.5682 16.5087C16.4451 16.5332 16.322 16.5454 16.1971 16.5454C16.0723 16.5454 15.9492 16.5332 15.826 16.5087C15.7029 16.4825 15.585 16.4476 15.4688 16.3986C15.3544 16.3514 15.2452 16.292 15.1411 16.2221C15.0371 16.1522 14.94 16.0718 14.8515 15.9827C14.7648 15.8935 14.6851 15.7974 14.6157 15.6925C14.5464 15.5877 14.4874 15.4776 14.4406 15.3622C14.392 15.2451 14.3556 15.1245 14.3313 15.0022C14.3071 14.8781 14.2949 14.754 14.2949 14.6282C14.2949 14.5023 14.3071 14.3783 14.3313 14.2542C14.3556 14.1301 14.392 14.0112 14.4406 13.8941C14.4874 13.7788 14.5464 13.6669 14.6157 13.5638C14.6851 13.459 14.7648 13.3611 14.8515 13.272C14.94 13.1828 15.0371 13.1042 15.1411 13.0343C15.2452 12.9644 15.3544 12.9049 15.4688 12.8577C15.585 12.8088 15.7029 12.7721 15.826 12.7476C15.9492 12.7232 16.0723 12.7109 16.1971 12.7109C16.322 12.7109 16.4451 12.7232 16.5682 12.7476C16.6913 12.7721 16.8092 12.8088 16.9254 12.8577C17.0399 12.9049 17.1491 12.9644 17.2531 13.0343C17.3572 13.1042 17.4543 13.1828 17.541 13.272C17.6294 13.3611 17.7092 13.459 17.7785 13.5638C17.8479 13.6669 17.9069 13.7788 17.9537 13.8941C18.0022 14.0112 18.0386 14.1301 18.0629 14.2542C18.0872 14.3783 18.0993 14.5023 18.0993 14.6282Z" fill="#4DAFA1"/>
</g>
<path d="M37.4277 19.3079V21.2933H29.916V8.36719H32.302V19.3079H37.4277Z" fill="#0C120C"/>
<path d="M43.5943 17.3811C42.9596 17.4091 42.429 17.465 41.999 17.5489C41.569 17.6293 41.2222 17.7307 40.9586 17.8565C40.6985 17.9788 40.5147 18.1222 40.4037 18.2899C40.2927 18.4577 40.2373 18.6395 40.2373 18.8352C40.2373 19.2232 40.35 19.4994 40.5771 19.6671C40.8025 19.8349 41.0991 19.9188 41.4649 19.9188C41.9175 19.9188 42.3059 19.8384 42.6302 19.6741C42.9579 19.5116 43.2787 19.2617 43.5943 18.9261V17.3811ZM38.5726 13.4033C39.6217 12.4351 40.8823 11.9492 42.3527 11.9492C42.8833 11.9492 43.3602 12.0384 43.7816 12.2149C44.2012 12.3931 44.5549 12.6378 44.8428 12.9489C45.1341 13.2618 45.356 13.6375 45.5086 14.0744C45.6612 14.5079 45.7375 14.9833 45.7375 15.5006V21.296H44.7387C44.5306 21.296 44.3711 21.2663 44.2601 21.2051C44.1492 21.1405 44.0607 21.0129 43.9966 20.8206L43.8024 20.1635C43.57 20.3697 43.3446 20.5515 43.1226 20.7088C42.9042 20.8678 42.6787 21.0006 42.4429 21.1073C42.2071 21.2156 41.9522 21.296 41.6799 21.3519C41.4112 21.4079 41.1147 21.4358 40.7921 21.4358C40.4072 21.4358 40.0517 21.3834 39.724 21.282C39.3997 21.1807 39.1206 21.0234 38.8847 20.8136C38.6489 20.6039 38.4651 20.3453 38.3368 20.0377C38.2067 19.7266 38.1426 19.3648 38.1426 18.9541C38.1426 18.7216 38.179 18.4909 38.2536 18.262C38.3316 18.0348 38.4564 17.8146 38.6281 17.6048C38.8032 17.3951 39.0304 17.1994 39.3078 17.0176C39.5887 16.8323 39.9321 16.6716 40.3344 16.5352C40.7401 16.3954 41.2118 16.2836 41.7493 16.1997C42.2903 16.1123 42.9042 16.0581 43.5943 16.0389V15.5006C43.5943 14.8854 43.4642 14.431 43.2059 14.1374C42.9458 13.8437 42.5712 13.6969 42.0822 13.6969C41.725 13.6969 41.4302 13.7389 41.1944 13.8228C40.9621 13.9067 40.7575 14.001 40.5771 14.1024C40.4003 14.2055 40.239 14.2982 40.0916 14.382C39.9477 14.4659 39.7881 14.5079 39.613 14.5079C39.4604 14.5079 39.3304 14.4694 39.2246 14.389C39.1171 14.3104 39.0321 14.2178 38.968 14.1094L38.5726 13.4033Z" fill="#0C120C"/>
<path d="M55.9971 12.1211L52.3903 21.2931H50.3997L46.793 12.1211H48.5963C48.7628 12.1211 48.9015 12.1613 49.0125 12.2399C49.1235 12.3151 49.1946 12.413 49.2275 12.5336L50.9823 17.4272C51.0794 17.7173 51.1627 17.9987 51.232 18.2731C51.3048 18.5492 51.3673 18.8218 51.4193 19.091C51.4782 18.8218 51.5441 18.5492 51.6135 18.2731C51.6863 17.9987 51.773 17.7173 51.8701 17.4272L53.6666 12.5336C53.7082 12.413 53.781 12.3151 53.8885 12.2399C53.9943 12.1613 54.1209 12.1211 54.27 12.1211H55.9971Z" fill="#0C120C"/>
<path d="M63.0224 15.6538C63.0224 15.3706 62.9826 15.1015 62.9045 14.8498C62.8248 14.5946 62.7051 14.3709 62.5439 14.1787C62.3861 13.9882 62.1849 13.8396 61.9404 13.7313C61.6942 13.6194 61.4081 13.5635 61.0804 13.5635C60.4509 13.5635 59.9532 13.7453 59.5891 14.1088C59.2232 14.4723 58.9891 14.9879 58.8886 15.6538H63.0224ZM58.847 16.989C58.8834 17.4609 58.9666 17.8681 59.0967 18.2124C59.225 18.5532 59.3966 18.8346 59.6099 19.0583C59.8215 19.282 60.0746 19.4498 60.3659 19.5617C60.6607 19.67 60.985 19.7224 61.337 19.7224C61.6925 19.7224 61.9976 19.6805 62.2525 19.5966C62.5109 19.5127 62.7381 19.4218 62.9323 19.324C63.1265 19.2226 63.2947 19.1282 63.4386 19.0443C63.5808 18.9604 63.723 18.9185 63.8617 18.9185C64.042 18.9185 64.1773 18.9867 64.2709 19.1212L64.8952 19.9252C64.6541 20.2153 64.3819 20.4565 64.0767 20.6522C63.775 20.8445 63.4611 20.9983 63.1334 21.1136C62.804 21.2307 62.4693 21.3111 62.1277 21.3583C61.7896 21.4037 61.4618 21.4282 61.1428 21.4282C60.5081 21.4282 59.9186 21.3234 59.3741 21.1136C58.8331 20.9004 58.3614 20.5876 57.9591 20.1769C57.5569 19.7626 57.2395 19.2506 57.0089 18.6389C56.7766 18.0237 56.6621 17.3158 56.6621 16.5136C56.6621 15.8845 56.7609 15.2955 56.9604 14.7449C57.1632 14.1962 57.4528 13.7173 57.8274 13.3118C58.2054 12.9029 58.6666 12.5778 59.2076 12.3401C59.7486 12.0989 60.359 11.9766 61.0387 11.9766C61.611 11.9766 62.1416 12.0709 62.6271 12.2562C63.1126 12.4432 63.5288 12.7141 63.8756 13.0671C64.2258 13.4219 64.4998 13.8571 64.694 14.3744C64.8917 14.8883 64.9923 15.4755 64.9923 16.1361C64.9923 16.4717 64.9576 16.6989 64.8882 16.8142C64.8189 16.9313 64.6819 16.989 64.479 16.989H58.847Z" fill="#0C120C"/>
<path d="M68.6828 13.2489C68.8666 13.0636 69.0609 12.8906 69.2655 12.7316C69.4683 12.5743 69.6834 12.4415 69.9105 12.3331C70.1411 12.2212 70.3856 12.1356 70.6457 12.0744C70.9041 12.0098 71.1885 11.9766 71.4989 11.9766C71.9931 11.9766 72.4318 12.0639 72.8167 12.2352C73.2051 12.403 73.5259 12.6407 73.7808 12.9483C74.0392 13.2559 74.2334 13.6247 74.3634 14.0529C74.497 14.4775 74.5646 14.9459 74.5646 15.458V21.2954H72.3797V15.458C72.3797 14.8987 72.2514 14.4653 71.9983 14.1577C71.7434 13.8501 71.3549 13.6963 70.833 13.6963C70.4533 13.6963 70.0978 13.7837 69.7649 13.955C69.4354 14.128 69.1233 14.3639 68.8285 14.6611V21.2954H66.6367V12.1234H67.9754C68.2615 12.1234 68.4488 12.2562 68.5372 12.5219L68.6828 13.2489Z" fill="#0C120C"/>
<path d="M82.3588 14.4635C82.1091 14.1611 81.8351 13.9461 81.5404 13.8203C81.249 13.6945 80.9335 13.6316 80.5971 13.6316C80.2676 13.6316 79.9693 13.6945 79.7023 13.8203C79.4387 13.9461 79.2116 14.1349 79.0226 14.3866C78.8318 14.6382 78.6862 14.9598 78.5856 15.3513C78.4833 15.7428 78.433 16.2042 78.433 16.7355C78.433 17.272 78.4746 17.7265 78.5579 18.0987C78.6446 18.4727 78.7694 18.7768 78.9324 19.0145C79.0937 19.2487 79.2879 19.4165 79.515 19.5179C79.7457 19.621 80.004 19.6717 80.2919 19.6717C80.7444 19.6717 81.1311 19.579 81.4502 19.392C81.7692 19.2015 82.071 18.9289 82.3588 18.5741V14.4635ZM84.5506 8.00391V21.2935H83.2119C82.9206 21.2935 82.7351 21.159 82.6571 20.8881L82.4698 20.0072C82.1039 20.4319 81.6825 20.7745 81.2074 21.0349C80.7306 21.2953 80.1757 21.4264 79.5428 21.4264C79.0469 21.4264 78.5925 21.3233 78.1764 21.1188C77.7637 20.909 77.4082 20.6067 77.1082 20.21C76.8117 19.815 76.5811 19.3256 76.4146 18.7419C76.2516 18.1546 76.1719 17.487 76.1719 16.7355C76.1719 16.0556 76.2638 15.4247 76.4493 14.841C76.6331 14.2537 76.8967 13.7469 77.24 13.317C77.5816 12.8888 77.9908 12.5532 78.4677 12.3103C78.948 12.0691 79.4873 11.9468 80.0838 11.9468C80.5919 11.9468 81.0271 12.0289 81.3878 12.1914C81.7484 12.3557 82.071 12.5724 82.3588 12.8416V8.00391H84.5506Z" fill="#0C120C"/>
<path d="M92.5752 15.6538C92.5752 15.3706 92.5353 15.1015 92.4573 14.8498C92.3775 14.5946 92.2578 14.3709 92.0966 14.1787C91.9388 13.9882 91.7376 13.8396 91.4932 13.7313C91.2469 13.6194 90.9608 13.5635 90.6331 13.5635C90.0036 13.5635 89.506 13.7453 89.1418 14.1088C88.776 14.4723 88.5419 14.9879 88.4413 15.6538H92.5752ZM88.3997 16.989C88.4361 17.4609 88.5193 17.8681 88.6494 18.2124C88.7777 18.5532 88.9494 18.8346 89.1627 19.0583C89.3742 19.282 89.6274 19.4498 89.9187 19.5617C90.2135 19.67 90.5377 19.7224 90.8897 19.7224C91.2452 19.7224 91.5504 19.6805 91.8053 19.5966C92.0636 19.5127 92.2908 19.4218 92.485 19.324C92.6792 19.2226 92.8474 19.1282 92.9913 19.0443C93.1335 18.9604 93.2757 18.9185 93.4144 18.9185C93.5948 18.9185 93.73 18.9867 93.8237 19.1212L94.4479 19.9252C94.2069 20.2153 93.9346 20.4565 93.6294 20.6522C93.3277 20.8445 93.0139 20.9983 92.6861 21.1136C92.3567 21.2307 92.022 21.3111 91.6804 21.3583C91.3423 21.4037 91.0146 21.4282 90.6955 21.4282C90.0609 21.4282 89.4713 21.3234 88.9268 21.1136C88.3858 20.9004 87.9142 20.5876 87.5119 20.1769C87.1096 19.7626 86.7923 19.2506 86.5616 18.6389C86.3293 18.0237 86.2148 17.3158 86.2148 16.5136C86.2148 15.8845 86.3137 15.2955 86.5131 14.7449C86.716 14.1962 87.0055 13.7173 87.3801 13.3118C87.7581 12.9029 88.2194 12.5778 88.7604 12.3401C89.3014 12.0989 89.9117 11.9766 90.5915 11.9766C91.1637 11.9766 91.6943 12.0709 92.1798 12.2562C92.6653 12.4432 93.0815 12.7141 93.4283 13.0671C93.7786 13.4219 94.0525 13.8571 94.2467 14.3744C94.4444 14.8883 94.545 15.4755 94.545 16.1361C94.545 16.4717 94.5103 16.6989 94.441 16.8142C94.3716 16.9313 94.2346 16.989 94.0317 16.989H88.3997Z" fill="#0C120C"/>
<path d="M98.2564 13.7109C98.5373 13.1656 98.8737 12.7374 99.2621 12.4246C99.654 12.1083 100.117 11.9492 100.649 11.9492C101.069 11.9492 101.407 12.0436 101.662 12.2289L101.523 13.8857C101.49 13.994 101.447 14.0709 101.391 14.1164C101.336 14.1583 101.261 14.1793 101.17 14.1793C101.076 14.1793 100.942 14.1653 100.767 14.1374C100.596 14.1059 100.427 14.0884 100.261 14.0884C100.02 14.0884 99.8049 14.1269 99.6158 14.2003C99.4251 14.2702 99.2552 14.3733 99.1026 14.5079C98.9535 14.639 98.8217 14.7997 98.7072 14.9902C98.591 15.1825 98.4818 15.401 98.3812 15.6474V21.296H96.1895V12.124H97.4726C97.698 12.124 97.8558 12.1642 97.9443 12.2428C98.031 12.3232 98.0917 12.4665 98.1246 12.6763L98.2564 13.7109Z" fill="#0C120C"/>
<path d="M111.964 18.2476C112.092 18.2476 112.209 18.3 112.311 18.4014L113.247 19.429C112.729 20.0774 112.089 20.5738 111.326 20.9181C110.566 21.2641 109.656 21.4354 108.593 21.4354C107.639 21.4354 106.783 21.2729 106.02 20.946C105.26 20.621 104.614 20.1666 104.078 19.5828C103.54 18.9956 103.128 18.2965 102.836 17.4856C102.548 16.6746 102.406 15.7903 102.406 14.829C102.406 13.8608 102.561 12.973 102.871 12.1655C103.18 11.3546 103.613 10.659 104.168 10.0752C104.726 9.49325 105.392 9.03884 106.166 8.71202C106.942 8.38694 107.802 8.22266 108.746 8.22266C109.679 8.22266 110.508 8.37995 111.229 8.69104C111.954 8.99864 112.571 9.40411 113.081 9.90746L112.283 11.019C112.236 11.0942 112.176 11.1588 112.103 11.2147C112.028 11.2672 111.926 11.2916 111.798 11.2916C111.704 11.2916 111.612 11.2672 111.52 11.2147C111.427 11.1641 111.322 11.1011 111.208 11.026C111.097 10.9526 110.967 10.8704 110.82 10.7813C110.671 10.6939 110.501 10.6118 110.306 10.5366C110.112 10.4632 109.885 10.4003 109.627 10.3479C109.367 10.2972 109.068 10.271 108.732 10.271C108.158 10.271 107.633 10.3741 107.157 10.5786C106.681 10.7848 106.271 11.0819 105.93 11.4734C105.586 11.8649 105.321 12.3438 105.132 12.9065C104.941 13.4711 104.848 14.1125 104.848 14.829C104.848 15.5561 104.948 16.2045 105.153 16.7725C105.356 17.337 105.631 17.8141 105.978 18.2056C106.329 18.5936 106.741 18.889 107.213 19.0935C107.688 19.2997 108.2 19.4011 108.746 19.4011C109.068 19.4011 109.363 19.3853 109.627 19.3521C109.89 19.3154 110.133 19.2577 110.355 19.1773C110.577 19.0987 110.785 18.9991 110.979 18.8767C111.177 18.7561 111.376 18.6041 111.576 18.4223C111.631 18.3716 111.69 18.3297 111.756 18.2965C111.825 18.265 111.895 18.2476 111.964 18.2476Z" fill="#0C120C"/>
<path d="M119.352 17.3811C118.717 17.4091 118.187 17.465 117.757 17.5489C117.327 17.6293 116.98 17.7307 116.716 17.8565C116.456 17.9788 116.273 18.1222 116.162 18.2899C116.051 18.4577 115.995 18.6395 115.995 18.8352C115.995 19.2232 116.108 19.4994 116.335 19.6671C116.56 19.8349 116.857 19.9188 117.223 19.9188C117.675 19.9188 118.064 19.8384 118.388 19.6741C118.716 19.5116 119.037 19.2617 119.352 18.9261V17.3811ZM114.33 13.4033C115.379 12.4351 116.64 11.9492 118.111 11.9492C118.641 11.9492 119.118 12.0384 119.539 12.2149C119.959 12.3931 120.313 12.6378 120.601 12.9489C120.892 13.2618 121.114 13.6375 121.266 14.0744C121.419 14.5079 121.495 14.9833 121.495 15.5006V21.296H120.497C120.288 21.296 120.129 21.2663 120.018 21.2051C119.907 21.1405 119.819 21.0129 119.754 20.8206L119.56 20.1635C119.328 20.3697 119.102 20.5515 118.88 20.7088C118.662 20.8678 118.437 21.0006 118.201 21.1073C117.965 21.2156 117.71 21.296 117.438 21.3519C117.169 21.4079 116.872 21.4358 116.55 21.4358C116.165 21.4358 115.81 21.3834 115.482 21.282C115.158 21.1807 114.878 21.0234 114.643 20.8136C114.407 20.6039 114.223 20.3453 114.095 20.0377C113.965 19.7266 113.9 19.3648 113.9 18.9541C113.9 18.7216 113.937 18.4909 114.011 18.262C114.089 18.0348 114.214 17.8146 114.386 17.6048C114.561 17.3951 114.788 17.1994 115.066 17.0176C115.347 16.8323 115.69 16.6716 116.092 16.5352C116.498 16.3954 116.97 16.2836 117.507 16.1997C118.048 16.1123 118.662 16.0581 119.352 16.0389V15.5006C119.352 14.8854 119.222 14.431 118.964 14.1374C118.704 13.8437 118.329 13.6969 117.84 13.6969C117.483 13.6969 117.188 13.7389 116.952 13.8228C116.72 13.9067 116.515 14.001 116.335 14.1024C116.158 14.2055 115.997 14.2982 115.849 14.382C115.705 14.4659 115.546 14.5079 115.371 14.5079C115.218 14.5079 115.088 14.4694 114.982 14.389C114.875 14.3104 114.79 14.2178 114.726 14.1094L114.33 13.4033Z" fill="#0C120C"/>
<path d="M125.618 13.7109C125.899 13.1656 126.235 12.7374 126.623 12.4246C127.015 12.1083 127.478 11.9492 128.011 11.9492C128.43 11.9492 128.768 12.0436 129.023 12.2289L128.885 13.8857C128.852 13.994 128.808 14.0709 128.753 14.1164C128.697 14.1583 128.623 14.1793 128.531 14.1793C128.437 14.1793 128.304 14.1653 128.129 14.1374C127.957 14.1059 127.789 14.0884 127.622 14.0884C127.381 14.0884 127.166 14.1269 126.977 14.2003C126.786 14.2702 126.617 14.3733 126.464 14.5079C126.315 14.639 126.183 14.7997 126.069 14.9902C125.952 15.1825 125.843 15.401 125.743 15.6474V21.296H123.551V12.124H124.834C125.059 12.124 125.217 12.1642 125.306 12.2428C125.392 12.3232 125.453 12.4665 125.486 12.6763L125.618 13.7109Z" fill="#0C120C"/>
<path d="M136.03 15.6538C136.03 15.3706 135.99 15.1015 135.912 14.8498C135.833 14.5946 135.713 14.3709 135.552 14.1787C135.394 13.9882 135.193 13.8396 134.948 13.7313C134.702 13.6194 134.416 13.5635 134.088 13.5635C133.459 13.5635 132.961 13.7453 132.597 14.1088C132.231 14.4723 131.997 14.9879 131.896 15.6538H136.03ZM131.855 16.989C131.891 17.4609 131.974 17.8681 132.104 18.2124C132.233 18.5532 132.404 18.8346 132.618 19.0583C132.829 19.282 133.082 19.4498 133.374 19.5617C133.669 19.67 133.993 19.7224 134.345 19.7224C134.7 19.7224 135.005 19.6805 135.26 19.5966C135.519 19.5127 135.746 19.4218 135.94 19.324C136.134 19.2226 136.302 19.1282 136.446 19.0443C136.589 18.9604 136.731 18.9185 136.87 18.9185C137.05 18.9185 137.185 18.9867 137.279 19.1212L137.903 19.9252C137.662 20.2153 137.39 20.4565 137.085 20.6522C136.783 20.8445 136.469 20.9983 136.141 21.1136C135.812 21.2307 135.477 21.3111 135.136 21.3583C134.797 21.4037 134.47 21.4282 134.151 21.4282C133.516 21.4282 132.926 21.3234 132.382 21.1136C131.841 20.9004 131.369 20.5876 130.967 20.1769C130.565 19.7626 130.247 19.2506 130.017 18.6389C129.784 18.0237 129.67 17.3158 129.67 16.5136C129.67 15.8845 129.769 15.2955 129.968 14.7449C130.171 14.1962 130.461 13.7173 130.835 13.3118C131.213 12.9029 131.674 12.5778 132.215 12.3401C132.756 12.0989 133.367 11.9766 134.047 11.9766C134.619 11.9766 135.149 12.0709 135.635 12.2562C136.12 12.4432 136.537 12.7141 136.883 13.0671C137.234 13.4219 137.508 13.8571 137.702 14.3744C137.9 14.8883 138 15.4755 138 16.1361C138 16.4717 137.965 16.6989 137.896 16.8142C137.827 16.9313 137.69 16.989 137.487 16.989H131.855Z" fill="#0C120C"/>
</svg>
