<svg width="96" height="96" viewBox="0 0 96 96" fill="none" xmlns="http://www.w3.org/2000/svg">
<g clip-path="url(#clip0_90_29386)">
<path d="M89.7992 4.19922H10.3992C6.99922 4.19922 4.19922 6.99922 4.19922 10.3992V89.7992C4.19922 93.1992 6.99922 95.9992 10.3992 95.9992H89.7992C93.1992 95.9992 95.9992 93.1992 95.9992 89.7992V10.3992C95.9992 6.99922 93.1992 4.19922 89.7992 4.19922Z" fill="#D5D6DB"/>
<path d="M85.6 0H6.2C2.8 0 0 2.8 0 6.2V85.6C0 89 2.8 91.8 6.2 91.8H85.6C89 91.8 91.8 89 91.8 85.6V6.2C91.8 2.8 89 0 85.6 0Z" fill="white"/>
<path d="M21.933 4.12837C21.5328 4.12837 20.7449 4.12837 19.7132 4.12837H17.1808C16.0553 4.12837 12.8914 4.12837 12.4912 4.12837L10.8967 4.12848C10.4965 4.12848 9.86501 4.1209 9.11467 4.12837H6.95745C6.20711 4.12078 6.1259 4.12837 5.72572 4.12837H4.125V82.1434C4.125 83.4739 5.0254 84.5625 6.1259 84.5625H85.5616C86.6621 84.5625 87.5625 83.4739 87.5625 82.1434V4.12837H21.933Z" fill="#EBF0F3"/>
<path d="M26.7018 42.6461C27.1006 38.6623 28.6958 35.0769 31.0885 32.1555L25.7713 26.8438C22.0493 31.0931 19.6566 36.6704 19.2578 42.6461H26.7018Z" fill="#6F3DCB"/>
<path d="M31.0886 56.7211C28.6959 53.7997 27.1007 50.2143 26.7019 46.2305H19.125C19.5238 52.3389 21.9165 57.7835 25.6385 62.0328L31.0886 56.7211Z" fill="#8C64D5"/>
<path d="M33.614 29.7639C36.5385 27.3736 40.1275 25.7801 44.1154 25.3817V17.8125C38.0007 18.2109 32.5506 20.6012 28.2969 24.3194L33.614 29.7639Z" fill="#6538B9"/>
<path d="M47.5715 17.8125V25.3817C51.5594 25.7801 55.1485 27.3736 58.0729 29.7639L63.3901 24.4522C59.1363 20.6012 53.6863 18.2109 47.5715 17.8125ZM64.9852 46.0974C64.5864 50.0812 62.9913 53.6666 60.5986 56.5881L65.9157 61.8998C69.6377 57.6504 72.0304 52.0731 72.4292 46.0974H64.9852ZM60.5986 32.1541C62.9913 35.0756 64.5864 38.661 64.9852 42.6448H72.5621C72.1634 36.5363 69.7706 31.0918 66.0486 26.8424L60.5986 32.1541ZM58.2058 59.1111C55.2814 61.5014 51.6923 63.0949 47.7045 63.4933V71.0625C53.8192 70.6641 59.2693 68.2738 63.523 64.5556L58.2058 59.1111ZM44.1154 63.4933C40.1275 63.0949 36.5385 61.5014 33.614 59.1111L28.2969 64.4228C32.5506 68.1411 38.1336 70.5313 44.1154 70.9297V63.4933Z" fill="#9F7DDC"/>
</g>
<defs>
<clipPath id="clip0_90_29386">
<rect width="96" height="96" fill="white"/>
</clipPath>
</defs>
</svg>
