<svg width="18" height="18" viewBox="0 0 18 18" fill="none" xmlns="http://www.w3.org/2000/svg">
<g filter="url(#filter0_d_257_49621)">
<path d="M9 0C8.01109 0 7.0444 0.293245 6.22215 0.842652C5.3999 1.39206 4.75904 2.17295 4.3806 3.08658C4.00217 4.00021 3.90315 5.00555 4.09608 5.97545C4.289 6.94535 4.76521 7.83627 5.46447 8.53553C6.16373 9.2348 7.05464 9.711 8.02455 9.90392C8.99445 10.0969 9.99979 9.99783 10.9134 9.6194C11.827 9.24096 12.6079 8.6001 13.1573 7.77785C13.7068 6.9556 14 5.98891 14 5C13.9985 3.67437 13.4713 2.40345 12.5339 1.46609C11.5965 0.528727 10.3256 0.00147047 9 0ZM9 8.88889C8.23085 8.88889 7.47898 8.66081 6.83945 8.23349C6.19993 7.80617 5.70148 7.19881 5.40714 6.48821C5.1128 5.77761 5.03578 4.99568 5.18584 4.24131C5.33589 3.48694 5.70627 2.79401 6.25014 2.25014C6.79401 1.70627 7.48695 1.33589 8.24132 1.18583C8.99569 1.03578 9.77761 1.11279 10.4882 1.40713C11.1988 1.70148 11.8062 2.19992 12.2335 2.83945C12.6608 3.47897 12.8889 4.23085 12.8889 5C12.8878 6.03106 12.4777 7.01957 11.7486 7.74864C11.0196 8.47771 10.0311 8.88778 9 8.88889ZM8.44445 5.18518V2.77778C8.44445 2.63043 8.50298 2.48913 8.60716 2.38494C8.71135 2.28075 8.85266 2.22222 9 2.22222C9.14734 2.22222 9.28865 2.28075 9.39284 2.38494C9.49702 2.48913 9.55556 2.63043 9.55556 2.77778V5.18518C9.55556 5.33253 9.49702 5.47383 9.39284 5.57802C9.28865 5.68221 9.14734 5.74074 9 5.74074C8.85266 5.74074 8.71135 5.68221 8.60716 5.57802C8.50298 5.47383 8.44445 5.33253 8.44445 5.18518ZM9.74074 7.03704C9.74074 7.18354 9.6973 7.32676 9.6159 7.44857C9.53451 7.57038 9.41882 7.66533 9.28347 7.72139C9.14812 7.77746 8.99918 7.79212 8.85549 7.76354C8.7118 7.73496 8.57981 7.66441 8.47622 7.56082C8.37262 7.45722 8.30208 7.32524 8.27349 7.18155C8.24491 7.03786 8.25958 6.88892 8.31565 6.75357C8.37171 6.61821 8.46665 6.50253 8.58847 6.42113C8.71028 6.33974 8.8535 6.2963 9 6.2963C9.19646 6.2963 9.38487 6.37434 9.52378 6.51325C9.6627 6.65217 9.74074 6.84058 9.74074 7.03704Z" fill="#E50000"/>
</g>
<defs>
<filter id="filter0_d_257_49621" x="0" y="0" width="18" height="18" filterUnits="userSpaceOnUse" color-interpolation-filters="sRGB">
<feFlood flood-opacity="0" result="BackgroundImageFix"/>
<feColorMatrix in="SourceAlpha" type="matrix" values="0 0 0 0 0 0 0 0 0 0 0 0 0 0 0 0 0 0 127 0" result="hardAlpha"/>
<feOffset dy="4"/>
<feGaussianBlur stdDeviation="2"/>
<feComposite in2="hardAlpha" operator="out"/>
<feColorMatrix type="matrix" values="0 0 0 0 0 0 0 0 0 0 0 0 0 0 0 0 0 0 0.25 0"/>
<feBlend mode="normal" in2="BackgroundImageFix" result="effect1_dropShadow_257_49621"/>
<feBlend mode="normal" in="SourceGraphic" in2="effect1_dropShadow_257_49621" result="shape"/>
</filter>
</defs>
</svg>
