<svg width="80" height="80" viewBox="0 0 80 80" fill="none" xmlns="http://www.w3.org/2000/svg">
<path d="M39.9996 2.5C30.0541 2.5 20.5159 6.45084 13.4834 13.4834C6.45084 20.5159 2.5 30.0541 2.5 39.9996C2.5 49.9452 6.45084 59.4833 13.4834 66.5159C20.5159 73.5484 30.0541 77.4993 39.9996 77.4993L77.4993 39.9996C77.4993 30.0541 73.5484 20.5159 66.5159 13.4834C59.4833 6.45084 49.9452 2.5 39.9996 2.5Z" fill="#A8D0FF"/>
<path d="M39.9993 8.75C22.7412 8.75 8.75 22.7412 8.75 40.0017C8.75 57.2574 22.7412 71.2486 40.0017 71.2486C41.2867 71.2628 42.5245 71.2014 43.7221 71.088L71.1258 42.3119C71.2037 41.5064 71.2462 40.7292 71.2462 39.9993C71.2462 22.7412 57.255 8.75 39.9969 8.75H39.9993Z" fill="#00A1FF"/>
<path d="M51.1964 56.7247C48.135 58.9688 43.8807 53.7153 40.0847 53.7342C36.2887 53.7554 32.0864 59.0491 29.0061 56.8333C25.9211 54.6152 29.6037 48.9484 28.4155 45.3437C27.2226 41.7366 20.8873 39.3792 22.0424 35.7627C23.1999 32.1438 29.7289 33.8966 32.7903 31.6478C35.8493 29.4037 36.1352 22.6478 39.9312 22.6289C43.7296 22.61 44.0815 29.3612 47.1642 31.5793C50.2468 33.795 56.757 31.9808 57.9499 35.5855C59.1404 39.1902 52.8287 41.6114 51.6736 45.2279C50.5161 48.8444 54.2555 54.4759 51.1964 56.7247Z" fill="white"/>
<path d="M77.4996 40L40 77.4996C40 67.5541 43.9508 58.0159 50.9834 50.9834C58.0159 43.9508 67.5541 40 77.4996 40Z" fill="#0066FF"/>
</svg>
