<svg width="33" height="33" viewBox="0 0 33 33" fill="none" xmlns="http://www.w3.org/2000/svg">
<path d="M5.68044 15.3135C5.68044 9.80438 10.1111 5.33658 15.577 5.33658C18.0767 5.33658 20.3597 6.27087 22.1012 7.81192C20.2056 4.84949 16.906 2.89062 13.1503 2.89062C7.27189 2.89062 2.50586 7.69435 2.50586 13.6192C2.50586 18.7673 6.1033 23.0671 10.9027 24.1064C7.79474 22.4247 5.68044 19.1179 5.68044 15.3135Z" fill="#6F3DCB"/>
<mask id="mask0_262_51061" style="mask-type:luminance" maskUnits="userSpaceOnUse" x="0" y="0" width="33" height="33">
<path d="M0.0078125 0.207031H32.5368V32.2417H0.0078125V0.207031Z" fill="white"/>
</mask>
<g mask="url(#mask0_262_51061)">
<path d="M25.8 0.28064C25.6042 0.207157 25.5167 0.412911 25.4834 0.690049C25.4188 1.22963 25.6334 1.76291 26.0396 2.12193C30.2827 5.86959 29.4599 15.0529 26.6853 14.505C24.8647 14.1459 26.804 8.68926 25.2855 8.5045C24.2773 8.38063 23.3816 10.9085 23.4462 14.2446C23.4816 16.151 24.0898 17.7256 24.6252 19.0924C25.398 21.0723 24.6877 23.3377 22.9087 24.4819C17.247 28.1246 9.64173 27.4528 4.69656 22.4685C2.0844 19.8357 0.667924 16.4533 0.442954 13.008C-0.648568 18.1099 0.776243 23.6505 4.72155 27.6081C9.69173 32.5987 17.6303 33.638 23.7065 30.1024C29.4745 26.7431 31.8867 19.8357 32.2304 13.4132C32.6658 5.24393 28.0143 1.12255 25.8 0.28064ZM25.0043 4.75054C27.2082 6.7031 28.0435 10.1232 27.9456 12.8778C28.2913 12.0254 28.4788 10.7741 28.4351 9.43459C28.3788 7.64369 27.956 5.96827 27.2477 4.60987C26.3333 3.72177 25.4334 3.1612 24.7585 2.90505C24.5585 2.82947 24.4731 3.04572 24.4398 3.33126C24.3814 3.86874 24.6023 4.39572 25.0043 4.75054Z" fill="#6F3DCB"/>
</g>
<mask id="mask1_262_51061" style="mask-type:luminance" maskUnits="userSpaceOnUse" x="11" y="15" width="11" height="10">
<path d="M11.207 15.043H21.7369V24.9968H11.207V15.043Z" fill="white"/>
</mask>
<g mask="url(#mask1_262_51061)">
<path fill-rule="evenodd" clip-rule="evenodd" d="M16.4047 16.1508C14.4945 14.7735 11.5137 15.2941 11.6261 18.4623C11.7407 21.7061 15.7923 24.3956 16.7067 24.9625C17.542 24.4439 21.0145 22.1428 21.6769 19.2644C21.1061 19.8249 20.3271 20.1714 19.4668 20.1714C17.717 20.1714 16.2984 18.7416 16.2984 16.978C16.2984 16.6903 16.3359 16.4153 16.4047 16.1508Z" fill="#4DAFA1"/>
</g>
<path fill-rule="evenodd" clip-rule="evenodd" d="M16.764 13.3292C16.764 13.3292 16.5306 13.4195 16.1807 13.7869C15.8307 14.1522 15.4683 14.7653 14.2164 14.7653C12.9665 14.7653 11.5021 13.4006 11.6834 11.4816C11.2418 11.3766 11.373 12.9303 10.3356 13.7008C9.29827 14.4713 6.94025 14.3286 7.02983 11.6895C7.76931 11.8595 9.7003 12.1997 9.90861 10.541C10.1148 8.88239 11.9938 9.07765 12.2791 9.99094C12.8374 9.69071 14.0685 9.15533 15.26 9.61303C16.4515 10.0707 16.8806 11.0239 16.7119 11.3367C16.5431 11.6496 16.3869 12.6301 16.764 13.3292Z" fill="#4DAFA1"/>
<mask id="mask2_262_51061" style="mask-type:luminance" maskUnits="userSpaceOnUse" x="17" y="14" width="5" height="6">
<path d="M17.0723 14.5059H21.7362V19.3432H17.0723V14.5059Z" fill="white"/>
</mask>
<g mask="url(#mask2_262_51061)">
<path d="M21.7499 16.979C21.7499 17.1301 21.7353 17.2792 21.7062 17.4283C21.677 17.5752 21.6333 17.7201 21.5749 17.8608C21.5187 17.9993 21.4479 18.1316 21.3645 18.2576C21.2812 18.3836 21.1854 18.499 21.0792 18.6061C20.975 18.7132 20.8584 18.8098 20.7334 18.8937C20.6084 18.9777 20.4772 19.0491 20.3397 19.1058C20.2001 19.1646 20.0585 19.2066 19.9106 19.2381C19.7627 19.2675 19.6148 19.2822 19.4648 19.2822C19.3148 19.2822 19.1669 19.2675 19.019 19.2381C18.8711 19.2066 18.7295 19.1646 18.5899 19.1058C18.4524 19.0491 18.3212 18.9777 18.1962 18.8937C18.0712 18.8098 17.9546 18.7132 17.8483 18.6061C17.7442 18.499 17.6484 18.3836 17.5651 18.2576C17.4817 18.1316 17.4109 17.9993 17.3547 17.8608C17.2963 17.7201 17.2526 17.5752 17.2234 17.4283C17.1943 17.2792 17.1797 17.1301 17.1797 16.979C17.1797 16.8278 17.1943 16.6787 17.2234 16.5297C17.2526 16.3806 17.2963 16.2378 17.3547 16.0972C17.4109 15.9586 17.4817 15.8242 17.5651 15.7004C17.6484 15.5744 17.7442 15.4568 17.8483 15.3497C17.9546 15.2427 18.0712 15.1482 18.1962 15.0642C18.3212 14.9802 18.4524 14.9088 18.5899 14.8521C18.7295 14.7934 18.8711 14.7493 19.019 14.7199C19.1669 14.6905 19.3148 14.6758 19.4648 14.6758C19.6148 14.6758 19.7627 14.6905 19.9106 14.7199C20.0585 14.7493 20.2001 14.7934 20.3397 14.8521C20.4772 14.9088 20.6084 14.9802 20.7334 15.0642C20.8584 15.1482 20.975 15.2427 21.0792 15.3497C21.1854 15.4568 21.2812 15.5744 21.3645 15.7004C21.4479 15.8242 21.5187 15.9586 21.5749 16.0972C21.6333 16.2378 21.677 16.3806 21.7062 16.5297C21.7353 16.6787 21.7499 16.8278 21.7499 16.979Z" fill="#4DAFA1"/>
</g>
</svg>
